<?xml version="1.0" encoding="utf-8"?>
<!-- Generator: Adobe Illustrator 24.2.1, SVG Export Plug-In . SVG Version: 6.00 Build 0)  -->
<svg version="1.1" id="Layer_1" xmlns="http://www.w3.org/2000/svg" xmlns:xlink="http://www.w3.org/1999/xlink" x="0px" y="0px"
	 viewBox="0 0 35 35" style="enable-background:new 0 0 35 35;" xml:space="preserve">
<style type="text/css">
	.st0{fill:#FF0000;}
</style>
<g>
	<path class="st0" d="M12.39,14.58c0.09,0,0.09,0.11,0.2,0.15c0.12,0.04,0.21,0.3,0.08,0.39c-0.14,0.09-0.26,0.04-0.36,0.11
		c-0.1,0.08-0.74,0.63-1.48,0.93c-0.74,0.3-2.44,0.94-3.08,1.23c-0.64,0.29-0.83,0.31-1.32,0.38c-0.49,0.06-1.32,0.36-1.81,0.59
		s-0.59,0.26-0.54,0.49s0.19,1.12,0.34,1.08s0.41-0.21,0.46-0.21s0.45,0.65,0.67,0.93c0.21,0.28,0.33,0.36,0.39,0.51
		S6,21.4,6.1,21.45c0.1,0.05,0.13,0.06,0.18,0.09c0.05,0.03,0.06-0.01,0.11,0.08s0.1,0.09,0.13,0.15c0.02,0.06,0.14,0.14,0.2,0.2
		c0.06,0.06,0.04,0.01,0.09,0.1s0.04,0.16,0.2,0.3s0.04,0.09,0.21,0.16c0.18,0.08,0.22,0.04,0.24,0.14c0.02,0.1,0.01,0.11,0.07,0.14
		c0.06,0.03,0.13,0.01,0.18,0.06c0.05,0.05,0.06,0.09,0.16,0.11c0.1,0.03,0.15,0.03,0.2,0c0.05-0.02,0.06-0.04,0.11-0.16
		c0.05-0.13,0.14-0.13,0.16-0.09c0.03,0.04,0.05,0.06,0.12,0.06c0.08,0,0.14,0.01,0.19-0.01c0.05-0.03,0.06-0.01,0.12-0.06
		c0.06-0.05,0.11,0.23,0.19,0.36c0.07,0.14,0.01,0.11,0.15,0.16c0.14,0.05,0.11,0.02,0.23,0.14c0.11,0.11,0.15,0.09,0.23,0.16
		c0.07,0.08,0.09,0.09,0.21,0.1c0.13,0.01,0.08,0.04,0.24,0s0.25-0.05,0.34-0.04c0.09,0.01,0.13,0.01,0.28-0.02
		c0.15-0.04,0.5,0.1,0.69,0.05c0.19-0.05,0.18-0.09,0.28-0.08c0.1,0.01,0.14,0.01,0.21,0.06c0.08,0.05,0.2,0.04,0.29,0.1
		s0.16,0.1,0.26,0.15s0.15,0.06,0.23,0.11c0.07,0.05,0.09,0.11,0.19,0.05c0.1-0.06,0.11-0.13,0.19-0.15
		c0.07-0.03,0.11,0.03,0.11,0.03s0.1,0.3,0.11,0.62c0.01,0.31-0.09,0.38-0.36,0.68c-0.28,0.3-0.94,1.14-1.08,2.18
		c-0.14,1.04-0.26,1.77-0.59,2.15s-0.65,0.5-0.73,0.84s-0.28,0.89-0.28,1.23s-0.04,0.46-0.21,0.78c-0.18,0.31,0,1.67,0.95,1.76
		s0.78-1.31,0.77-1.67c-0.01-0.36,0.17-0.66,0.23-0.85c0.05-0.19,0-0.2,0.1-0.34s0.01-0.26,0.01-0.26s0.06-0.36,0.15-0.48
		c0.09-0.11-0.05-0.38,0.19-0.97s0.92-1.28,1.81-2.42s1.42-1.62,1.41-2.35s0-1.12,0-1.12l0.2,0.09c0,0,0.02-0.03,0.09,0
		c0.06,0.03,0.01,0.05,0.06,0.03c0.05-0.03,0.04,0.41-0.02,0.88c-0.06,0.46,0.01,0.84,0.04,1.19c0.02,0.35-0.31,1.05-0.55,1.67
		s-0.19,1.62-0.2,2.51s-0.09,1.39-0.34,2c-0.25,0.6-0.26,0.82-0.26,0.82s-0.18,0.35-0.16,0.7c0.01,0.35,0.07,0.48,0.02,0.67
		c-0.05,0.19,0.13,0.29,0.43,0.31s0.63,0,1.08-0.14s0.6-0.15,0.94-0.16s1.08-0.31,1.07-0.5s-0.09-0.56-0.5-0.6
		c-0.42-0.04-0.83-0.1-1.13-0.43s-0.39-0.29-0.39-0.29s0.07-0.82,0.54-1.87c0.47-1.05,1.1-2.35,1.29-3.8
		c0.19-1.46,0.32-2.18,0.32-2.18s0.09,0.06,0.24,0s0.06-0.08,0.2-0.04c0.14,0.04,0.09,0.06,0.24,0.04c0.15-0.03,0.02,0.06,0.21,0.01
		c0.19-0.05,0.14-0.05,0.28-0.09c0.14-0.04,0.12-0.05,0.24-0.05c0.11,0,0.06,0.03,0.24-0.04c0.18-0.06,0.13,0.01,0.3-0.1
		s0.15-0.06,0.29-0.19c0.14-0.13,0.05-0.09,0.16-0.18s0.09-0.15,0.24-0.11c0.15,0.04,0.15,0.18,0.34,0.05
		c0.19-0.13,0.45-0.2,0.57-0.26c0.13-0.06,0.13-0.1,0.01-0.28c-0.11-0.18-0.26-0.67-0.62-1.18c-0.35-0.52-0.65-1.08-0.71-1.27
		s-0.12-0.28-0.21-0.35c-0.09-0.08-0.48-0.66-0.54-1.04c-0.06-0.38-0.31-1.03-0.3-1.38c0.01-0.35-0.2-0.67-0.32-1.04
		c-0.13-0.38-0.21-0.95-0.57-1.26c-0.35-0.3-0.41-0.33-0.46-0.54s-0.06-0.49-0.06-0.49s0.14,0.09,0.34-0.13
		c0.2-0.21,0.16-0.65,0.1-0.77c-0.06-0.11,0.09-0.2,0.09-0.38s0.11-0.34,0.15-0.61c0.04-0.28,0.08-0.53,0.09-0.57
		s0.58,0.36,1.16,0.41c0.57,0.05,1.03,0.09,1.29-0.1c0.26-0.19,0.75-0.89,0.97-1.18c0.21-0.29,1.12-1.73,1.46-2.18
		c0.34-0.45,0.29-0.5,0.54-0.65s0.73-0.58,0.99-0.9c0.26-0.33,0.44-0.25,0.39-0.72c-0.05-0.46-0.25-0.51-0.25-0.57
		c0-0.05,0.03-0.06,0.3-0.13C25.76,6.25,25.84,6,25.53,6s-0.74,0-0.92,0.2s-0.43,0.36-0.55,0.43c-0.13,0.06-0.14,0.24-0.24,0.49
		c-0.1,0.25-0.37,0.8-0.66,1.06c-0.29,0.25-0.8,1.05-1.48,1.52c-0.68,0.46-1.43,1.12-1.43,1.12s-0.6-0.83-1.08-1.2
		c0-0.29-0.01-0.39-0.09-0.54c-0.07-0.15-0.04-0.39-0.2-0.48c-0.16-0.09-0.21-0.24-0.46-0.54s-0.56-0.16-0.74-0.11
		C17.51,8,17.34,7.8,17.17,7.91c-0.18,0.11-0.31,0.09-0.4,0.05s0.06-0.21,0.1-0.28c0.04-0.06,0.31-0.29,0.36-0.7
		c0.05-0.41,0.29-0.6,0.25-0.87c-0.04-0.26-0.16-0.41-0.09-0.58c0.08-0.16,0.21-0.34,0.15-0.59s-0.05-0.39-0.06-0.59
		c-0.01-0.2-0.1-0.5-0.26-0.79C17.01,3.27,16.6,3.11,16.31,3s-0.72-0.18-1.12-0.01c-0.4,0.16-0.54,0.35-0.88,0.46
		c-0.34,0.11-0.53,0.22-0.63,0.68c-0.1,0.45-0.05,1.04,0.05,1.27s-0.04,0.56,0.16,0.84s0.26,0.29,0.25,0.55
		c-0.01,0.26,0.05,0.48,0.1,0.54s0.06,0.13,0.07,0.18c0.01,0.05,0.01,0.1-0.11,0.21c-0.13,0.11-0.75,0.52-0.88,0.6
		c-0.13,0.09-0.25,0.11-0.49,0.2s-0.39,0.16-0.51,0.44c-0.13,0.28-0.34,0.49-0.45,0.67c-0.12,0.18-0.05,0.34-0.08,0.54
		c-0.02,0.2-0.19,0.5-0.01,0.75c0.17,0.25,0.15,0.23,0.16,0.35c0.01,0.13,0.13,0.19,0.02,0.51c-0.1,0.33-0.15,0.33-0.15,0.67
		s-0.11,0.34,0.01,0.68s0.12,0.26,0.2,0.5c0.07,0.24,0.09,0.21,0.18,0.28c0.09,0.06,0.04,0.33,0.06,0.46
		C12.3,14.51,12.36,14.58,12.39,14.58z"/>
	<path class="st0" d="M23.04,32.81c-0.14,0.05-0.26,0.13-0.3,0.05c-0.04-0.08-0.01-0.13,0-0.47s0.08-1.18-0.01-1.41
		s-0.11-0.24-0.39-0.44c-0.28-0.2-0.49-0.83-0.64-1.37s-0.59-2.1-1.06-4.13c-0.46-2.03-1.04-3.95-1.2-5.2
		c-0.17-1.24-0.08-1.81-0.09-2.52c-0.01-0.72-0.08-1.11,0.04-1.58c0.11-0.48,0.18-0.48,0.15-0.65c-0.02-0.18,0.06-0.19-0.01-0.34
		c-0.07-0.15-0.08-0.11-0.11-0.38c-0.02-0.26-0.12-0.26,0.08-0.63c0.2-0.36,0.2-0.33,0.18-0.51c-0.02-0.19-0.28-1.33-0.35-1.88
		s-0.1-0.5-0.34-0.36s-0.28,0.46-0.94,0.74c-0.67,0.28-0.67,0.28-1.09,0.63c-0.43,0.35-2.18,0.93-2.71,0.97s-0.65,0.21-0.79,0.25
		s-0.44,0.23-0.53,0.16c-0.09-0.06-0.08,0.09-0.15,0.19c-0.08,0.1-0.34,0.04-0.42,0.01c-0.07-0.03-0.14-0.04-0.26-0.35
		c-0.13-0.31-0.2-0.39-0.23-0.62c-0.02-0.23,0.05-0.34,0.05-0.58s0-0.16,0.06-0.38c0.06-0.21-0.01-0.46,0.11-0.64
		s0.26,0.08,0.44,0.14c0.18,0.06,0.11,0.14,0.07,0.21c-0.04,0.08,0.01,0.08,0.12,0.09c0.1,0.01,0.16-0.1,0.27-0.11
		c0.11-0.01,0.18,0,0.31-0.08c0.14-0.08,0.53-0.06,1.14-0.52c0.62-0.45,1.13-0.35,1.65-0.82c0.52-0.46,1.14-1.08,1.44-1.78
		c0.3-0.7,0.38-0.9,0.99-1.52s0.32-0.72,0.81-0.87s1.15-0.42,1.18-0.47c0.02-0.05-0.1-0.28,0.01-0.46c0.11-0.19,0.09-0.33,0.06-0.46
		c-0.02-0.14,0.1-0.15,0.1-0.15s-0.14-0.13-0.13-0.19s-0.14-0.05-0.19-0.15c-0.05-0.1-0.05-0.28-0.05-0.28s-0.25,0.04-0.28-0.13
		C20,3.66,20.17,3.39,20.27,3.23c0.1-0.16,0.15-0.14,0.11-0.3c-0.04-0.16-0.26-0.29-0.15-0.55s0.56-1.42,1.67-1.41
		c1.1,0.01,2.01,0.53,2.15,1c0.14,0.48,0.29,0.53,0.33,0.68c0.04,0.15,0.1,0.15,0.09,0.31c-0.01,0.16-0.04,0.19-0.06,0.31
		c-0.03,0.13,0.11,0.01-0.04,0.21c-0.15,0.2-0.2,0.18-0.21,0.33c-0.01,0.15,0,0.14-0.05,0.28s-0.06,0.11-0.13,0.24
		c-0.06,0.12-0.1,0.19-0.05,0.25c0.05,0.06,0.15,0.33,0.18,0.49c0.02,0.16,0.18,0.11,0.36,0.09c0.19-0.02,0.84,0.04,1.43,0.34
		s0.94,0.26,1.22,1.16c0.28,0.89,0.5,1.47,0.67,2.74c0.16,1.27,0.34,1.68,0.2,2.1c-0.14,0.41-0.18,0.3-0.18,0.58
		s-0.09,0.64-0.45,0.94c-0.36,0.3-0.66,0.29-0.73,0.34c-0.06,0.05,0.04,0.25,0.09,0.4s0.14,0.63-0.05,0.93
		c-0.19,0.3-0.2,0.12-0.19,0.3s0.08,0.15,0.09,0.4s0.06,0.26,0.09,0.48c0.02,0.21,0,0.13,0.01,0.26c0.01,0.14,0.12,0.65,0.16,1.09
		c0.04,0.44,0.29,1.87,0.33,3.47c0.04,1.59-0.04,2.44,0.03,2.98c0.06,0.54,0,1.48-0.05,1.88s0.26,0.63-0.3,1.41
		s-0.98,0.77-0.92,0.99c0.06,0.23,0.25,0.94,0.33,1.44c0.07,0.5-0.12,0.63-0.25,0.69c-0.14,0.06,0.35,0.5,0.31,1.36
		c-0.03,0.85-0.19,1.34-0.75,1.37c-0.57,0.02-1-1.56-1.04-1.97s-0.16-0.38-0.18-0.58c-0.01-0.2-0.12-0.33-0.15-0.45
		c-0.02-0.13,0,0.36,0.08,0.68c0.07,0.31,0.11,0.53,0.15,1.06c0.04,0.53,0.14,0.58,0.29,0.88c0.15,0.3,0.1,0.3,0.01,0.4
		c-0.09,0.1,0,0.44,0.04,0.72c0.04,0.28,0.09,0.45-0.02,0.69c-0.11,0.24-0.15,0.49-0.94,0.49s-1.32-0.31-1.12-0.94
		C22.87,33.16,23.04,32.81,23.04,32.81z"/>
</g>
</svg>
