<?xml version="1.0" encoding="utf-8"?>
<!-- Generator: Adobe Illustrator 24.2.1, SVG Export Plug-In . SVG Version: 6.00 Build 0)  -->
<svg version="1.1" id="Layer_1" xmlns="http://www.w3.org/2000/svg" xmlns:xlink="http://www.w3.org/1999/xlink" x="0px" y="0px"
	 viewBox="0 0 35 35" style="enable-background:new 0 0 35 35;" xml:space="preserve">
<style type="text/css">
	.st0{fill-rule:evenodd;clip-rule:evenodd;fill:#FF0000;}
</style>
<g>
	<path class="st0" d="M17.84,31.84c-4.01-5.07,0.98-7.5,1.54-11.98c0.07-0.53,0.33-1.01,0.73-1.35c0.61-0.52,1.25-0.8,1.78-0.95
		l-0.37-0.73c-0.79,0.19-1.36,0.5-1.74,0.81c-0.29,0.23-0.71,0.15-0.91-0.16c-0.96-1.51-2.96-3.8-1.38-5.18
		c2.09-1.81,3.88-4.1,4.92-5.55l-0.12-0.28l-0.21-0.75c-1.64,2.3-3.04,3.66-3.96,4.6c0.09-2.01-0.49-3.35-1.21-4.23
		c0.04-0.01,0.09-0.02,0.13-0.04L16.73,5.9c-0.7-0.53-1.36-0.19-1.36-0.19l-0.21,0.15c0.13,0.06,0.27,0.06,0.4,0.03
		c1.33,1.14,1.68,2.41,1.65,3.47c-0.03,1.19-0.67,2.27-1.64,2.96c-0.93,0.65-1.71,1.53-1.66,2.77l0,0c0,0.1-0.1,0.18-0.2,0.14
		c-1.18-0.44-2.63-0.58-3.76-0.61l0,0l-0.68,0.53l0.32,0.4c2.37,0.31,4.38,1.36,4.38,1.36c3.02,2.04,1.93,4.39,0.34,6.8
		c-1.52,2.31-3.2,5.26-2.84,8.12C8.24,32.02,5.96,32.47,5.96,33h17.32C23.28,32.48,21.03,32.03,17.84,31.84z"/>
	<path class="st0" d="M20.55,5.67c0.22,0.68-0.45,1.02-0.95,0.77c-0.69,0.77-1.52-0.11-1.52-0.11c-0.18,0.16-0.41,0.24-0.67,0.25
		c-0.14,0.17-0.37,0.34-0.63,0.39c-0.18-0.02-0.32-0.06-0.42-0.11c-0.27-0.13-0.57-0.17-0.86-0.1c-0.05,0.01-0.08,0.02-0.08,0.02
		c-0.26,0.06-0.58,0.01-0.78-0.5c0,0-1,0.81-1.43-0.31c-0.51,1.21-2.7,0.35-1.9-0.79c-1.28-0.51-0.98-2.11,0.23-2.13
		c-0.5-0.84,0.42-1.58,1.12-1.07c-0.15-1.05,2.02-1.54,1.94-0.01c0.74-1.08,2.72-0.66,2.37,0.91c0.65-0.68,1.45-0.18,1.63,0.34
		c0.02,0.03,0.05,0.07,0.07,0.1c0.96-0.63,2.11,0.13,1.87,1.1C21.32,4.99,20.69,5.72,20.55,5.67z"/>
	<path class="st0" d="M29.98,8.72c-0.19,1.15-1.73,1.04-2.04,0.16c-0.42,1.21-1.96,1.34-2.37,0.05c-0.77,1.09-2.11,0.66-2.18-0.3
		c-0.35,0.58-1.17,0.51-1.56,0.1c-0.46-0.52-0.3-1.08-0.3-1.08c-0.95-0.53-0.73-1.94,0.28-2.02c-0.5-0.81,0.28-1.59,0.94-1.12
		C22.56,3.5,24.4,2.9,24.49,4.3c0.03,0.01,0.03,0.01,0.05,0.01c0.39-0.61,1.18-0.72,1.71-0.39c0.15,0.1,0.29,0.23,0.38,0.4
		c0.75-0.35,1.49-0.02,1.68,1c0.99-0.44,1.82,0.51,1.79,1.46C31.77,6.37,31.46,9.15,29.98,8.72z"/>
	<path class="st0" d="M31.23,17.28c-0.05-0.87-0.92-1.67-1.83-1.18c-0.23-0.79-0.8-1.08-1.39-0.9C28,15.19,28,15.19,27.98,15.17
		c0.13-0.19,0.16-0.47,0.01-0.76c0.13,0.02,0.62-0.75-0.2-1.16c0.08-0.95-1.11-1.48-1.92-0.76c-0.72-0.73-1.76-0.24-1.56,0.57
		c-0.84-0.46-1.45,0.1-1.55,0.85c-0.37,0.19-0.63,0.56-0.51,0.96c-0.74-0.38-1.5,0.45-0.89,1.17c-0.61,0.11-0.9,0.61-0.84,1.09
		c0,0,0.08,0.43,0.41,0.7c0.14,0.11,0.32,0.2,0.54,0.25c-0.58,1.2,1.61,1.68,1.91,0.46c0.29,0.5,0.64,0.52,0.92,0.41
		c0.17,0.19,0.41,0.31,0.7,0.29c-0.18,1.15,1.38,1.64,2.11,0.43c0.5,1.15,1.96,0.9,2.26-0.26c0.37,0.79,1.84,0.74,1.93-0.33
		C32.74,19.34,32.79,16.76,31.23,17.28z"/>
	<path class="st0" d="M11.37,14.84L11.37,14.84c0,0-0.42,0.26-0.4,0.7c0.01,0.32-0.14,0.64-0.43,0.78c-0.48,0.24-1.17,0.16-1.38-0.5
		C9,16.23,8.7,16.37,8.46,16.38c-0.3,0.62-1.27,0.79-1.87-0.04c-0.02,0.05-0.03,0.1-0.05,0.15l0.01,0.02
		c-0.01,0.01-0.02,0.01-0.03,0.02c-0.44,0.96-1.68,0.81-2.05-0.21c-0.27,0.79-1.64,0.9-1.82-0.12c-1.32,0.39-1.62-2.09-0.11-1.75
		c-0.04-0.84,0.7-1.7,1.58-1.32c0.18-1.03,0.97-1.45,1.73-0.95C5.98,11,7.56,10.81,8.11,11.8c0-1.51,1.93-0.92,1.74,0.11
		c0.66-0.47,1.45,0.3,0.95,1.11C11.71,13.09,11.99,14.22,11.37,14.84z"/>
</g>
</svg>
