<?xml version="1.0" encoding="utf-8"?>
<!-- Generator: Adobe Illustrator 24.2.1, SVG Export Plug-In . SVG Version: 6.00 Build 0)  -->
<svg version="1.1" id="Layer_1" xmlns="http://www.w3.org/2000/svg" xmlns:xlink="http://www.w3.org/1999/xlink" x="0px" y="0px"
	 viewBox="0 0 35 35" style="enable-background:new 0 0 35 35;" xml:space="preserve">
<style type="text/css">
	.st0{fill:#FF0000;}
</style>
<path class="st0" d="M27.65,3.5c-1.09-1.76-4.66-2.44-6.03-0.55c-0.2,0-0.48,0.06-0.48,0.06s0-0.17-0.21-0.2
	c-0.21-0.02-0.11,0.23-0.19,0.27c-0.13-0.02-0.26,0.11-0.35,0.18c-0.1,0.08-0.39,0.05-0.55,0.15c-0.16,0.1-0.5,0.22-0.72,0.49
	s-0.39,0.44-0.67,0.6c-0.28,0.15-0.69,0.32-0.91,0.49c-0.22,0.18-0.83,0.46-1.26,0.58c-0.44,0.12-1.22,0.35-1.4,0.46
	c0.01-0.11,0.04-0.18,0.04-0.18s0.28-0.09,0.39-0.63c0.1-0.54,0.28-0.82,0.41-1.17s-0.07-1.11-0.17-1.27
	c-0.1-0.16-0.01-0.29-0.01-0.42s0.29,0.06,0.25,0.36C15.76,3.03,15.98,4,15.98,4s-0.18-1.05-0.11-1.32
	c0.07-0.27-0.13-0.47-0.28-0.72s-0.17-0.56-0.36-0.79s-0.54-0.3-0.54-0.3s-0.27-0.48-0.7-0.45c-0.44,0.03-0.88,0.4-1.14,0.56
	c-0.27,0.16-0.73,0.57-0.7,1.21c0.04,0.64,0.1,1.06,0.1,1.06s-0.26,0.02,0,0.51c0,0.03-0.01,0.06-0.01,0.09
	c-0.09,0.14-0.2,0.35-0.24,0.5c-0.06,0.26-0.59,0.69-0.83,1.39s-0.63,1.22-0.63,1.22s0.54-0.71,0.68-1.2
	c0.14-0.5,0.65-1.08,0.75-1.19c0.07-0.08,0.14-0.27,0.25-0.44c0,0.08-0.01,0.15-0.01,0.23c-0.13,0.17-0.34,0.46-0.41,0.63
	c-0.12,0.25-0.47,0.84-0.52,1.18c0.17-0.44,0.44-0.97,0.56-1.16c0.1-0.15,0.21-0.36,0.35-0.47c-0.02,0.15-0.05,0.26-0.12,0.32
	c-0.18,0.15-0.18,0.43-0.32,0.77C11.6,5.95,11.29,6.54,11,6.76C10.72,6.98,10.57,7.49,10.65,8c0.01-0.29,0.03-0.67,0.18-0.85
	c-0.11,0.75,0.01,1.17-0.14,1.19c-0.15,0.02-0.32-0.05-0.38-0.18c0,0,0,0.22,0.4,0.29c-0.01,0.14-0.07,0.29-0.03,0.48
	c-0.08,0.22-0.18,0.36-0.15,0.54c0.03,0.18,0.04,0.39-0.01,0.48c-0.05,0.09-0.06,0.23-0.06,0.83c0.01,0.6-0.06,0.87-0.07,0.89
	c-0.01,0.02-0.11,0-0.11,0.3c-0.11,0.06-0.19,0.19-0.16,0.31c-0.13,0.05-0.08,0.34-0.08,0.34s-0.33,0.31-0.43,0.63
	s-0.18,0.29-0.37,0.53c-0.19,0.25-0.28,0.26-0.17,0.41c-0.15,0.09-0.27,0.25-0.19,0.36c-0.15,0.25-0.32,0.72-0.23,1.42
	c0.09,0.69,0.43,1.58,0.83,2.08c0.01,0.46,0.02,0.68,0.02,0.74s0.21,0.04,0.33,0.08c-0.01,0.49,0.02,1.38,0.04,1.57
	c0.01,0.2-0.17,0.62-0.18,0.94c-0.1,0.29-0.48,1.08-0.48,1.73s0.22,1.58,0.19,2.43c-0.03,0.85-0.18,1.49-0.29,1.73
	C9,27.53,8.85,28.06,9.52,28.05s1.17,0.13,1.48,0.31c0.31,0.18,0.85,0.19,1.22-0.03c0.18,0.04,0.28,0.05,0.28,0.05
	s0.06,0.2,0.14,0.95s0.27,1.61,0.06,2.17c-0.21,0.55-0.1,1.09,0.61,0.95s1.36,0.69,1.64,0.91c0,0,0.11,0.45,0.66,0.43
	c0.55-0.03,0.45-0.29,0.45-0.29s0.18-0.05,0.07-0.28C16.21,33.11,16.1,33,16.1,33s0.09-0.14,0-0.3c0,0,0.06-0.22-0.2-0.35
	c-0.26-0.13-0.82-0.25-1.01-0.51c-0.19-0.26-0.59-0.77-0.77-1.14c-0.17-0.36-0.21-1.38-0.13-1.78c0.08-0.39,0.27-1.46,0.41-2.46
	c0.14-1,0.31-1.47,0.45-1.85c0.14-0.38,0.23-0.67,0.41-1.15c0.19-0.48-0.09-0.55-0.15-0.92c-0.06-0.37,0-0.56-0.45-1.42
	s-1.35-2.78-1.38-2.8c0.08-0.06,0.06-0.18-0.05-0.24c-0.11-0.06-0.07-0.32-0.18-0.32c-0.02,0,0.07-0.11,0.08-0.52
	s0.03-1.28,0.03-1.28s0.15-0.25,0.27-0.53c0.11,0.13,0.13,0.14,0.15,0.15c0.02,0.01-0.13,0.13-0.02,0.25
	c-0.13,0.08-0.15,0.2-0.1,0.26c-0.03,0.12,0.2,0.23,0.46,0.03c0.02,0.08,0.04,0.12,0.04,0.12s-0.25,0.08-0.16,0.22
	c0.1,0.14,0.31-0.04,0.31-0.04s-0.04,0.23,0.11,0.23c0.15-0.01,0.34-0.38,0.44-0.53c0.1-0.15,0-0.29,0.01-0.53
	c0.01-0.23,0.02-0.39-0.18-0.47c-0.2-0.09-0.48-0.39-0.66-0.8c0.03-0.32,0.03-0.34,0.07-0.37c0.04-0.04,0.04-0.15-0.04-0.27
	c-0.07-0.12-0.12-0.33-0.09-0.43s0.08-0.19-0.01-0.28c0.02-0.33,0.06-0.55,0.12-0.62c0.06-0.07,0.22-0.3,0.22-0.43
	s0.13-0.24,0.14-0.4s0.08-0.23,0.09-0.39c0.01-0.16,0.01-0.32,0.26-0.53c0.24-0.21,0.8-0.44,0.62-1.36
	c-0.18-0.93-0.06-1.05-0.06-1.05s0.85-0.26,1.4-0.73c0.55-0.47,0.9-0.77,1.43-1s0.83-0.51,1.03-0.5c0.2,0.01,0.48,0.04,0.94-0.15
	c0.46-0.19,0.76-0.32,0.99-0.34s0.33-0.07,0.48-0.16c0.29,0.47,1.24,1.8,3.49,1.8C27.17,7.11,28.73,5.26,27.65,3.5z M12.98,23.76
	c-0.15,0.47-0.57,1.41-0.57,2.38s0.08,1.85,0.08,1.85s-0.28-0.17-0.43-0.21c-0.15-0.04-0.55-0.42-0.77-0.54s-0.62-0.55-0.6-1.55
	c0.02-1,0.34-1.82,0.35-2.45c0.01-0.63,0.2-0.86,0.2-1.14c0.23-0.17,0.47-0.55,0.47-0.55s0.74,0.83,1,1.15
	C12.98,23.02,13.13,23.29,12.98,23.76z"/>
</svg>
