<?xml version="1.0" encoding="utf-8"?>
<!-- Generator: Adobe Illustrator 24.2.1, SVG Export Plug-In . SVG Version: 6.00 Build 0)  -->
<svg version="1.1" id="Layer_1" xmlns="http://www.w3.org/2000/svg" xmlns:xlink="http://www.w3.org/1999/xlink" x="0px" y="0px"
	 viewBox="0 0 35 35" style="enable-background:new 0 0 35 35;" xml:space="preserve">
<style type="text/css">
	.st0{fill-rule:evenodd;clip-rule:evenodd;fill:#FF0000;}
</style>
<g>
	<path class="st0" d="M20.46,32.98c-4.55-5.4,0.8-8.17,1.28-13.04c0.06-0.57,0.32-1.1,0.75-1.48c0.49-0.44,1.01-0.73,1.48-0.92V16.6
		c-0.86,0.22-1.46,0.58-1.87,0.92c-0.31,0.26-0.77,0.18-0.99-0.15c-1.08-1.6-3.31-4.02-1.63-5.55c2.25-2.06,4.16-4.65,5.23-6.25
		l-0.56-0.84c-1.66,2.44-3.1,3.9-4.04,4.92c0.04-2.04-0.55-3.43-1.28-4.36l-1.11,0.12c1.06,1.07,1.37,2.24,1.37,3.24
		c0,1.29-0.66,2.48-1.69,3.24l-0.01,0.01c-0.52,0.39-1.21,0.47-1.8,0.19c-3.87-1.82-5.91-5.32-5.91-5.32l-0.4,0.45
		c2.16,3.19,4.31,4.8,5.83,5.6c0.48,0.26,0.72,0.8,0.61,1.34c-0.05,0.24-0.07,0.5-0.05,0.77v0.01c0,0.11-0.1,0.2-0.21,0.16
		c-1.16-0.4-2.56-0.53-3.72-0.55l-0.58,1.02c2.51,0.29,4.63,1.33,4.63,1.33c3.33,2.12,2.2,4.69,0.56,7.33
		c-1.59,2.56-3.31,5.67-2.81,8.74c-3.1,0.19-5.28,0.64-5.28,1.15h5.58h7.29h4.57C25.72,33.62,23.56,33.17,20.46,32.98z"/>
	<path class="st0" d="M21.24,14.47v4.73l-0.23-1.42l-0.18-1.09l-0.12,1.09l-0.26,2.27l-0.22-2.27l-0.16-1.62l-0.2,1.62l-0.25,2.05
		l-0.22-2.05l-0.28-2.6l-0.27,2.6l-0.29,2.73l-0.2-2.73l-0.11-1.47l-0.29,1.47l-0.34,1.72l-0.07-1.72l-0.06-1.54l-0.29,1.54
		l-0.19,1.01l-0.19-1.01l-0.29-1.57l-0.13,1.57l-0.22,2.73l-0.33-2.73l-0.25-2.1l-0.68,2.1v-3.31c0-0.87,0.35-1.66,0.93-2.23
		c0.57-0.57,1.36-0.93,2.23-0.93C19.83,11.31,21.24,12.72,21.24,14.47z"/>
	<path class="st0" d="M29.53,17.86v5.21l-0.25-1.56l-0.19-1.2l-0.13,1.2l-0.28,2.51l-0.24-2.51l-0.17-1.78l-0.22,1.78l-0.28,2.26
		l-0.25-2.26l-0.31-2.87l-0.3,2.87l-0.31,3.01l-0.22-3.01l-0.12-1.62l-0.32,1.62l-0.38,1.89l-0.07-1.89l-0.07-1.7l-0.32,1.7
		l-0.21,1.11l-0.21-1.11l-0.32-1.73l-0.14,1.73l-0.25,3.01l-0.36-3.01l-0.28-2.31l-0.75,2.31v-3.65c0-0.96,0.39-1.83,1.02-2.46
		c0.63-0.63,1.5-1.02,2.46-1.02C27.97,14.38,29.53,15.94,29.53,17.86z"/>
	<path class="st0" d="M13.62,16.74v5.14l-0.25-1.54l-0.19-1.18l-0.13,1.18l-0.28,2.47l-0.24-2.47l-0.17-1.76l-0.22,1.76l-0.28,2.23
		l-0.24-2.23l-0.31-2.83l-0.29,2.83L10.7,23.3l-0.21-2.97l-0.12-1.59l-0.32,1.59L9.69,22.2l-0.07-1.87l-0.06-1.68l-0.32,1.68
		l-0.21,1.1l-0.2-1.1l-0.32-1.7l-0.14,1.7L8.12,23.3l-0.36-2.97l-0.27-2.28l-0.74,2.28v-3.6c0-0.95,0.38-1.81,1.01-2.43
		c0.62-0.62,1.48-1.01,2.43-1.01C12.08,13.3,13.62,14.84,13.62,16.74z"/>
	<path class="st0" d="M19.33,4.16v4.73L19.1,7.47l-0.18-1.09L18.8,7.47l-0.26,2.27l-0.22-2.27l-0.16-1.62l-0.2,1.62l-0.25,2.05
		l-0.22-2.05l-0.28-2.6l-0.27,2.6l-0.29,2.73l-0.2-2.73L16.34,6l-0.29,1.47l-0.34,1.72l-0.07-1.72l-0.06-1.54L15.3,7.47l-0.19,1.01
		l-0.19-1.01L14.63,5.9L14.5,7.47l-0.22,2.73l-0.33-2.73l-0.25-2.1l-0.68,2.1V4.16c0-0.87,0.35-1.66,0.93-2.23
		C14.51,1.35,15.3,1,16.17,1C17.91,1,19.33,2.41,19.33,4.16z"/>
	<path class="st0" d="M28.64,6.45v5.3l-0.26-1.59l-0.2-1.22l-0.14,1.22l-0.29,2.55l-0.25-2.55l-0.18-1.82l-0.23,1.82l-0.28,2.3
		l-0.25-2.3l-0.32-2.92l-0.3,2.92l-0.32,3.06l-0.22-3.06l-0.1-1.64l-0.33,1.65l-0.38,1.93l-0.07-1.93l-0.07-1.73l-0.33,1.73
		l-0.21,1.13l-0.21-1.13l-0.33-1.76l-0.15,1.76l-0.25,3.06l-0.37-3.06l-0.28-2.35l-0.77,2.35V6.45c0-0.98,0.4-1.87,1.04-2.51
		S24.12,2.9,25.1,2.9C27.05,2.9,28.64,4.49,28.64,6.45z"/>
	<path class="st0" d="M6.75,7.99v4.02l0.19-1.2l0.15-0.92l0.1,0.92l0.22,1.94l0.19-1.94l0.13-1.38l0.17,1.38l0.22,1.74l0.19-1.74
		L8.55,8.6l0.23,2.22l0.24,2.32l0.17-2.32l0.09-1.25l0.25,1.25l0.29,1.46l0.06-1.46L9.93,9.5l0.25,1.31l0.16,0.86l0.16-0.86
		l0.25-1.33l0.11,1.33l0.19,2.32l0.5-3.19l0.57,1.57V7.99c0-0.74-0.3-1.41-0.79-1.9S10.17,5.3,9.43,5.3
		C7.95,5.31,6.75,6.51,6.75,7.99z"/>
</g>
</svg>
