<?xml version="1.0" encoding="utf-8"?>
<!-- Generator: Adobe Illustrator 24.2.1, SVG Export Plug-In . SVG Version: 6.00 Build 0)  -->
<svg version="1.1" id="Layer_1" xmlns="http://www.w3.org/2000/svg" xmlns:xlink="http://www.w3.org/1999/xlink" x="0px" y="0px"
	 viewBox="0 0 35 35" style="enable-background:new 0 0 35 35;" xml:space="preserve">
<style type="text/css">
	.st0{fill:#FF0000;}
</style>
<path id="Traffic_Light" class="st0" d="M19.98,7.11c0.18-0.16,0.08-0.54-0.08-0.54h-0.59V4.45c0.34-0.06,0.61-0.11,0.67-0.17
	c0.18-0.16,0.08-0.54-0.08-0.54h-0.65C19.09,3.31,18.68,3,18.19,3h-1.75c-0.62,0-1.13,0.5-1.13,1.12v8.19c0,0.62,0.5,1.13,1.13,1.13
	h0.24v34.35h1.59V13.43c0.58-0.04,1.04-0.52,1.04-1.12V10.3c0.34-0.06,0.61-0.11,0.67-0.17c0.18-0.16,0.08-0.54-0.08-0.54h-0.59
	V7.28C19.66,7.21,19.92,7.17,19.98,7.11z M17.93,12.48c-0.41,0-0.74-0.56-0.77-1.26c0.08-0.08,0.17-0.17,0.27-0.26
	c0.25-0.24,0.7-0.39,1.16-0.5c0.07,0.2,0.11,0.44,0.11,0.69C18.7,11.88,18.35,12.48,17.93,12.48z M17.93,9.51
	c-0.42,0-0.77-0.6-0.77-1.33c0.08-0.08,0.17-0.17,0.27-0.26c0.25-0.23,0.69-0.39,1.13-0.49c0.08,0.21,0.13,0.47,0.13,0.75
	C18.7,8.92,18.35,9.51,17.93,9.51z M17.93,6.55c-0.4,0-0.72-0.52-0.76-1.19c0.08-0.08,0.17-0.16,0.26-0.26
	c0.26-0.24,0.72-0.4,1.18-0.5C18.67,4.78,18.7,5,18.7,5.22C18.7,5.96,18.35,6.55,17.93,6.55z"/>
</svg>
