<?xml version="1.0" encoding="utf-8"?>
<!-- Generator: Adobe Illustrator 24.2.1, SVG Export Plug-In . SVG Version: 6.00 Build 0)  -->
<svg version="1.1" id="Layer_1" xmlns="http://www.w3.org/2000/svg" xmlns:xlink="http://www.w3.org/1999/xlink" x="0px" y="0px"
	 viewBox="0 0 35 35" style="enable-background:new 0 0 35 35;" xml:space="preserve">
<style type="text/css">
	.st0{fill:#FF0000;}
</style>
<path id="Shape24" class="st0" d="M17.68,30.03c3.1,0,5.11-0.62,5.11-1.05l-0.24-2.42l0.01-0.01l-0.98-6.44
	c-0.44,0.6-2.23,0.93-3.92,0.93c-1.68,0-3.46-0.32-3.91-0.91l-1,6.74l-0.01,0.05c0,0-0.18,2.1-0.18,2.09
	C12.54,29.44,14.58,30.03,17.68,30.03z M17.65,20.75c2.32,0,3.75-0.55,3.75-0.94h0.13L19.8,8.49c-0.26,0.41-1.23,0.62-2.18,0.62
	c-0.93,0-1.87-0.2-2.16-0.59l-1.68,11.29h0.12C13.9,20.2,15.33,20.75,17.65,20.75z M17.62,8.84c1.21,0,1.98-0.34,1.98-0.57h0.17
	l-0.89-5.85c0-0.23-0.56-0.42-1.25-0.42s-1.25,0.19-1.25,0.42L15.5,8.27h0.15C15.64,8.5,16.41,8.84,17.62,8.84z M27.78,30.57
	c-0.04-0.11-0.43-0.2-0.43-0.2s-0.58-0.99-0.84-1.19c-0.22-0.16-2.82-1.91-3.67-2.45c0.06,0.58,0.22,2.22,0.22,2.23
	c0,0.87-2.83,1.34-5.38,1.34c-2.56,0-5.42-0.43-5.42-1.32l0.17-1.97l-3.02,0.43l-0.67,0.63l-0.56,1.02c0,0-0.28,0.04-0.37,0.19
	c-0.09,0.15-0.09,0.74-0.07,0.82c0.02,0.09,2.88,2.75,3.35,2.96c0.48,0.22,3.42,0.71,4.28,0.65c0.87-0.06,10.47-0.84,10.71-0.97
	c0.24-0.13,1.62-0.93,1.73-1.1C27.93,31.47,27.83,30.67,27.78,30.57z"/>
</svg>
