<?xml version="1.0" encoding="utf-8"?>
<!-- Generator: Adobe Illustrator 24.2.1, SVG Export Plug-In . SVG Version: 6.00 Build 0)  -->
<svg version="1.1" id="Layer_1" xmlns="http://www.w3.org/2000/svg" xmlns:xlink="http://www.w3.org/1999/xlink" x="0px" y="0px"
	 viewBox="0 0 35 35" style="enable-background:new 0 0 35 35;" xml:space="preserve">
<style type="text/css">
	.st0{fill:#333333;}
	.st1{opacity:0.49;fill:#FF0000;enable-background:new    ;}
</style>
<path class="st0" d="M30.46,10.34H17.91c-0.45,0-0.81-0.36-0.81-0.81V5.94c0-0.45,0.36-0.81,0.81-0.81h12.54
	c0.22,0,0.44,0.09,0.59,0.25l1.71,1.79c0.3,0.31,0.3,0.81,0,1.12l-1.71,1.79C30.89,10.25,30.68,10.34,30.46,10.34z"/>
<path class="st0" d="M3.75,15.55h12.54c0.45,0,0.81-0.36,0.81-0.81v-3.59c0-0.45-0.36-0.81-0.81-0.81H3.75
	c-0.22,0-0.44,0.09-0.59,0.25l-1.71,1.79c-0.3,0.31-0.3,0.81,0,1.12l1.71,1.79C3.31,15.46,3.53,15.55,3.75,15.55z"/>
<path class="st0" d="M30.46,20.77H17.91c-0.45,0-0.81-0.36-0.81-0.81v-3.59c0-0.45,0.36-0.81,0.81-0.81h12.54
	c0.22,0,0.44,0.09,0.59,0.25l1.71,1.79c0.3,0.31,0.3,0.81,0,1.12l-1.71,1.79C30.89,20.67,30.68,20.77,30.46,20.77z"/>
<path class="st0" d="M17.1,3c-0.39,0-0.71,0.32-0.71,0.71v1.42v0.71v28.9h1.42V5.84V5.13V3.71C17.81,3.32,17.49,3,17.1,3z"/>
<path class="st1" d="M17.81,20.76c0.03,0,0.07,0.01,0.1,0.01h12.54c0.22,0,0.44-0.09,0.59-0.25l1.71-1.79c0.3-0.31,0.3-0.81,0-1.12
	l-1.71-1.79c-0.15-0.16-0.37-0.25-0.59-0.25H17.91c-0.04,0-0.07,0-0.1,0.01v-5.23c0.03,0,0.07,0.01,0.1,0.01h12.54
	c0.22,0,0.44-0.09,0.59-0.25l1.71-1.79c0.3-0.31,0.3-0.81,0-1.12l-1.71-1.79c-0.15-0.16-0.37-0.25-0.59-0.25H17.91
	c-0.04,0-0.07,0-0.1,0.01V5.13V3.71C17.81,3.32,17.49,3,17.1,3v31.73h0.71V20.76z"/>
</svg>
