<?xml version="1.0" encoding="utf-8"?>
<!-- Generator: Adobe Illustrator 24.2.1, SVG Export Plug-In . SVG Version: 6.00 Build 0)  -->
<svg version="1.1" id="Layer_1" xmlns="http://www.w3.org/2000/svg" xmlns:xlink="http://www.w3.org/1999/xlink" x="0px" y="0px"
	 viewBox="0 0 35 35" style="enable-background:new 0 0 35 35;" xml:space="preserve">
<style type="text/css">
	.st0{fill:#333333;}
</style>
<path class="st0" d="M22.02,10.74c0,0-0.09,0.13-0.22,0.13c-0.04,0.28-0.15,0.29-0.23,0.37c-0.09,0.07-0.28,0.46-0.35,0.49
	s-0.12,0.32-0.31,0.43c-0.19,0.1-0.35,0.24-0.35,0.24s-0.06,0.47-0.25,0.69c-0.19,0.22-0.84,1.09-1.01,1.35
	c-0.18,0.26-0.43,1.1-0.91,1.52c-0.49,0.41-0.91,0.69-0.97,0.94s-0.05,0.28-0.25,0.28c-0.21,0-0.72-0.25-1-0.15
	c-0.28,0.1-0.54-0.04-0.84,0.78c0.13,0.16,0.21,0.53,0.04,0.72c-0.03,0.35-0.1,0.97-0.26,1.16s-0.25,0.44-0.38,0.53
	s-0.21,0.16-0.26,0.35c-0.06,0.19-0.2,0.32-0.32,0.41s-0.15,0.31-0.31,0.4c-0.16,0.09-0.35,0.18-0.35,0.18s-0.05,0.22,0.19,0.45
	c0.25,0.23,0.61,0.82,0.42,1.28c-0.05-0.41-0.18-0.76-0.32-0.89c0.13,0.33,0.27,0.86,0.23,1.02c-0.04,0.16,0.26,0.23,0.26,0.23
	s-0.35,0.13-0.35-0.29s-0.13-0.55-0.13-0.55s-0.09,0.45,0.04,0.73c0.13,0.27,0.65,0.36,0.94,0.27c-0.25,0.21-0.56,0.24-0.56,0.24
	s0.25,0.06,0.48,0.18s0.39,0.19,0.63,0.2c-0.51,0.12-0.61-0.04-0.77-0.13c-0.17-0.09-0.47,0.03-0.69,0
	c-0.22-0.03-1.03-0.4-1.32-1.09c0.11,0.39,0.32,0.74,0.39,0.95c0.07,0.21,0.33,0.43,0.33,0.43s-0.24,0.01-0.45-0.18
	s-0.98-1.31-1.04-2.08c-0.03,0.54,0.15,1.58,0.41,1.91s0.41,0.32,0.41,0.32s-0.22,0.06-0.26,0.02c0.26,0.07,0.55,0.04,0.55,0.04
	s-0.35,0.19-0.73,0.03c-0.37-0.16-0.64-0.66-0.74-1.44c-0.11-0.78-0.11-1.32-0.19-1.47s-0.07-0.29,0.03-0.37
	c0.1-0.08,0.19-0.13,0.14-0.21c-0.05-0.08-0.23-0.1-0.23-0.1s-0.45,0.36-0.63,0.69c-0.18,0.32-0.4,0.54-1.3,0.95
	c-0.89,0.41-2.96,1.37-3.44,1.6s-0.8,0.4-0.84,0.54C4.91,24.98,4.61,25,4.3,25.02c-0.3,0.02-1.12,0-1.27,0.04
	c-0.16,0.04-0.41,0.1-0.67,0.11c-0.25,0.01-0.51,0.02-0.47-0.2c-0.34,0.03-0.81,0.04-0.87-0.2c-0.37-0.08-0.3-0.31-0.21-0.32
	c0.1-0.01,0.21,0,0.21,0s-0.05-0.17,0.16-0.16c0.22,0.01,0.87,0.07,1.2,0.03c0.32-0.04,0.66-0.14,0.66-0.14S2.81,23.93,3,23.93
	s0.54-0.02,0.72-0.04s0.67,0,0.67,0l0.9-0.52c0,0-0.52,0.01-0.77,0c-0.38-0.01-0.44,0.01-0.58,0.09C3.8,23.53,3.31,23.6,3.3,23.27
	c-0.36,0.04-0.9,0.04-1.09,0.01s-0.28-0.15-0.23-0.26c0.06-0.11,0.19-0.05,0.19-0.05s-0.03-0.19,0.18-0.19s0.3,0,0.3,0
	s-0.05-0.11,0.27-0.1c0.31,0.01,0.47-0.01,0.55-0.04s0.28-0.04,0.45-0.04s0.38-0.02,0.64-0.07c0.25-0.05,0.39-0.01,0.81-0.21
	c0.42-0.2,1.61-0.84,2.26-1.38c0.65-0.54,1.06-0.98,1.6-1.28c0.54-0.3,0.89-0.33,1.09-0.56s0.8-0.93,0.8-0.93s-0.55-0.94,0.61-1.25
	c-0.26-0.09-0.7-0.14-0.91,0.4c-0.08-0.27,0.51-0.61,0.51-0.61s-0.75,0.14-1,0.34c0.27-0.32,1.32-0.72,1.66-0.14
	c-0.16-0.43-0.73-0.45-1.11-0.33c0.45-0.23,0.92-0.15,1.28,0.29c0.33-0.59,0.6-0.96,0.74-1.24c0.14-0.27,0.51-0.67,0.61-1.02
	c0.1-0.35,0.25-0.84,0.72-1.24c0.37-0.42,0.42-0.42,0.39-0.58s0.13-0.07,0.19-0.18c0.06-0.11,0.06-0.32,0.12-0.44
	c0.06-0.12,0.11,0.01,0.15-0.08s0.48-0.79,0.6-0.96c0.12-0.17,0.15-0.11,0.2-0.23s0.02-0.24,0.11-0.29
	c0.09-0.06,0.21-0.13,0.25-0.22s0.17-0.1,0.18-0.27s0.05-0.14,0.12-0.19c0.07-0.05,0.18-0.28,0.24-0.42s0.11-0.13,0.16-0.26
	c0.05-0.14,0.33-0.41,0.39-0.58c0.07-0.17,0.35-0.61,0.48-0.82c0.13-0.22,0.17-0.14,0.24-0.21c0.08-0.07,0.69-0.7,0.91-0.89
	c0.12-0.25,0.19-0.26,0.24-0.35c0.05-0.1,0.08-0.23,0.25-0.26c0.17-0.04,0.48-0.2,0.67-0.34c0.19-0.15,0.86-0.81,2.27-0.67
	c1.4,0.15,2.62,0.63,2.99,2.18s0.61,1.6,1.1,2.34c0.49,0.75,1.06,2.23,1.3,3.12c0.25,0.89,0.9,1.78,1.35,2.27
	c0.44,0.49,1.46,1.62,2.04,2.45c0.58,0.83,0.66,1.8,1.01,2.54c0.35,0.73,0.89,1.17,0.67,1.45c0.29,0.62,0.32,0.98,0.7,1.56
	c0.37,0.58,0.83,1.49,0.21,1.67c-0.62,0.18-1.61-0.07-2.26,0.01c-0.66,0.08-1.62,0.01-1.67-0.09c-0.29,0.06-0.49-0.16-0.46-0.19
	c-0.29,0.18-0.45-0.05-0.47-0.09c-0.34,0.15-0.48-0.1-0.45-0.25c-0.38-0.05-0.32-0.37-0.2-0.43c-0.44-0.01-0.7-0.34-0.65-0.49
	c0.05-0.15,0.21-0.07,0.39-0.08c0.19-0.01,0.24-0.18,0.46-0.16c0.13-0.14,0.46-0.01,0.51-0.01c0.42-0.2,0.91-0.52,1.21-0.64
	s0.34-0.26,0.37-0.36s0.1-0.39-0.02-0.56C30.34,21.25,30.24,21,30.24,21s-0.09,0.01-0.13-0.13c-0.04-0.14-0.72-1.18-1.28-1.75
	c-0.56-0.57-1.59-2.07-1.79-2.39c-0.2-0.32-0.21-0.26-0.34-0.39c-0.14-0.13,0.1-0.19-0.08-0.24s-0.42-0.24-0.53-0.43
	c-0.11-0.2-0.15,0.03-0.32-0.24c-0.18-0.27-0.52-1.09-1.2-1.66C23.9,13.21,22.56,11.73,22.02,10.74z"/>
</svg>
