<?xml version="1.0" encoding="utf-8"?>
<!-- Generator: Adobe Illustrator 24.2.1, SVG Export Plug-In . SVG Version: 6.00 Build 0)  -->
<svg version="1.1" id="Layer_1" xmlns="http://www.w3.org/2000/svg" xmlns:xlink="http://www.w3.org/1999/xlink" x="0px" y="0px"
	 viewBox="0 0 35 35" style="enable-background:new 0 0 35 35;" xml:space="preserve">
<style type="text/css">
	.st0{fill:#FF0000;}
</style>
<g>
	<path class="st0" d="M14.94,29.03l-9.06-0.76l1.81-3.25L14.94,29.03L14.94,29.03z M4.91,22.26l2.44,0.13
		c-0.11,0.19-0.22,0.39-0.33,0.58C6.94,22.98,6.85,23,6.76,23.01c0,0,0.05,0.06,0.15,0.17c-0.03,0.05-0.05,0.1-0.08,0.15L4.91,22.26
		L4.91,22.26z M11.83,17.62l0.75,2.13c-0.68,0.76-1.43,1.42-2.25,1.95l-0.75-0.04L11.83,17.62L11.83,17.62z M18.7,5.32
		c-0.27,1.39-0.77,3.66-1.62,6.13c-0.8,0-1.44,0.01-1.81,0.02L18.7,5.32L18.7,5.32z M28.84,6.38c-0.18-0.86-0.42-1.48-0.57-1.83
		l1.58,0.03C29.55,5.1,29.21,5.71,28.84,6.38L28.84,6.38z M24.93,22.45c-0.83,0.38-2.89,1.3-4.36,1.95l0.29-0.52
		c1.05-0.74,2.25-1.77,3.45-3.2L24.93,22.45L24.93,22.45z M20.59,25.38l4.68-1.97l1.98,5.62L20.59,25.38L20.59,25.38z M18.17,28.7
		l0.2-0.35l6.84,0.75l0.57,0.31L18.17,28.7L18.17,28.7z M14.74,25.9l0.8,2.28l-5.15-2.87C11.53,25.69,12.97,25.94,14.74,25.9
		L14.74,25.9z M13.34,18.83l-0.83-2.43l2.42-4.34l1.9,0.09C15.98,14.45,14.85,16.86,13.34,18.83L13.34,18.83z M19.64,26.06
		l4.33,2.36l-5.36-0.5L19.64,26.06L19.64,26.06z M16.36,27.71l-0.64-1.87c0.56-0.05,1.15-0.13,1.77-0.24c0,0,0.26-0.07,0.72-0.25
		c-0.48,0.85-0.93,1.66-1.35,2.41L16.36,27.71L16.36,27.71z M16.51,28.15l0.13,0.01c-0.03,0.04-0.05,0.09-0.08,0.13L16.51,28.15
		L16.51,28.15z M5.34,29.25l0.24-0.43l10.01,1.2c-0.02,0.03-0.03,0.05-0.05,0.08L5.34,29.25L5.34,29.25z M15.04,30.99
		c-0.33,0.58-0.6,1.06-0.8,1.43l1.72,0.23l1.3-2.34l1.72,0.95h1.07v-0.58l-2.28-1.27l0.18-0.32l9.07,0.99l2.17,1.18h1.07v-0.58
		l-1.81-0.99l-3.39-9.95c0.97-1.31,1.93-2.9,2.77-4.82c0.96-2.19,1.28-4.17,1.29-5.81l3.45-6.18L31.74,2.1l-0.69,0.31
		c0.01-0.01-0.17,0.31-0.49,0.89V3.25h-10.7l0.19-0.33L19.21,2.1l-0.69,0.31c0.04-0.04-5.84,10.49-10.7,19.16l-4.56-0.23L3.2,21.31
		H2.66l-0.19,0.83l3.84,2.12c-1.52,2.71-2.85,5.07-3.72,6.62L4.3,31.1l0.73-1.31L15.04,30.99L15.04,30.99z"/>
	<path class="st0" d="M49.96,17.06l6.91-1.93l-1.74,7.26c-1.28-0.2-3.46-0.53-5.31-0.76L49.96,17.06L49.96,17.06z M61.04,6.98
		l-0.43,1.58l-0.57-0.12l0.41-1.58L61.04,6.98L61.04,6.98z M62.95,7.36l-0.47,1.6l-0.57-0.12l0.45-1.6L62.95,7.36L62.95,7.36z
		 M64.93,7.75L64.4,9.37l-0.57-0.12l0.5-1.61L64.93,7.75L64.93,7.75z M66.77,8.12l-0.53,1.64l-0.57-0.12L66.18,8L66.77,8.12
		L66.77,8.12z M68.46,8.45l-0.59,1.65L67.3,9.98l0.57-1.65L68.46,8.45L68.46,8.45z M70.06,8.77l-0.64,1.66l-0.56-0.12l0.62-1.66
		L70.06,8.77L70.06,8.77z M69.31,16.79l-0.67,0.18l-0.25-0.05c0.35-0.86,0.71-1.73,1.06-2.58L69.31,16.79L69.31,16.79z M68.7,27.9
		l-3.63-2.81l0,0c0.39-1,1.38-3.44,2.52-6.23l1.64-0.65L68.7,27.9L68.7,27.9z M57.32,19.05l0.43,0.09l-0.38,1.39l-0.42-0.09
		L57.32,19.05L57.32,19.05z M59.45,12.85L58.9,14.9l-0.49-0.1l0.53-2.05L59.45,12.85L59.45,12.85z M59.77,11.69l-0.53-0.11
		l0.51-1.97l0.55,0.11L59.77,11.69L59.77,11.69z M61.58,12.07l-0.53-0.11l0.55-1.98l0.56,0.11L61.58,12.07L61.58,12.07z
		 M63.39,12.46l-0.53-0.11l0.62-1.99l0.55,0.11L63.39,12.46L63.39,12.46z M65.23,12.85l-0.53-0.11l0.63-2.02l0.55,0.11L65.23,12.85
		L65.23,12.85z M66.76,13.17l-0.53-0.11l0.7-2.02l0.56,0.11L66.76,13.17L66.76,13.17z M68.25,13.49l-0.53-0.11l0.76-2.03l0.55,0.11
		L68.25,13.49L68.25,13.49z M66.55,16.52l0.78-2.11l0.52,0.1l-0.81,2.11L66.55,16.52L66.55,16.52z M65.89,19.63l-0.16-0.03
		l0.21-0.08L65.89,19.63L65.89,19.63z M64.93,22.13l-0.42-0.09l0.54-1.46l0.45,0.09L64.93,22.13L64.93,22.13z M63.76,24.04
		l0.36-0.96l0.42,0.08L64.1,24.3L63.76,24.04L63.76,24.04z M59.43,19.46l-0.41,1.41l-0.42-0.09l0.39-1.41L59.43,19.46L59.43,19.46z
		 M60.65,15.27l-0.49-0.1l0.58-2.07l0.52,0.1L60.65,15.27L60.65,15.27z M62.36,15.63l-0.49-0.1l0.65-2.08l0.52,0.1L62.36,15.63
		L62.36,15.63z M64.2,16.02l-0.49-0.1l0.66-2.1l0.52,0.1L64.2,16.02L64.2,16.02z M65.14,16.22l0.73-2.11l0.52,0.1l-0.76,2.11
		L65.14,16.22L65.14,16.22z M66.16,17.56l0.1,0.02l-0.12,0.03L66.16,17.56L66.16,17.56z M65.07,17.89l-0.56,0.15l0.26-0.75l0.48,0.1
		L65.07,17.89L65.07,17.89z M63.71,20.39l0.13-0.05l0.33,0.07l-0.5,1.41L63.71,20.39L63.71,20.39z M60.35,20.41l0.43,0.1l-0.22,0.69
		l-0.42-0.09L60.35,20.41L60.35,20.41z M61.37,18.67l-0.45-0.1l0.6-1.93l0.48,0.1L61.37,18.67L61.37,18.67z M62.92,18.46l0.45-1.45
		l0.48,0.09l-0.39,1.21L62.92,18.46L62.92,18.46z M59.78,22.22l0.41,0.08l-0.27,0.81c-0.14,0-0.28-0.01-0.42-0.01L59.78,22.22
		L59.78,22.22z M59.84,16.31l0.48,0.1l-0.56,1.93l-0.45-0.1L59.84,16.31L59.84,16.31z M58.11,15.97l0.47,0.09l-0.52,1.91l-0.45-0.09
		L58.11,15.97L58.11,15.97z M56.79,22.71l-0.38-0.1l0.26-1.01l0.4,0.08L56.79,22.71L56.79,22.71z M58.28,21.92L58.69,22l-0.33,1.12
		l-0.39-0.1L58.28,21.92L58.28,21.92z M59.26,27.3l1.56,0.54l-0.08,6.57l0.63,0.26l1.93-0.74l0.16-5.17l5.49,1.91l2.16,0.05
		l0.04-1.57l-1.06-0.45l0.58-11.07l0.69-0.27l0.07-0.74l-0.7-0.08l0.32-6.14c0.93-2.27,1.59-3.87,1.59-3.87s-0.36-0.58-1.25-1.25
		l-0.95,2.47l-0.59-0.13l1.01-2.71c-0.28-0.18-0.6-0.35-0.95-0.52L68.83,7.4l-0.6-0.13l1.08-3.14C68.97,4,68.59,3.88,68.18,3.77
		l-1.06,3.27l-0.6-0.13l1.03-3.3c-0.38-0.08-0.79-0.15-1.22-0.2l-1.05,3.23l-0.6-0.13l0.99-3.16c-0.48-0.03-1-0.05-1.54-0.04
		l-0.85,2.9l-0.6-0.13l0.76-2.75c-0.46,0.03-0.95,0.07-1.46,0.14L61.35,5.8l-0.6-0.13l0.54-2.1c-0.56,0.09-1.14,0.2-1.75,0.34
		l-2.39,9.99l-11.64,2.02l-0.02,1.03l1.67,0.38l-0.05,4.03l0,0l-2.16-0.05l-0.03,1.47l2.17,0.68L47,30.61l0.63,0.26l1.93-0.74
		l0.17-5.81L59.26,27.3L59.26,27.3z"/>
	<path class="st0" d="M-32.34,19.02l1.45,0.14l-0.91,4.6l-7.29-0.45l-0.56-3.67L-32.34,19.02L-32.34,19.02z M-25.67,8.66h0.53
		l-2.69,8.71c-0.16,0.01-0.31,0.01-0.47,0.02L-25.67,8.66L-25.67,8.66z M-23.14,8.66h0.53l-2.66,8.62
		c-0.15,0.01-0.31,0.01-0.47,0.02L-23.14,8.66L-23.14,8.66z M-21.04,8.66h0.53l-2.63,8.54c-0.15,0.01-0.31,0.01-0.47,0.02
		L-21.04,8.66L-21.04,8.66z M-25.14,23.71h-0.41l1.18-3.93l0.43,0.04L-25.14,23.71L-25.14,23.71z M-27.66,23.71l1.24-4.13l0.43,0.04
		l-1.26,4.08h-0.41V23.71z M-30.18,23.71l1.31-4.36l0.43,0.04l-1.33,4.32H-30.18L-30.18,23.71z M-41.46,23.92l0.11,9.15h2.6v-6.1
		l4.64,0.23l3.32,2.08v3.79h2.6v-2.16l3.44,2.16h12.02c0,0,0,0-0.01,0h0.01l-9.78-7.42l1.36-5.57l3.39-0.41l-0.11-1.47l0.49-0.15
		v-0.94h-2.98c0,0,2.71-8.51,2.56-9.42c-0.15-0.9-2.49-1.05-2.49-1.05s0.34-1.85-1.24-1.92c-1.58-0.08-2.37,1.69-2.37,1.69
		c-1.47-0.11-2.9,0.98-2.9,0.98l-3.05,9.04l-13.97,1.39v0.94c0,0,0.77,0.08,0.94,0.13C-42.71,18.95-41.46,23.92-41.46,23.92
		L-41.46,23.92z"/>
	<path class="st0" d="M-12.58,66.15l-0.32-5.52c0.22,0.28,0.42,0.57,0.61,0.85l0.61,5.62C-11.98,66.76-12.27,66.44-12.58,66.15
		L-12.58,66.15z M-18.51,63.91l-0.12-2.81l0.98-0.16l0.09-0.21l0.14,3.22C-17.79,63.92-18.15,63.91-18.51,63.91L-18.51,63.91z
		 M-20.75,61.43l1.07-0.17l0.12,2.66c-0.08,0-0.15,0.01-0.23,0.01L-20.75,61.43L-20.75,61.43z M-19.61,69.2
		c-2.41,0.18-9.18,0.71-11.16,0.9l3.95-3.85c0.73-0.23,1.96-0.57,3.48-0.85l1.31,3.21h1.04l0.52-0.42l-1.18-3.05
		c0.12-0.01,0.25-0.03,0.38-0.04L-19.61,69.2L-19.61,69.2z M-35.51,66.66l3.15-3.08c1.55,1.09,2.81,1.98,3.56,2.51l-6.72,6.2
		L-35.51,66.66L-35.51,66.66z M-45.71,46.56c0.24,0.17,0.52,0.37,0.83,0.58l-2.92,3.79l-1.23-0.9L-45.71,46.56L-45.71,46.56z
		 M-34.06,55.22l0.26-0.35c0.11,0.08,0.22,0.16,0.34,0.23L-34.06,55.22L-34.06,55.22z M-25.26,54.96l-2.81,2.59l-2.43-1.75
		L-25.26,54.96L-25.26,54.96z M-21.11,57.56c0.41-0.03,0.84-0.05,1.26-0.06l0.09,1.95l-1.26,0.24L-21.11,57.56L-21.11,57.56z
		 M-24.88,64.63l-0.01-0.27l0.86-0.84l0.04,0.92C-24.3,64.5-24.6,64.57-24.88,64.63L-24.88,64.63z M-28.77,64.78l0.29-2.11
		l0.51-0.08l0.12,2.64l-0.13,0.12L-28.77,64.78L-28.77,64.78z M-29.56,62.84l-0.17,1.24l-1.36-0.99L-29.56,62.84L-29.56,62.84z
		 M-28.09,59.8l0.05,1.21l-0.22,0.04L-28.09,59.8L-28.09,59.8z M-29.25,60.55l-0.09,0.7l-0.77,0.14L-29.25,60.55L-29.25,60.55z
		 M-24.18,60.28l-0.89,0.17l-0.1-2.27c0.28-0.06,0.58-0.12,0.88-0.18L-24.18,60.28L-24.18,60.28z M-23.13,60.08l-0.1-2.28
		c0.35-0.05,0.71-0.1,1.08-0.15l0.1,2.22L-23.13,60.08L-23.13,60.08z M-24.99,62.11l0.62-0.1l-0.6,0.55L-24.99,62.11L-24.99,62.11z
		 M-26.84,64.3l-0.08-1.87l0.9-0.14l0.05,1.22L-26.84,64.3L-26.84,64.3z M-21.87,64.1c-0.37,0.05-0.73,0.1-1.08,0.15l-0.08-1.71
		l0.5-0.49l0.63,1.55L-21.87,64.1L-21.87,64.1z M-26.2,58.42l0.1,2.22l-0.9,0.17l-0.09-2.14C-26.83,58.59-26.53,58.51-26.2,58.42
		L-26.2,58.42z M-30.13,57.44c0.23,0.16,0.45,0.31,0.65,0.45l-1.1,1.98l-2.18,2.02l-0.42-0.3L-30.13,57.44L-30.13,57.44z
		 M-31.89,56.21c0.31,0.22,0.61,0.43,0.9,0.63l-3.03,4.12l-0.97-0.71L-31.89,56.21L-31.89,56.21z M-34.57,55.91v0.05l0.19,0.45
		l1.15-0.18l-2.61,3.4l-0.97-0.71L-34.57,55.91L-34.57,55.91z M-35.46,53.72c0.27,0.19,0.53,0.37,0.8,0.56l-3,4.03l-0.9-0.65
		L-35.46,53.72L-35.46,53.72z M-36.98,52.66c0.22,0.15,0.44,0.31,0.66,0.46l-3.09,3.92l-0.58-0.42L-36.98,52.66L-36.98,52.66z
		 M-39.1,51.18c0.42,0.29,0.84,0.58,1.26,0.88l-3,3.94l-0.75-0.55l2.92-3.96L-39.1,51.18L-39.1,51.18z M-40.04,50.52
		c0.17,0.12,0.34,0.24,0.51,0.36l-2.91,3.95l-0.67-0.49L-40.04,50.52L-40.04,50.52z M-46.05,52.21l-0.9-0.66l2.92-3.79l-0.42-0.32
		c0.44,0.31,0.92,0.65,1.45,1.01L-46.05,52.21L-46.05,52.21z M-42.14,49.05c0.4,0.28,0.81,0.57,1.24,0.87l-3.06,3.8l-1.23-0.9
		L-42.14,49.05L-42.14,49.05z M-17.7,57.57l0.08,1.81c-0.13-0.19-0.28-0.28-0.28-0.28l-0.81,0.15l-0.08-1.75
		c0.23,0.01,0.46,0.02,0.7,0.03C-17.96,57.54-17.83,57.55-17.7,57.57L-17.7,57.57z M-14.59,58.91c0.2,0.15,0.38,0.31,0.56,0.48
		l0.34,5.86c-0.21-0.14-0.42-0.28-0.64-0.4L-14.59,58.91L-14.59,58.91z M-16.64,57.81c0.34,0.11,0.66,0.25,0.97,0.41l0.27,6.15
		c-0.32-0.12-0.64-0.21-0.97-0.28L-16.64,57.81L-16.64,57.81z M-10.96,64.09c0.03,0.09,0.05,0.14,0.05,0.15l0.99-0.33
		c-0.02-0.07-0.6-1.78-1.88-3.55c-1.72-2.39-3.88-3.73-6.24-3.87c-3.02-0.18-5.87,0.29-7.84,0.77l2.69-2.63l2.51-0.4l0.14-0.33
		c0.23-0.79-0.34-1.14-0.34-1.14l-11,2.07L-45.52,45l-0.66-0.57L-46.84,45v0.8c0,0,0.09,0.06,0.24,0.17l-3.31,3.46l-0.07-0.05
		l-0.66-0.56l-0.66,0.56v0.8c0,0,10.06,7.15,16.95,12.03l-0.61,0.12v0.8l0.24,0.57h0.02l-3.46,3.2v0.47l1.5,0.43l0.23-0.23
		l-0.38,5.94l-2.02,1.87v0.52l1.65,0.47l5.33-5.2l12.55-1.12l2.31,5.67h1.04l0.52-0.42l-3.98-10.29c0.64-0.02,1.29-0.01,1.94,0.03
		c4.97,0.3,7.17,6.64,7.19,6.71l0.99-0.33c-0.02-0.06-0.39-1.15-1.18-2.48L-10.96,64.09L-10.96,64.09z"/>
	<path class="st0" d="M8.03,55.99l-1.39,7.99l-7.85-0.59v-7.4H8.03L8.03,55.99z M12.7,60.76c0,0.7,0,1.47,0,2.3
		c-0.11,0.5-0.21,0.96-0.3,1.35l-0.5-0.04L12.7,60.76L12.7,60.76z M14.18,56.44c-0.08,0.35-0.16,0.7-0.23,1.04h-0.52l0.23-1.04
		H14.18L14.18,56.44z M17.5,56.44c-0.79,3.28-1.52,6.32-1.98,8.2l-0.36-0.03v-0.6l1.8-7.58L17.5,56.44L17.5,56.44z M19.82,56.44
		c-0.78,3.22-1.51,6.29-2.02,8.38l-0.5-0.04l1.98-8.34H19.82L19.82,56.44z M24.13,56.44l-2.88,4.71c0.35-1.48,0.74-3.1,1.13-4.71
		H24.13L24.13,56.44z M20.39,64.74l4.78-8.3h0.92v-0.91H22.6c1.19-4.97,2.29-9.61,2.29-9.61s-0.2-1.69-1.79-3.03
		c-0.53,2.17-1.82,7.49-3.06,12.64H19.5l3.09-13.02c-0.43-0.29-0.94-0.55-1.54-0.75c-0.56,2.28-2,8.25-3.33,13.77h-0.53L20.5,41.6
		c-0.75-0.19-1.63-0.31-2.65-0.31c-0.09,0-0.18,0-0.27,0c-0.54,2.41-1.94,8.63-3.2,14.24h-0.53l3.14-14.21
		c-1.13,0.08-2.1,0.31-2.92,0.62c-0.47,2.65-1.54,8.39-2.51,13.59h-0.05v0.25c-0.63,3.41-1.22,6.57-1.55,8.44l-0.49-0.04l3.98-21.98
		c-2.87,1.39-3.68,3.84-3.68,3.84L8.2,55.06H-6.02v0.91h2.35c-0.03,2.85,0.01,18.16,0.01,18.16l1,0.23l1.45-0.23V68.3l9.13,5.56
		l0.86,0.27h2.59v-1.09l-5.35-5.51l6.68,0.43c0.01,4.23,0.02,8.13,0.02,8.13l1,0.23l1.45-0.23V69.1L23,73.88l0.86,0.27h2.59v-1.09
		l-6.47-6.66C20.09,65.97,20.23,65.41,20.39,64.74L20.39,64.74z"/>
	<path class="st0" d="M66.5,66.73l0.84-3.18l4.02,1.16L66.5,66.73L66.5,66.73z M64.09,69.83l-9.82-3.5l0.31-1.17
		c2.65-0.82,5.11-1.37,7.32-1.74l0.26,1.28l0.95,0.22l1.14-0.75l-0.2-1.05c0.47-0.06,0.92-0.1,1.36-0.14l0.52,0.15
		C65.29,65.44,64.62,67.9,64.09,69.83L64.09,69.83z M57.13,55.53c0.8,0.97,1.92,2.36,2.81,3.46c-1.29-0.02-2.54,0.01-3.75,0.07
		L57.13,55.53L57.13,55.53z M63.56,55.45l-1.33,2.8l-2.82-3.42L63.56,55.45L63.56,55.45z M73.23,63.92l-0.29,0.12l-4.26-1.23
		c1.53-0.02,2.8,0.05,3.76,0.14C72.77,63.35,73.04,63.69,73.23,63.92L73.23,63.92z M34.2,72.55l0.24-3.58l4.79,2.91l0.43-0.14
		c-0.11,1.49-0.22,2.94-0.31,4.19L34.2,72.55L34.2,72.55z M79,44.41c0,0-8.52,0-9.26,0s-1.32,0.79-1.32,0.79l-4.34,9.15l-6.17-1.36
		l-0.17-0.21L56.7,52.7v0.01l-3.35-0.74L52.5,52.7v0.86l1.06,0.37l2.58,0.39l0,0c0.02,0.01,0.09,0.09,0.2,0.22
		c-0.15,0-0.3-0.01-0.44-0.01c-0.36,1.33-0.8,2.95-1.25,4.59c-14.6,1.06-22.87,6.92-22.87,6.92v1.28L33,68.06
		c-0.27,3.62-0.5,6.72-0.5,6.72l0.55,0.32l1.02-0.42l0.06-0.92l5.14,3.37c-0.11,1.53-0.19,2.52-0.19,2.52L39.62,80l1.02-0.42
		l0.57-8.52c4.14-2.38,8.04-4.1,11.62-5.33c-0.46,1.68-0.77,2.81-0.77,2.81l0.48,0.42l1.08-0.21l0.37-1.38l9.82,3.48
		c-0.41,1.51-0.69,2.51-0.69,2.51l0.48,0.42l1.08-0.21l1.43-5.38c1.47-0.61,5.02-2.17,6.93-3.01l0.68,0.2l0.57,2.85l0.95,0.22
		l1.14-0.75l-0.87-4.55l-2.16-2.63c0.39-0.85,0.93-2.01,1.52-3.3l1.09,0.14l0.42-0.53l-1.26-0.18c2.06-4.49,4.67-10.25,4.83-10.92
		C80.22,44.62,79,44.41,79,44.41L79,44.41z"/>
</g>
</svg>
