<?xml version="1.0" encoding="utf-8"?>
<!-- Generator: Adobe Illustrator 24.2.1, SVG Export Plug-In . SVG Version: 6.00 Build 0)  -->
<svg version="1.1" id="Layer_1" xmlns="http://www.w3.org/2000/svg" xmlns:xlink="http://www.w3.org/1999/xlink" x="0px" y="0px"
	 viewBox="0 0 35 35" style="enable-background:new 0 0 35 35;" xml:space="preserve">
<style type="text/css">
	.st0{fill:none;stroke:#FF0000;stroke-width:0.25;stroke-miterlimit:10;}
	.st1{fill-rule:evenodd;clip-rule:evenodd;fill:#FFFFFF;stroke:#FF0000;stroke-width:0.25;stroke-miterlimit:10;}
	.st2{fill-rule:evenodd;clip-rule:evenodd;fill:#020100;stroke:#FF0000;stroke-width:0.25;stroke-miterlimit:10;}
	.st3{fill:#FF0000;}
</style>
<g id="bike_stand">
	<path class="st0" d="M5.91,8.47c0,0,0.93-0.52,1.77,0.62c0.74,1,1.78,2.37,1.88,3.22c0,0,0.74-2.92,2.33-2.92c0,0,0.64,0,0.94,0.64
		c0,0,0.84-0.59,1.34-0.05c0,0,1.04,0.84,2.08,3.91c0,0,0.1,0.3,0.1,1.43l0.64,0.15c0,0,1.88-6.09,3.51-4.11c0,0,0.25,0.3,0.4,0.69
		c0,0,0.79-1.53,1.83-0.1c0.86,1.18,1.24,3.12,1.34,4.3l0.1,0.94l2.42,0.59c0,0,1.43-5.15,2.82-4.9c0,0,0.79-0.1,1.04,1.88
		c0,0,1.14-2.62,2.03-0.79c0,0,0.94,3.12,0.59,5.44l0.69,0.15v0.49l-0.25,0.2l-4.06-0.99c0,0-1.09,2.47-1.14,4.55l0.79,0.2v0.57
		L28.75,25L0.5,16.39V15.9l0.45-0.2l0.27,0.07c0,0-0.17-2.28,2.33-6.88c0,0,1.53-2.08,2.72,0.1s2.03,2.47,1.98,4.3l0.96,0.2V12.9
		l-0.15-0.69c0,0-0.08-0.23-0.25-0.5c-0.06-0.1-0.14-0.22-0.21-0.35c-0.58-0.94-1.15-2.08-1.67-2.47c-0.3-0.23-0.74-0.05-0.74-0.05"
		/>
	<path class="st0" d="M27.71,23.69l-1.88-0.54c0,0,0-1.73,0.45-3.07l2.08,0.49C28.36,20.57,27.96,21.71,27.71,23.69z"/>
	<path class="st0" d="M28.46,20.23l-2.08-0.54c0,0,0.1-0.54,0.4-1.04l2.13,0.49C28.9,19.14,28.55,19.78,28.46,20.23z"/>
	<path class="st0" d="M30.24,18.74l-0.49-0.15c0,0,0.3-1.14,0.59-1.93C30.34,16.66,30.38,18.39,30.24,18.74z"/>
	<path class="st0" d="M30.73,18.84l1.78,0.45c0,0,0.25-1.34,0.1-2.13l-1.83-0.35C30.78,16.81,30.88,18.2,30.73,18.84z"/>
	<path class="st0" d="M30.78,16.37l-0.15-0.74c0,0,0.94-2.72,1.39-1.19c0,0,0.4,1.83,0.49,2.28L30.78,16.37z"/>
	<path class="st0" d="M30.04,15.82c0,0-0.64,1.63-0.89,2.62l-2.03-0.49c0,0,2.03-6.28,2.42-4.06L30.04,15.82z"/>
	<path class="st0" d="M18.41,20.92l6.78,2.03c0,0-0.05-1.19,1.09-4.45l-6.73-1.68C19.55,16.81,18.46,18.74,18.41,20.92z"/>
	<path class="st0" d="M17.92,20.77l-1.53-0.45c0,0-0.1-1.68,0.45-2.87l1.68,0.49C18.51,17.95,18.02,18.99,17.92,20.77z"/>
	<path class="st0" d="M18.61,17.6l-1.68-0.49c0,0,0-0.3,0.4-0.89l1.63,0.4C18.96,16.61,18.71,17.26,18.61,17.6z"/>
	<path class="st0" d="M19.75,16.12l1.93,0.49c0,0,0.05-1.34-0.84-3.36C20.84,13.25,20.09,14.88,19.75,16.12z"/>
	<path class="st0" d="M22.12,16.71l1.48,0.35c0,0,0.1-0.45-0.35-2.13c0,0-1.19-0.25-1.39-0.2C21.87,14.73,22.12,14.83,22.12,16.71z"
		/>
	<path class="st0" d="M23.21,14.58c0,0-1.04-0.2-1.34-0.2c0,0-0.3-0.84-0.69-1.78c0,0,0.54-1.39,1.34,0.2
		C22.52,12.8,22.77,13.15,23.21,14.58z"/>
	<path class="st0" d="M15.79,20.23c0,0-0.05-1.78,0.99-4.16l-5.64-1.43c0,0-1.04,2.18-0.94,3.86L15.79,20.23z"/>
	<path class="st0" d="M14.7,14.83l1.19,0.35c0,0,0.1-1.58-0.3-1.93L14.25,13C14.25,13,14.65,13.2,14.7,14.83z"/>
	<path class="st0" d="M14.16,12.61l1.14,0.2c0,0-1.14-3.56-2.23-2.33C13.07,10.48,14.06,12.06,14.16,12.61z"/>
	<path class="st0" d="M11.39,14.04l2.87,0.69c0,0,0.3-1.48-1.48-3.86C12.77,10.87,11.83,12.26,11.39,14.04z"/>
	<path class="st0" d="M9.7,13.6l1.19,0.3c0,0,1.14-3.27,1.58-3.51c0,0-0.54-1.34-1.58,0.15C10.89,10.53,9.7,12.95,9.7,13.6z"/>
	<path class="st0" d="M9.7,18.3l-1.24-0.35c0,0-0.05-1.48,0.35-2.62l1.39,0.4C10.2,15.72,9.7,17.26,9.7,18.3z"/>
	<path class="st1" d="M8.96,14.98l1.39,0.4c0,0,0.15-0.54,0.35-0.89l-1.29-0.3C9.41,14.19,9.21,14.34,8.96,14.98z"/>
	<path class="st0" d="M3.22,16.42l4.7,1.39c0,0,0.25-2.42,0.89-3.71l-1.58-0.45v-0.4l0.35-0.15l0.35,0.1c0,0,0-1.39-0.84-2.33
		L5.84,9.04c0,0-0.54,0.49-1.48,2.82C4.36,11.86,3.47,13.5,3.22,16.42z"/>
	<path class="st0" d="M2.73,16.22l-0.99-0.25c0,0-0.15-1.53,0.3-2.37l1.09,0.3C3.12,13.89,2.87,14.73,2.73,16.22z"/>
	<path class="st0" d="M3.22,13.45l-1.04-0.3c0,0,2.03-6.14,3.36-4.45C5.55,8.7,4.66,9.64,3.22,13.45z"/>
	<path class="st0" d="M17.62,15.57l1.63,0.4c0,0,0.94-2.92,1.29-3.41c0,0-0.79-1.93-1.73-0.05C18.81,12.51,17.77,14.68,17.62,15.57z
		"/>
	<path class="st1" d="M7.67,11.19c0,0,0.77,0.07,0.93,0.17"/>
	<path class="st2" d="M7.85,11.51c0,0,0.81,0.1,0.96,0.2"/>
	<g>
		<g>
			<path class="st3" d="M30.57,15.51c-0.01-0.18,0.04-0.35,0.14-0.5c-0.09-0.03-0.19-0.05-0.28-0.08c0.01,0.12,0,0.22-0.06,0.32
				c0.09,0.04,0.18,0.08,0.27,0.12c0.09-0.41,0.31-0.75,0.55-1.09c0.09-0.14,0.21-0.32,0.39-0.35c0.2-0.03,0.36,0.15,0.43,0.32
				c0.08,0.18,0.09,0.39,0.11,0.59c0.03,0.23,0.06,0.46,0.1,0.68c0.04,0.21,0.08,0.43,0.13,0.64c0.03,0.12,0.06,0.23,0.09,0.34
				c0.02,0.06,0.03,0.11,0.05,0.17c0.01,0.05,0.01,0.14,0.06,0.08c-0.13,0.14,0.08,0.35,0.21,0.21c0.16-0.17-0.01-0.47-0.06-0.66
				c-0.08-0.29-0.14-0.58-0.19-0.87s-0.08-0.58-0.12-0.87c-0.03-0.23-0.09-0.47-0.24-0.66c-0.13-0.16-0.33-0.28-0.55-0.28
				c-0.23,0.01-0.41,0.15-0.55,0.32c-0.31,0.39-0.61,0.85-0.71,1.34c-0.03,0.16,0.19,0.27,0.27,0.12c0.08-0.15,0.12-0.3,0.1-0.47
				c-0.02-0.14-0.19-0.21-0.28-0.08c-0.13,0.2-0.19,0.42-0.18,0.65C30.28,15.7,30.58,15.7,30.57,15.51L30.57,15.51z"/>
		</g>
	</g>
	<g>
		<g>
			<path class="st3" d="M32.96,17.02c-0.09-0.87-0.18-1.72-0.45-2.55c-0.1-0.3-0.19-0.72-0.47-0.9c-0.32-0.21-0.66,0.01-0.92,0.22
				c-0.11,0.09,0.01,0.3,0.15,0.25c0.1-0.04,0.19-0.08,0.28-0.14c0.05-0.03,0.22-0.23,0.28-0.2c0.18,0.07,0.26-0.22,0.08-0.29
				c-0.12-0.05-0.24-0.01-0.34,0.07c-0.12,0.11-0.22,0.21-0.38,0.27c0.05,0.08,0.1,0.17,0.15,0.25c0.11-0.09,0.25-0.21,0.41-0.21
				c0.17,0,0.25,0.15,0.31,0.29c0.12,0.29,0.21,0.6,0.29,0.9c0.18,0.67,0.24,1.35,0.31,2.04C32.68,17.21,32.98,17.21,32.96,17.02
				L32.96,17.02z"/>
		</g>
	</g>
	<g>
		<g>
			<path class="st3" d="M32.84,19.52c0.14-0.81,0.18-1.63,0.09-2.44c-0.09,0.04-0.17,0.07-0.26,0.11c0.06,0.05,0.05,0.18,0.06,0.25
				c0.01,0.1,0.02,0.2,0.02,0.3c0.01,0.21,0.02,0.41,0.01,0.62c-0.01,0.42-0.04,0.84-0.11,1.25c-0.03,0.19,0.26,0.27,0.29,0.08
				c0.08-0.47,0.12-0.95,0.12-1.43c0-0.23-0.01-0.46-0.03-0.7c-0.01-0.18,0-0.46-0.16-0.59c-0.09-0.07-0.27-0.04-0.26,0.11
				c0.08,0.79,0.05,1.58-0.08,2.36C32.51,19.63,32.8,19.71,32.84,19.52L32.84,19.52z"/>
		</g>
	</g>
	<g>
		<g>
			<path class="st3" d="M32.67,16.87c-0.5-0.13-1-0.23-1.51-0.31c-0.12-0.02-0.24-0.04-0.36-0.05c-0.04-0.01-0.08,0-0.11-0.04
				s-0.03-0.12-0.04-0.17c-0.05-0.25-0.09-0.51-0.12-0.77c-0.1,0.01-0.2,0.03-0.29,0.04c0.07,0.26,0.14,0.51,0.22,0.77
				c0.05,0.19,0.16,0.37,0.38,0.33c0.19-0.04,0.11-0.32-0.08-0.29c0.05-0.01,0.03,0.01,0.01-0.04c-0.01-0.03-0.02-0.06-0.03-0.09
				c-0.02-0.09-0.05-0.17-0.07-0.26c-0.05-0.17-0.1-0.34-0.14-0.51c-0.04-0.16-0.31-0.13-0.29,0.04c0.03,0.28,0.07,0.57,0.13,0.85
				c0.02,0.12,0.04,0.25,0.14,0.33c0.1,0.09,0.24,0.09,0.37,0.11c0.58,0.08,1.15,0.2,1.72,0.34C32.78,17.21,32.86,16.92,32.67,16.87
				L32.67,16.87z"/>
		</g>
	</g>
	<g>
		<g>
			<path class="st3" d="M29.47,18.6c0.12-0.49,0.27-0.98,0.45-1.46c0.09-0.23,0.17-0.47,0.26-0.7c0.08-0.21,0.14-0.46,0.32-0.61
				c-0.08-0.02-0.17-0.04-0.25-0.07c0.05,0.12-0.03,0.25-0.08,0.36s-0.1,0.23-0.14,0.34c-0.09,0.23-0.18,0.46-0.26,0.7
				c-0.16,0.48-0.29,0.97-0.4,1.46c-0.04,0.19,0.25,0.27,0.29,0.08c0.11-0.53,0.25-1.05,0.43-1.56c0.09-0.26,0.19-0.51,0.29-0.76
				c0.09-0.21,0.24-0.45,0.16-0.69c-0.04-0.11-0.16-0.14-0.25-0.07c-0.18,0.15-0.25,0.37-0.34,0.58c-0.1,0.25-0.19,0.5-0.29,0.75
				c-0.19,0.51-0.36,1.03-0.49,1.56C29.13,18.71,29.42,18.79,29.47,18.6L29.47,18.6z"/>
		</g>
	</g>
	<g>
		<g>
			<path class="st3" d="M30.54,18.95c0.13-0.81,0.33-1.67,0.07-2.48c-0.1,0.03-0.19,0.05-0.29,0.08c0.07,0.17,0.05,0.37,0.05,0.55
				c0,0.21,0.01,0.41,0.01,0.62c0,0.2,0.01,0.41,0.01,0.61c0,0.17,0,0.35-0.08,0.51c-0.09,0.17,0.17,0.32,0.26,0.15
				c0.19-0.37,0.12-0.83,0.11-1.22c0-0.22-0.01-0.44-0.01-0.66c0-0.21,0.02-0.44-0.07-0.63c-0.07-0.17-0.35-0.11-0.29,0.08
				c0.25,0.75,0.05,1.56-0.07,2.32C30.22,19.06,30.51,19.14,30.54,18.95L30.54,18.95z"/>
		</g>
	</g>
	<g>
		<g>
			<path class="st3" d="M30.46,15.81c0-0.23-0.07-0.46-0.13-0.68c-0.06-0.23-0.13-0.46-0.2-0.69c-0.14-0.45-0.31-0.9-0.53-1.31
				c-0.07,0.07-0.14,0.14-0.21,0.21c0.33,0.14,0.42,0.5,0.47,0.82c0.06,0.4,0.13,0.79,0.24,1.17c0.04,0.14,0.2,0.13,0.27,0.04
				c0.13-0.17,0-0.47-0.04-0.66c-0.06-0.23-0.09-0.5-0.21-0.71c-0.06-0.1-0.25-0.1-0.27,0.04c-0.01,0.05-0.01,0.06-0.04,0.01
				c-0.07-0.15-0.32-0.05-0.27,0.12c0.15,0.53,0.3,1.06,0.44,1.6c0.05,0.19,0.34,0.11,0.29-0.08c-0.14-0.53-0.29-1.07-0.44-1.6
				c-0.09,0.04-0.18,0.08-0.27,0.12c0.13,0.27,0.54,0.21,0.59-0.08c-0.09,0.01-0.18,0.02-0.27,0.04c0.09,0.16,0.11,0.36,0.15,0.54
				c0.02,0.1,0.05,0.19,0.07,0.29c0.01,0.06,0.07,0.18,0.03,0.23c0.09,0.01,0.18,0.02,0.27,0.04c-0.12-0.43-0.17-0.87-0.26-1.32
				c-0.07-0.35-0.24-0.71-0.58-0.86c-0.13-0.06-0.28,0.06-0.21,0.21c0.21,0.39,0.37,0.81,0.5,1.24c0.07,0.21,0.13,0.43,0.18,0.64
				c0.06,0.21,0.13,0.42,0.13,0.64C30.17,16,30.47,16,30.46,15.81L30.46,15.81z"/>
		</g>
	</g>
	<g>
		<g>
			<path class="st3" d="M29.67,13.09c-0.33-0.11-0.65-0.13-0.9,0.14c-0.23,0.25-0.42,0.55-0.58,0.84c-0.33,0.61-0.53,1.29-0.73,1.95
				c-0.06,0.19,0.23,0.26,0.29,0.08c0.17-0.58,0.35-1.16,0.62-1.71c0.13-0.26,0.27-0.51,0.45-0.74c0.09-0.11,0.19-0.28,0.33-0.33
				s0.31,0.01,0.44,0.06C29.77,13.44,29.85,13.15,29.67,13.09L29.67,13.09z"/>
		</g>
	</g>
	<g>
		<g>
			<path class="st3" d="M26.97,18.03c0.01-0.35,0.13-0.71,0.24-1.05s0.23-0.67,0.35-1c0.25-0.65,0.5-1.32,0.89-1.9
				c0.11-0.16-0.15-0.31-0.26-0.15c-0.41,0.59-0.66,1.3-0.92,1.97c-0.14,0.35-0.27,0.71-0.38,1.07c-0.1,0.34-0.22,0.7-0.22,1.06
				C26.66,18.22,26.96,18.22,26.97,18.03L26.97,18.03z"/>
		</g>
	</g>
	<g>
		<g>
			<path class="st3" d="M29.06,13.45c0.19,0,0.19-0.3,0-0.3C28.87,13.15,28.87,13.45,29.06,13.45L29.06,13.45z"/>
		</g>
	</g>
	<g>
		<g>
			<path class="st3" d="M26.96,18.08c0.04-0.33,0.24-0.63,0.36-0.94c0.13-0.33,0.24-0.66,0.33-1c0.05-0.19-0.24-0.27-0.29-0.08
				c-0.09,0.35-0.21,0.7-0.34,1.03c-0.13,0.32-0.31,0.63-0.36,0.98c-0.01,0.08,0.08,0.15,0.15,0.15
				C26.9,18.23,26.95,18.16,26.96,18.08L26.96,18.08z"/>
		</g>
	</g>
	<g>
		<g>
			<path class="st3" d="M26.29,20.03c0.17-0.03,0.35,0.02,0.52,0.05c0.19,0.04,0.37,0.08,0.56,0.13c0.36,0.09,0.72,0.2,1.07,0.32
				c0.01-0.1,0.03-0.2,0.04-0.29c-0.41-0.05-0.81-0.1-1.22-0.16c-0.08-0.01-0.15,0.08-0.15,0.15c0,0.09,0.07,0.14,0.15,0.15
				c0.41,0.05,0.81,0.1,1.22,0.16c0.18,0.02,0.19-0.24,0.04-0.29c-0.38-0.13-0.76-0.24-1.15-0.34c-0.19-0.05-0.38-0.09-0.58-0.13
				c-0.19-0.04-0.38-0.07-0.57-0.03C26.02,19.77,26.1,20.06,26.29,20.03L26.29,20.03z"/>
		</g>
	</g>
	<g>
		<g>
			<path class="st3" d="M28,24.07c0.13-0.97,0.41-1.89,0.74-2.8c0.16-0.44,0.33-0.87,0.47-1.32c0.08-0.25,0.37-0.83-0.07-0.9
				c-0.06-0.01-0.14,0.01-0.17,0.07c-0.18,0.36-0.36,0.73-0.49,1.12c-0.13,0.39-0.21,0.8-0.3,1.2c-0.18,0.83-0.33,1.67-0.29,2.52
				c0.01,0.19,0.3,0.19,0.3,0c0-0.45,0.07-0.88,0.2-1.31c0.06-0.18-0.23-0.26-0.29-0.08c-0.14,0.45-0.21,0.91-0.21,1.39
				c0.1,0,0.2,0,0.3,0c-0.04-0.83,0.11-1.64,0.28-2.44c0.08-0.37,0.15-0.75,0.27-1.12c0.13-0.39,0.31-0.76,0.49-1.13
				c-0.06,0.02-0.11,0.05-0.17,0.07c0.03,0-0.69,2.03-0.76,2.23c-0.28,0.79-0.49,1.59-0.61,2.42C27.69,24.18,27.97,24.26,28,24.07
				L28,24.07z"/>
		</g>
	</g>
	<g>
		<g>
			<path class="st3" d="M26.99,17.98c0.19,0,0.19-0.3,0-0.3S26.8,17.98,26.99,17.98L26.99,17.98z"/>
		</g>
	</g>
	<g>
		<g>
			<path class="st3" d="M33.5,20.11c0.09-0.02,0.15-0.1,0.18-0.18c0.02-0.06,0-0.15,0.02-0.19c-0.09-0.03-0.19-0.05-0.28-0.08
				c0,0.02,0,0.05-0.01,0.07c-0.01,0.07,0.05,0.13,0.11,0.14c0.04,0.01,0.07,0.02,0.11,0.03c-0.02-0.01-0.04-0.03-0.07-0.04
				l0.01,0.01c-0.01-0.02-0.03-0.04-0.04-0.07c0,0.01,0,0.01,0.01,0.02c0-0.03,0-0.05,0-0.08c0.02-0.02,0.02-0.03,0,0
				c-0.01,0.01-0.02,0.02-0.03,0.04c-0.02,0.02-0.03,0.04-0.05,0.05c-0.02,0.02-0.03,0.04-0.05,0.05c-0.01,0.01-0.02,0.02-0.03,0.04
				c-0.02,0.02-0.02,0.02,0.01,0c0.03,0,0.05,0,0.08,0c0.01,0,0.02,0.02,0,0s-0.04-0.03-0.06-0.05c-0.04-0.02-0.08-0.04-0.12-0.05
				c-0.08-0.02-0.17-0.02-0.25-0.03c-0.09,0-0.17-0.01-0.25-0.03c-0.04-0.01-0.08-0.02-0.12-0.03c-0.02-0.01-0.04-0.01-0.07-0.02
				c-0.01,0-0.02-0.01-0.03-0.01c0.01,0.01,0.01,0.01,0,0c0.02,0.02,0.04,0.04,0.05,0.05c0,0.01,0,0.01,0,0.02c0-0.01,0-0.02,0-0.03
				s0.01-0.06,0-0.04c0-0.02,0.01-0.04,0.02-0.06c-0.01,0.03,0.02-0.04,0.01-0.01c0.01-0.01,0.01-0.01,0.01-0.01c-0.01,0,0,0,0.02,0
				c0,0,0.04,0,0.05,0c0.06,0,0.11,0,0.17,0.01c0.11,0.01,0.22,0.03,0.33,0.05c0.03,0.01,0.06,0.01,0.09,0.02
				c0.01,0,0.03,0.01,0.04,0.01c-0.02,0-0.03-0.02-0.03-0.04c-0.02,0,0.02-0.03-0.02,0.01c-0.01,0.01-0.01,0.01-0.02,0.02
				c-0.02,0.02-0.02,0.02,0.01,0c0.03,0,0.05,0,0.08,0c-0.01,0-0.01,0-0.02,0c0.02,0.01,0.04,0.03,0.07,0.04
				c0.02,0.02,0.02,0.05,0,0c0-0.02-0.01-0.03-0.01-0.05c0-0.03,0-0.06,0-0.09c-0.1,0.01-0.2,0.03-0.29,0.04
				c0,0.01-0.01,0.03-0.03,0.05c0.07,0,0.14,0,0.21,0c-0.03-0.04-0.06-0.1-0.06-0.15c-0.1,0.01-0.2,0.03-0.29,0.04
				c0.01,0.03,0.01,0.06,0.01,0.08c0,0,0,0.02,0,0.01c0,0,0,0,0.01,0c-0.03,0.02-0.01,0.02,0.04-0.01c0.04,0.01,0.07,0.03,0.11,0.04
				c0.02,0.03,0.02,0.03,0.01,0c0-0.01-0.01-0.02-0.01-0.03c-0.01-0.03-0.01-0.05-0.01-0.08c-0.01-0.07-0.1-0.12-0.16-0.11
				c-0.07,0.01-0.14,0.07-0.13,0.15c0,0.02,0,0.04,0,0.05c0,0.01-0.02,0.03-0.02,0.02c-0.02,0.01-0.03,0-0.03,0
				c-0.02,0.01,0-0.01,0,0c0,0.03,0.04,0.06,0,0.09c-0.08-0.05-0.17-0.1-0.25-0.15c0.02-0.02,0.03-0.04,0.05-0.05
				c0.06,0.02,0.11,0.05,0.17,0.07c-0.01-0.03-0.01-0.07-0.01-0.11c-0.1,0-0.2,0-0.3,0c0,0.03,0,0.02,0.01-0.02
				c0.02-0.02,0.04-0.04,0.05-0.05c0.01,0,0.03-0.01,0.04-0.01c0.03,0.01,0.05,0.01,0.08,0.02c0,0-0.01,0-0.01-0.01
				c0.02,0.02,0.04,0.04,0.05,0.05v-0.01c-0.03-0.07-0.14-0.09-0.21-0.05s-0.09,0.13-0.05,0.21s0.14,0.11,0.22,0.07
				c0.08-0.03,0.12-0.12,0.11-0.2c0-0.08-0.07-0.15-0.15-0.15c-0.09,0-0.14,0.07-0.15,0.15c-0.01,0.09,0.01,0.17,0.05,0.26
				c0.03,0.06,0.11,0.08,0.17,0.07c0.08-0.02,0.14-0.08,0.16-0.16c0.04-0.15-0.14-0.24-0.25-0.15c-0.08,0.07-0.09,0.19-0.04,0.28
				s0.15,0.14,0.26,0.14c0.2,0,0.37-0.17,0.34-0.37c-0.1,0.01-0.2,0.03-0.29,0.04c0.01,0.07,0.03,0.17,0.08,0.23
				c0.07,0.07,0.17,0.07,0.25,0.01c0.14-0.1,0.13-0.26,0.1-0.41c-0.01-0.07-0.1-0.12-0.16-0.11c-0.07,0.01-0.14,0.07-0.13,0.15
				c0.02,0.14,0.07,0.25,0.15,0.36c0.05,0.07,0.16,0.05,0.21,0c0.1-0.09,0.13-0.21,0.11-0.34c-0.01-0.07-0.1-0.12-0.16-0.11
				c-0.08,0.01-0.13,0.07-0.13,0.15c-0.01,0.15,0.04,0.44,0.26,0.39c0.15-0.04,0.27-0.24,0.23-0.39c-0.05-0.18-0.26-0.2-0.42-0.23
				c-0.16-0.03-0.32-0.05-0.48-0.04c-0.16,0-0.3,0.07-0.36,0.23c-0.05,0.12-0.07,0.31,0.04,0.41c0.05,0.05,0.13,0.06,0.2,0.07
				c0.09,0.02,0.18,0.03,0.26,0.05c0.07,0.01,0.15,0.01,0.22,0.02c0.06,0,0.12,0,0.17,0.02c0.02,0.01,0.04,0.04,0.07,0.05
				c0.05,0.03,0.1,0.04,0.16,0.03c0.09-0.02,0.15-0.1,0.21-0.17c0.06-0.07,0.16-0.15,0.16-0.25c0-0.14-0.13-0.17-0.24-0.21
				c0.04,0.05,0.07,0.1,0.11,0.14c0-0.02,0-0.05,0.01-0.07c0.01-0.06-0.05-0.13-0.11-0.14c-0.07-0.02-0.13,0.01-0.17,0.07
				c-0.04,0.06-0.05,0.13-0.05,0.2c0,0.01,0,0.03,0,0.04s0,0.02,0,0v0.01c0.01-0.01,0.01-0.01,0,0s0,0.01,0.01-0.01
				c0.01-0.01,0.01-0.01,0.02-0.02C33.23,19.87,33.31,20.16,33.5,20.11L33.5,20.11z"/>
		</g>
	</g>
	<g>
		<g>
			<path class="st3" d="M32.44,19.63c-0.66-0.09-1.32-0.21-1.98-0.35c-0.32-0.07-0.64-0.14-0.96-0.22
				c-0.14-0.04-0.34-0.05-0.48-0.12c-0.05-0.03-0.07-0.03-0.04,0c0.02-0.02,0.03-0.03,0.05-0.05c0.08-0.05,0.14-0.13,0.22-0.19
				c-0.08-0.04-0.15-0.09-0.23-0.13c-0.01,0.13-0.02,0.26-0.03,0.39c0.09-0.04,0.17-0.07,0.26-0.11c-0.07,0.06-0.06,0.1,0.03,0.11
				c0.08,0.01,0.16,0.02,0.24,0.03c0.12,0.17,0.49,0.23,0.68,0.26c0.28,0.05,0.56,0.08,0.84,0.11c0.58,0.06,1.15,0.13,1.69,0.35
				c0.01-0.1,0.03-0.2,0.04-0.29c-0.56-0.06-1.12-0.09-1.68-0.1c-0.55-0.02-1.06-0.21-1.56-0.43c-0.01,0.09-0.02,0.18-0.04,0.27
				c0.22-0.09,0.38-0.24,0.27-0.49c-0.06,0.07-0.11,0.15-0.17,0.22c0.59,0.17,1.2,0.3,1.81,0.39c0.19,0.03,0.27-0.26,0.08-0.29
				c-0.61-0.09-1.22-0.22-1.81-0.39c-0.14-0.04-0.22,0.11-0.17,0.22c-0.03,0.01-0.06,0.03-0.09,0.04c-0.1,0.04-0.17,0.22-0.04,0.27
				c0.5,0.22,1.02,0.44,1.57,0.47c0.61,0.04,1.22,0.05,1.83,0.11c0.18,0.02,0.18-0.24,0.04-0.29c-0.7-0.29-1.45-0.31-2.19-0.41
				c-0.19-0.02-0.38-0.05-0.56-0.1c-0.16-0.04-0.29-0.14-0.45-0.18c-0.23-0.06-0.51,0.18-0.34,0.41c0.06,0.08,0.16,0.1,0.24,0.03
				c0.2-0.19,0.07-0.49-0.18-0.54c-0.28-0.05-0.48,0.2-0.27,0.43c0.1,0.1,0.25,0.02,0.26-0.11c0.01-0.13,0.02-0.26,0.03-0.39
				c0.01-0.11-0.14-0.2-0.23-0.13c-0.17,0.13-0.57,0.4-0.37,0.66c0.09,0.12,0.27,0.14,0.4,0.18c0.22,0.06,0.44,0.11,0.66,0.16
				c0.85,0.2,1.71,0.36,2.57,0.48C32.55,19.95,32.63,19.66,32.44,19.63L32.44,19.63z"/>
		</g>
	</g>
	<g>
		<g>
			<path class="st3" d="M28.63,18.72c-0.44-0.04-0.86-0.19-1.29-0.31c-0.21-0.06-0.41-0.12-0.63-0.15
				c-0.08-0.01-0.22-0.05-0.31-0.04c-0.07-0.01-0.07,0,0,0.05c0-0.02,0-0.03,0-0.05c0-0.03,0-0.07-0.01-0.1c0-0.06,0-0.07-0.01-0.02
				c-0.04,0.02-0.09,0.05-0.13,0.07c0.11-0.01,0.25,0.02,0.36,0.04s0.23,0.03,0.34,0.05c0.24,0.03,0.47,0.07,0.71,0.11
				c0.47,0.09,0.94,0.19,1.39,0.33c0-0.1,0-0.19,0-0.29c-0.43,0.08-0.87,0.03-1.3-0.04c-0.43-0.07-0.86-0.16-1.29-0.24
				c-0.19-0.04-0.27,0.25-0.08,0.29c0.47,0.09,0.93,0.18,1.4,0.26c0.45,0.07,0.9,0.1,1.35,0.02c0.15-0.03,0.13-0.25,0-0.29
				c-0.55-0.17-1.1-0.28-1.66-0.38c-0.29-0.05-0.57-0.09-0.86-0.13c-0.18-0.02-0.52-0.13-0.53,0.16c-0.01,0.21,0.01,0.44,0.26,0.46
				c0.27,0.02,0.53,0.07,0.79,0.14c0.49,0.14,0.97,0.31,1.49,0.35C28.83,19.04,28.82,18.74,28.63,18.72L28.63,18.72z"/>
		</g>
	</g>
	<g>
		<g>
			<path class="st3" d="M26.42,18.4c-0.05,0.28-0.18,0.54-0.27,0.81c-0.1,0.3-0.19,0.6-0.26,0.9c-0.14,0.59-0.21,1.2-0.23,1.81
				c0,0.19,0.3,0.19,0.3,0c0.01-0.6,0.09-1.2,0.23-1.79c0.07-0.28,0.15-0.56,0.25-0.84c0.09-0.27,0.23-0.53,0.27-0.81
				C26.74,18.29,26.45,18.21,26.42,18.4L26.42,18.4z"/>
		</g>
	</g>
	<g>
		<g>
			<path class="st3" d="M25.61,23.37c0.05-1.05,0.19-2.1,0.41-3.13c0.04-0.19-0.25-0.27-0.29-0.08c-0.23,1.06-0.37,2.13-0.43,3.21
				C25.3,23.56,25.6,23.56,25.61,23.37L25.61,23.37z"/>
		</g>
	</g>
	<g>
		<g>
			<path class="st3" d="M25.24,22.18c0,0.25,0,0.5,0,0.74c0,0.12,0.01,0.25,0.07,0.35c0.07,0.11,0.21,0.19,0.33,0.12
				c0.11-0.05,0.14-0.17,0.14-0.28c0-0.12-0.01-0.25-0.01-0.37c-0.01-0.25-0.01-0.51-0.02-0.76c0-0.19-0.3-0.19-0.3,0
				c0,0.2,0.01,0.4,0.01,0.61c0,0.1,0,0.2,0.01,0.3c0,0.05,0,0.1,0,0.15c0,0.02,0,0.04,0,0.07c0,0.01,0,0.04,0,0.03
				c0.01,0.02-0.03,0.01,0.02-0.01c0.02,0,0.03-0.01,0.05-0.01c0.03,0.02,0.03,0.02,0.01,0c0-0.02-0.02-0.06-0.02-0.08
				c-0.01-0.09-0.01-0.18-0.01-0.26c0-0.2,0-0.4,0-0.6C25.54,21.99,25.24,21.99,25.24,22.18L25.24,22.18z"/>
		</g>
	</g>
	<g>
		<g>
			<path class="st3" d="M23.5,17.43c0.51,0.2,1.01,0.42,1.56,0.51c0.28,0.04,0.55,0.09,0.82,0.15c0.14,0.03,0.27,0.07,0.4,0.11
				c0.11,0.03,0.2,0.07,0.3,0.01c0.04-0.03,0.08-0.08,0.07-0.13c-0.01-0.22-0.29-0.25-0.45-0.3c-0.25-0.08-0.5-0.17-0.75-0.24
				c-0.24-0.07-0.47-0.08-0.71-0.1c-0.25-0.03-0.47-0.12-0.7-0.2c-0.19-0.06-0.44-0.14-0.64-0.08c-0.19,0.06-0.2,0.29-0.12,0.44
				c0.1,0.18,0.31,0.24,0.5,0.3c0.24,0.08,0.48,0.14,0.73,0.19c0.53,0.11,1.12,0.09,1.61,0.34c0.04-0.09,0.08-0.18,0.12-0.27
				c-0.47-0.16-0.94-0.3-1.42-0.42c-0.23-0.06-0.47-0.11-0.71-0.16c-0.21-0.04-0.42-0.06-0.6-0.19c-0.16-0.11-0.31,0.15-0.15,0.26
				c0.17,0.13,0.38,0.16,0.58,0.2c0.25,0.05,0.49,0.11,0.74,0.17c0.5,0.12,0.99,0.27,1.48,0.44c0.16,0.06,0.27-0.2,0.12-0.27
				c-0.44-0.22-0.92-0.24-1.4-0.32c-0.25-0.04-0.49-0.09-0.74-0.16c-0.11-0.03-0.22-0.06-0.33-0.1c-0.06-0.02-0.13-0.04-0.19-0.07
				C23.58,17.49,23.5,17.41,23.5,17.43c0.02-0.04,0.31,0.04,0.35,0.05c0.11,0.03,0.22,0.08,0.33,0.11c0.23,0.08,0.46,0.12,0.7,0.14
				c0.25,0.02,0.49,0.07,0.73,0.15c0.13,0.04,0.27,0.09,0.4,0.13c0.06,0.02,0.12,0.04,0.17,0.06c0.05,0.02,0.18,0.03,0.22,0.07
				c-0.01-0.04-0.03-0.07-0.04-0.11c0,0.01,0,0.02,0,0.03c0.02-0.04,0.05-0.09,0.07-0.13c-0.01,0.01-0.02,0.01-0.03,0.02
				c0.04-0.01,0.08-0.01,0.12-0.02c-0.24-0.03-0.49-0.13-0.73-0.18c-0.25-0.05-0.51-0.09-0.76-0.13c-0.5-0.08-0.97-0.3-1.44-0.49
				C23.4,17.07,23.32,17.36,23.5,17.43L23.5,17.43z"/>
		</g>
	</g>
	<g>
		<g>
			<path class="st3" d="M28.75,18.89c0.19,0,0.19-0.3,0-0.3S28.56,18.89,28.75,18.89L28.75,18.89z"/>
		</g>
	</g>
	<g>
		<g>
			<path class="st3" d="M28.75,24.88c0.18-0.16,0.37-0.39,0.26-0.65s-0.4-0.24-0.64-0.28c-1.08-0.17-2.13-0.44-3.17-0.79
				c-0.03,0.1-0.05,0.19-0.08,0.29c0.87,0.16,1.8,0.24,2.62,0.6c0.17,0.08,0.33-0.18,0.15-0.26c-0.61-0.29-1.28-0.49-1.94-0.62
				c-0.47-0.1-0.91-0.09-1.19,0.35c-0.06,0.09,0,0.19,0.09,0.22c0.99,0.4,2,0.73,3.03,0.99c0.19,0.05,0.55,0.22,0.74,0.09
				c0.19-0.14,0.06-0.37,0.04-0.54c-0.07,0.06-0.15,0.11-0.22,0.17c0.03,0.04,0.06,0.08,0.09,0.12c0.03-0.06,0.07-0.12,0.1-0.18
				c-0.06-0.04-0.13-0.07-0.19-0.11c-0.04-0.14-0.25-0.15-0.29,0c-0.03,0-0.07-0.01-0.1-0.01c-0.06,0.05-0.13,0.1-0.19,0.14
				c0,0,0,0,0,0.01c0.01-0.06,0.02-0.12,0.02-0.18c-0.02,0-0.03,0.01-0.05,0.01c0.05,0.05,0.1,0.1,0.15,0.15
				c0.03-0.07,0.06-0.14,0.1-0.21c-0.06,0.01-0.12,0.02-0.18,0.02c-0.05-0.07-0.09-0.13-0.14-0.2c0.02-0.13-0.17-0.19-0.26-0.11
				c-0.17,0-0.33,0-0.5,0c-0.02,0.08-0.04,0.17-0.07,0.25c0.01,0,0.03-0.01,0.04-0.01c-0.06-0.02-0.11-0.05-0.17-0.07
				c0.01,0.01,0.02,0.03,0.03,0.04c0.01-0.06,0.02-0.12,0.02-0.18c-0.12-0.03-0.24-0.06-0.36-0.09c-0.08-0.01-0.16-0.02-0.24-0.03
				c0.16,0.22,0.31,0.33,0.58,0.37c0.19,0.03,0.27-0.23,0.08-0.29c-3-0.97-6.01-1.89-9.06-2.68c-0.16-0.04-0.26,0.19-0.12,0.27
				c1.07,0.63,2.38,0.74,3.55,1.1c0.64,0.2,1.28,0.39,1.9,0.65c0.51,0.21,1.11,0.14,1.56,0.46c0.04-0.09,0.08-0.18,0.12-0.27
				c-0.61-0.24-1.23-0.45-1.86-0.63c-0.14-0.04-0.26,0.15-0.15,0.25c0.03,0.04,0.05,0.08,0.08,0.12c0.07-0.06,0.15-0.11,0.22-0.17
				c-0.84-0.58-1.96-0.34-2.72-1.01c-0.37-0.33-0.85-0.48-1.31-0.67c-0.45-0.19-0.87-0.34-1.36-0.34c-0.14,0-0.21,0.21-0.08,0.28
				c1.19,0.59,2.49,0.8,3.78,1.08c0.65,0.14,1.3,0.31,1.92,0.54c0.65,0.24,1.28,0.51,1.97,0.64c0.1,0.02,0.22-0.07,0.18-0.18
				c-0.13-0.38-0.53-0.4-0.88-0.48c-0.67-0.14-1.34-0.29-2.01-0.43c-0.19-0.04-0.26,0.22-0.08,0.29c0.3,0.11,0.5,0.1,0.69-0.16
				c-0.06,0.02-0.11,0.05-0.17,0.07c0.25,0.08,0.51,0.16,0.76,0.25c0.18,0.06,0.26-0.23,0.08-0.29c-0.25-0.08-0.51-0.16-0.76-0.25
				c-0.07-0.02-0.13,0.02-0.17,0.07c-0.12,0.09-0.23,0.09-0.35,0.02c-0.03,0.1-0.05,0.19-0.08,0.29c0.44,0.09,0.87,0.19,1.31,0.28
				c0.25,0.05,1.29,0.14,1.38,0.42c0.06-0.06,0.12-0.12,0.18-0.18c-1.27-0.24-2.44-0.86-3.7-1.14c-1.32-0.29-2.67-0.48-3.89-1.09
				c-0.03,0.09-0.05,0.19-0.08,0.28c0.65,0,1.23,0.31,1.81,0.56c0.41,0.18,0.68,0.5,1.07,0.7c0.75,0.4,1.62,0.21,2.36,0.72
				c0.11,0.08,0.26-0.05,0.22-0.17c-0.04-0.14-0.05-0.16-0.16-0.25c-0.05,0.08-0.1,0.17-0.15,0.25c0.63,0.17,1.25,0.38,1.86,0.63
				c0.17,0.07,0.24-0.18,0.12-0.27c-0.45-0.32-0.95-0.24-1.45-0.41c-0.56-0.2-1.11-0.42-1.68-0.6c-1.26-0.41-2.74-0.52-3.88-1.2
				c-0.04,0.09-0.08,0.18-0.12,0.27c3.05,0.79,6.06,1.71,9.06,2.68c0.03-0.1,0.05-0.19,0.08-0.29c-0.13-0.08-0.27-0.15-0.4-0.23
				c-0.06-0.08-0.16-0.1-0.24-0.03c-0.37,0.32,0.49,0.88,0.78,0.52c0.04-0.05,0.06-0.12,0.02-0.18c-0.01-0.01-0.02-0.03-0.03-0.04
				c-0.03-0.06-0.11-0.09-0.17-0.07c-0.01,0-0.03,0.01-0.04,0.01c-0.11,0.03-0.14,0.17-0.07,0.25c0.26,0.28,0.66,0.28,0.92,0
				c-0.09-0.04-0.17-0.07-0.26-0.11c-0.04,0.32,0.17,0.74,0.56,0.59c0.32-0.12,0.3-0.5,0.03-0.65c-0.06-0.03-0.13-0.02-0.18,0.02
				c-0.13,0.13-0.17,0.24-0.18,0.42c-0.01,0.08,0.07,0.15,0.15,0.15c0.13,0.01,0.17-0.01,0.26-0.1c0.05-0.05,0.06-0.12,0.02-0.18
				c-0.05-0.09-0.09-0.11-0.18-0.14c-0.1-0.03-0.19,0.05-0.19,0.14c-0.01,0.48,0.58,0.57,0.69,0.09c-0.1,0-0.19,0-0.29,0
				c0.09,0.28,0.28,0.39,0.56,0.32c0.08-0.02,0.12-0.11,0.1-0.18c-0.05-0.19-0.06-0.2-0.23-0.3c-0.12-0.08-0.24,0.05-0.22,0.17
				c0.04,0.29-0.45,0.08-0.61,0.03c-0.33-0.09-0.66-0.18-0.99-0.28c-0.62-0.19-1.24-0.41-1.84-0.66c0.03,0.07,0.06,0.15,0.09,0.22
				c0.41-0.64,2.24,0.16,2.73,0.39c0.05-0.09,0.1-0.17,0.15-0.26c-0.84-0.37-1.79-0.47-2.69-0.63c-0.19-0.03-0.26,0.23-0.08,0.29
				c0.6,0.2,1.21,0.38,1.82,0.53c0.27,0.06,0.55,0.12,0.83,0.17c0.19,0.04,1.25,0.06,0.76,0.51C28.39,24.8,28.6,25.01,28.75,24.88
				L28.75,24.88z"/>
		</g>
	</g>
	<g>
		<g>
			<path class="st3" d="M23.03,22.34c-0.71-0.17-1.43-0.34-2.14-0.52c-0.35-0.09-0.69-0.18-1.04-0.27
				c-0.19-0.05-0.37-0.11-0.55-0.16c-0.11-0.03-0.43-0.07-0.46-0.2c-0.06,0.06-0.12,0.12-0.18,0.18c0.83,0.31,1.72,0.33,2.51,0.77
				c0.17,0.09,0.32-0.16,0.15-0.26c-0.39-0.22-0.8-0.37-1.24-0.46c-0.46-0.09-0.91-0.18-1.35-0.34c-0.11-0.04-0.21,0.08-0.18,0.18
				c0.08,0.31,0.49,0.36,0.75,0.44c0.4,0.12,0.79,0.23,1.19,0.33c0.82,0.21,1.64,0.4,2.46,0.6C23.14,22.67,23.22,22.38,23.03,22.34
				L23.03,22.34z"/>
		</g>
	</g>
	<g>
		<g>
			<path class="st3" d="M6.95,18.24c3.59,1.11,7.18,2.2,10.78,3.29c0.37,0.11,0.53-0.47,0.16-0.58c-3.6-1.09-7.19-2.19-10.78-3.29
				C6.74,17.55,6.58,18.13,6.95,18.24L6.95,18.24z"/>
		</g>
	</g>
	<g>
		<g>
			<path class="st3" d="M0.89,16.37c1.03,0.23,2.03,0.61,3.03,0.94c1.02,0.33,2.05,0.66,3.07,0.99c0.37,0.12,0.53-0.46,0.16-0.58
				c-1.02-0.33-2.05-0.66-3.07-0.99c-1-0.32-2-0.71-3.03-0.94C0.67,15.71,0.51,16.29,0.89,16.37L0.89,16.37z"/>
		</g>
	</g>
	<g>
		<g>
			<path class="st3" d="M0.56,16.01c-0.01,0.07-0.02,0.15-0.03,0.22c-0.01,0.06,0.05,0.13,0.11,0.14c0.12,0.02,0.22,0.09,0.33,0.13
				c0.11,0.05,0.23,0.08,0.36,0.11c0.25,0.06,0.51,0.11,0.76,0.18c0.51,0.14,1.01,0.32,1.53,0.44c0.19,0.05,0.27-0.24,0.08-0.29
				c-0.52-0.13-1.02-0.3-1.53-0.44c-0.25-0.07-0.5-0.12-0.76-0.18c-0.13-0.03-0.25-0.06-0.37-0.11c-0.1-0.05-0.2-0.1-0.32-0.13
				c0.04,0.05,0.07,0.1,0.11,0.14c0.01-0.07,0.02-0.15,0.03-0.22C0.88,15.82,0.58,15.82,0.56,16.01L0.56,16.01z"/>
		</g>
	</g>
	<g>
		<g>
			<path class="st3" d="M6.92,17.5c-0.12,0.01-0.25,0.01-0.37,0.01c-0.06,0-0.12-0.01-0.18-0.01c-0.03,0-0.06-0.01-0.09-0.01
				c-0.01,0-0.04-0.01-0.02,0c-0.02,0-0.04-0.01-0.06-0.01c-0.08-0.01-0.17,0.02-0.18,0.1c-0.02,0.07,0.02,0.17,0.1,0.18
				c0.26,0.04,0.53,0.06,0.8,0.04c0.08-0.01,0.15-0.07,0.15-0.15C7.07,17.57,7.01,17.49,6.92,17.5L6.92,17.5z"/>
		</g>
	</g>
	<g>
		<g>
			<path class="st3" d="M8.06,18.1c0.33,0.06,0.61,0.24,0.92,0.37c0.33,0.13,0.68,0.18,1,0.31c0.08,0.03,0.16-0.03,0.18-0.1
				c0.02-0.09-0.03-0.15-0.1-0.18c-0.32-0.13-0.68-0.18-1-0.31c-0.31-0.13-0.59-0.31-0.92-0.37C7.95,17.77,7.87,18.06,8.06,18.1
				L8.06,18.1z"/>
		</g>
	</g>
	<g>
		<g>
			<path class="st3" d="M10.03,18.79c0.19,0,0.19-0.3,0-0.3C9.83,18.49,9.83,18.79,10.03,18.79L10.03,18.79z"/>
		</g>
	</g>
	<g>
		<g>
			<path class="st3" d="M10.18,18.59c-0.13-0.48-0.06-0.97,0.05-1.44c0.12-0.49,0.26-0.98,0.4-1.46c0.05-0.19-0.24-0.27-0.29-0.08
				c-0.14,0.52-0.3,1.04-0.42,1.57c-0.11,0.49-0.16,1-0.03,1.5C9.95,18.86,10.24,18.78,10.18,18.59L10.18,18.59z"/>
		</g>
	</g>
	<g>
		<g>
			<path class="st3" d="M10.51,15.47c-0.29-0.06-0.59-0.12-0.88-0.18c-0.14-0.03-0.29-0.06-0.43-0.09c-0.07-0.01-0.14-0.03-0.2-0.04
				c-0.01,0-0.08-0.01-0.08-0.03c-0.05,0.06-0.1,0.13-0.14,0.19c0.07-0.01,0.13,0.02,0.19,0.04c0.08,0.02,0.15,0.04,0.23,0.06
				c0.15,0.03,0.31,0.05,0.47,0.07c0.08,0.01,0.15-0.08,0.15-0.15c0-0.09-0.07-0.14-0.15-0.15c-0.15-0.02-0.3-0.04-0.45-0.07
				c-0.14-0.03-0.29-0.12-0.44-0.1c-0.09,0.01-0.17,0.09-0.14,0.19c0.04,0.14,0.16,0.21,0.29,0.24c0.17,0.04,0.34,0.07,0.5,0.11
				c0.34,0.07,0.67,0.14,1.01,0.21C10.62,15.8,10.7,15.51,10.51,15.47L10.51,15.47z"/>
		</g>
	</g>
	<g>
		<g>
			<path class="st3" d="M8.28,17.83c-0.03-0.95,0.16-1.9,0.56-2.77c-0.09-0.03-0.19-0.05-0.28-0.08c-0.01,0.24-0.12,0.46-0.2,0.69
				s-0.12,0.47-0.15,0.71c-0.07,0.52-0.11,1.05-0.12,1.58c0,0.19,0.3,0.19,0.3,0c0.01-0.53,0.05-1.06,0.12-1.58
				c0.03-0.25,0.09-0.49,0.18-0.73c0.08-0.22,0.16-0.43,0.17-0.67c0-0.14-0.22-0.21-0.28-0.08c-0.42,0.91-0.63,1.91-0.6,2.92
				C7.98,18.03,8.28,18.03,8.28,17.83L8.28,17.83z"/>
		</g>
	</g>
	<g>
		<g>
			<path class="st3" d="M8.92,14.78C8.92,14.8,8.92,14.79,8.92,14.78c0-0.02,0-0.03,0-0.04c0,0.01,0,0.01,0-0.01
				c0-0.01,0-0.02,0.01-0.03c0.01-0.04,0.02-0.07,0.03-0.1c0.01-0.04,0.03-0.08,0.04-0.12c0,0.03,0.02-0.01,0.02-0.02
				c0.01-0.02,0.02-0.04,0.03-0.06c0.03-0.07,0.07-0.14,0.11-0.2c0.02-0.03,0.04-0.06,0.06-0.09c0.01-0.01,0.01-0.02,0.02-0.03
				c-0.01,0.01-0.01,0.01,0,0s0.01-0.01,0,0c-0.02,0.01-0.02,0.01,0,0c-0.06-0.03-0.12-0.07-0.18-0.1c0.01,0.04,0.03,0.07,0.06,0.1
				c0.01,0.01,0.02,0.01,0.03,0.02c0.04,0.03-0.03,0-0.04-0.06c0-0.03,0-0.05,0-0.08c0.01-0.02,0.01-0.03,0,0L9.1,13.97
				C9.09,13.98,9.08,14,9.08,14.01c-0.01,0.03-0.03,0.06-0.04,0.09c-0.04,0.07-0.07,0.13-0.1,0.19c-0.06,0.13-0.11,0.26-0.16,0.39
				c-0.03,0.07,0.03,0.17,0.1,0.18c0.09,0.02,0.16-0.03,0.18-0.1c0.06-0.16,0.11-0.29,0.19-0.44c0.03-0.07,0.07-0.14,0.11-0.22
				c0.03-0.06,0.03-0.12,0-0.18c-0.02-0.03-0.04-0.05-0.07-0.06l-0.01-0.01c-0.03-0.02-0.02,0,0.05,0.06
				c-0.01-0.09-0.11-0.12-0.18-0.1c-0.11,0.02-0.17,0.13-0.23,0.21c-0.05,0.08-0.1,0.16-0.14,0.24c-0.09,0.18-0.19,0.4-0.15,0.6
				c0.01,0.08,0.11,0.13,0.18,0.1C8.9,14.94,8.94,14.86,8.92,14.78L8.92,14.78z"/>
		</g>
	</g>
	<g>
		<g>
			<path class="st3" d="M10.54,15.68c-0.02-0.1,0.02-0.2,0.06-0.29c0.04-0.11,0.09-0.21,0.14-0.31c0.1-0.21,0.22-0.42,0.35-0.61
				c-0.09-0.01-0.18-0.02-0.27-0.04c0.01,0.09-0.02,0.18-0.06,0.25c-0.05,0.09-0.1,0.18-0.15,0.28c-0.1,0.2-0.18,0.41-0.23,0.63
				c-0.05,0.19,0.24,0.27,0.29,0.08c0.06-0.22,0.14-0.44,0.25-0.64c0.12-0.22,0.24-0.42,0.2-0.68c-0.02-0.14-0.21-0.13-0.27-0.04
				c-0.14,0.22-0.27,0.44-0.38,0.68c-0.11,0.24-0.25,0.5-0.2,0.77c0.01,0.08,0.11,0.12,0.18,0.1
				C10.52,15.85,10.55,15.76,10.54,15.68L10.54,15.68z"/>
		</g>
	</g>
	<g>
		<g>
			<path class="st3" d="M7.49,13.6c0.09-0.05,0.17-0.1,0.25-0.15c-0.07-0.06-0.15-0.11-0.22-0.17c-0.03,0.09-0.05,0.2-0.01,0.28
				c0.04,0.1,0.14,0.12,0.23,0.15c0.22,0.06,0.43,0.13,0.65,0.19c0.2,0.06,0.41,0.14,0.62,0.18c0.1,0.02,0.2-0.01,0.26-0.1
				c0.04-0.07,0.04-0.14,0.05-0.21s-0.02-0.17-0.1-0.18c-0.24-0.04-0.49-0.08-0.73-0.13C8.24,13.4,8,13.36,7.77,13.28
				c0.02,0.01,0.04,0.03,0.07,0.04c-0.01,0-0.01-0.01-0.02-0.01c0.01,0.02,0.03,0.04,0.04,0.07v-0.01c0,0.03,0,0.05,0,0.08
				c0,0,0-0.01,0.01-0.01c-0.03,0.03-0.07,0.07-0.1,0.1h0.01c0.07-0.03,0.13-0.1,0.1-0.18c-0.02-0.07-0.11-0.14-0.18-0.1
				c-0.18,0.07-0.15,0.28,0.02,0.34c0.15,0.05,0.31,0.08,0.46,0.12c0.32,0.07,0.64,0.13,0.96,0.18c-0.03-0.06-0.07-0.12-0.1-0.18
				c0,0.02-0.03,0.11-0.02,0.14c-0.02-0.01,0-0.02,0.04-0.08c-0.01,0-0.03-0.01-0.04-0.01c-0.03-0.01-0.07-0.02-0.1-0.03
				c-0.14-0.04-0.28-0.08-0.41-0.12s-0.26-0.08-0.4-0.12c-0.07-0.02-0.13-0.04-0.2-0.06c-0.04-0.01-0.08-0.02-0.12-0.03
				c-0.02,0-0.03-0.01-0.05-0.01c-0.04-0.01-0.04-0.01-0.02-0.01c0.02,0.02,0.04,0.04,0.05,0.05c0-0.01-0.01-0.01-0.01-0.02
				c0.01,0.03,0.01,0.05,0.02,0.08c-0.01-0.05,0-0.1,0.02-0.14c0.04-0.12-0.11-0.24-0.22-0.17c-0.08,0.06-0.16,0.11-0.25,0.15
				C7.17,13.43,7.32,13.69,7.49,13.6L7.49,13.6z"/>
		</g>
	</g>
	<g>
		<g>
			<path class="st3" d="M9.31,14.07c0.26-0.02,0.52,0,0.78,0.06c0.12,0.03,0.25,0.06,0.37,0.09c0.04,0.01,0.29,0.06,0.28,0.09
				c0.06-0.05,0.13-0.1,0.19-0.14c-0.53-0.08-1.08-0.12-1.6-0.28c-0.01,0.1-0.03,0.2-0.04,0.29c0.62,0.06,1.23,0.23,1.8,0.47
				c0.12,0.05,0.2-0.09,0.18-0.18c-0.02-0.1-0.05-0.19-0.09-0.28s-0.08-0.17-0.16-0.23c-0.08-0.06-0.17-0.07-0.26-0.08
				c-0.11-0.02-0.21-0.04-0.32-0.06c-0.41-0.08-0.81-0.2-1.19-0.37c-0.08-0.03-0.16-0.02-0.21,0.05C9,13.56,9.02,13.67,9.09,13.71
				c0.35,0.15,0.71,0.27,1.08,0.36c0.18,0.04,0.37,0.07,0.55,0.1c0.03,0.01,0.09,0,0.11,0.03c0.03,0.02,0.04,0.07,0.05,0.1
				c0.04,0.08,0.07,0.16,0.08,0.25c0.06-0.06,0.12-0.12,0.18-0.18c-0.6-0.25-1.23-0.41-1.88-0.48c-0.17-0.02-0.2,0.25-0.04,0.29
				c0.51,0.16,1.07,0.2,1.6,0.28c0.1,0.02,0.18-0.04,0.19-0.14c0.01-0.16-0.12-0.26-0.26-0.31c-0.15-0.05-0.31-0.09-0.46-0.13
				c-0.33-0.08-0.67-0.13-1.01-0.1C9.11,13.78,9.11,14.09,9.31,14.07L9.31,14.07z"/>
		</g>
	</g>
	<g>
		<g>
			<path class="st3" d="M7.84,11.52c0.11,0,0.22,0,0.33,0.01c0.05,0,0.11,0.01,0.16,0.02c0.01,0,0.03,0,0.04,0s0.04,0,0.01,0
				c0.03,0,0.06,0.01,0.09,0.01c0.04,0.01,0.08,0.01,0.12-0.02c0.03-0.02,0.06-0.05,0.07-0.09c0.02-0.07-0.02-0.17-0.1-0.18
				c-0.24-0.04-0.48-0.06-0.72-0.06c-0.08,0-0.15,0.07-0.15,0.15C7.7,11.45,7.76,11.52,7.84,11.52L7.84,11.52z"/>
		</g>
	</g>
	<g>
		<g>
			<path class="st3" d="M5.81,8.99c0.07,0.14,0.17,0.25,0.26,0.37c0.1,0.13,0.18,0.27,0.26,0.41c0.16,0.29,0.38,0.55,0.52,0.85
				c0.14,0.28,0.41,0.43,0.58,0.69c0.08,0.13,0.15,0.27,0.19,0.42s0.07,0.28,0.17,0.4c0.12,0.15,0.33-0.06,0.21-0.21
				c-0.09-0.12-0.1-0.29-0.14-0.42c-0.05-0.14-0.12-0.27-0.2-0.39s-0.18-0.23-0.29-0.33c-0.13-0.11-0.2-0.21-0.28-0.36
				c-0.14-0.28-0.35-0.53-0.5-0.81c-0.07-0.14-0.15-0.27-0.25-0.4c-0.1-0.13-0.2-0.24-0.28-0.38C5.98,8.67,5.72,8.82,5.81,8.99
				L5.81,8.99z"/>
		</g>
	</g>
	<g>
		<g>
			<path class="st3" d="M7.78,12.02c-0.02,0.23,0.09,0.45,0.13,0.67s0.05,0.44,0.03,0.66c-0.01,0.08,0.08,0.15,0.15,0.15
				c0.09,0,0.14-0.07,0.15-0.15c0.03-0.23,0.01-0.46-0.03-0.69c-0.02-0.11-0.05-0.22-0.08-0.32c-0.03-0.11-0.06-0.2-0.05-0.32
				c0.01-0.08-0.08-0.15-0.15-0.15C7.84,11.87,7.79,11.94,7.78,12.02L7.78,12.02z"/>
		</g>
	</g>
	<g>
		<g>
			<path class="st3" d="M3.28,13.76c0.15,0.08,0.41,0.05,0.38-0.18c0-0.04-0.04-0.07-0.05-0.1c-0.01-0.04,0.02-0.08,0.04-0.12
				c0.07-0.13,0.14-0.26,0.21-0.39c-0.09-0.04-0.18-0.08-0.27-0.12c-0.04,0.25-0.13,0.47-0.28,0.67c0.09,0.03,0.19,0.05,0.28,0.08
				c0.01-0.35,0.25-0.64,0.38-0.95c0.14-0.35,0.25-0.71,0.42-1.05c0.16-0.31,0.33-0.62,0.47-0.94c0.07-0.15,0.13-0.3,0.18-0.46
				c0.05-0.15,0.09-0.32,0.24-0.41C5.44,9.7,5.29,9.44,5.12,9.53c-0.29,0.16-0.33,0.5-0.44,0.78c-0.15,0.39-0.36,0.75-0.55,1.13
				c-0.18,0.36-0.29,0.74-0.44,1.11c-0.15,0.35-0.38,0.65-0.4,1.05c0,0.16,0.2,0.19,0.28,0.08c0.16-0.22,0.26-0.47,0.31-0.74
				c0.03-0.16-0.18-0.27-0.27-0.12c-0.1,0.17-0.21,0.35-0.29,0.54c-0.06,0.15-0.01,0.19,0.06,0.32c-0.01-0.04-0.01-0.08-0.02-0.12
				c-0.01,0.01-0.01,0.03-0.02,0.04c0.02-0.03,0.05-0.06,0.07-0.09c-0.02,0.01-0.03,0.01-0.05,0.02c0.04-0.01,0.08-0.01,0.12-0.02
				c-0.02-0.01-0.04-0.01-0.06-0.02C3.26,13.42,3.11,13.67,3.28,13.76L3.28,13.76z"/>
		</g>
	</g>
	<g>
		<g>
			<path class="st3" d="M5.73,8.61C5.46,8.89,5.26,9.23,5.12,9.59c-0.03,0.07,0.03,0.17,0.1,0.18c0.09,0.02,0.15-0.03,0.18-0.1
				c0.01-0.02,0.02-0.04,0.02-0.06c0-0.01,0.01-0.02,0.01-0.03C5.44,9.6,5.45,9.57,5.45,9.57C5.47,9.53,5.48,9.49,5.5,9.46
				C5.54,9.38,5.59,9.3,5.64,9.22C5.69,9.15,5.73,9.07,5.79,9c-0.01,0,0.01-0.01,0,0c0-0.01,0.01-0.02,0.02-0.03
				c0.01-0.02,0.03-0.03,0.04-0.05c0.03-0.04,0.06-0.07,0.09-0.11C5.99,8.75,6,8.65,5.94,8.6S5.79,8.54,5.73,8.61L5.73,8.61z"/>
		</g>
	</g>
	<g>
		<g>
			<path class="st3" d="M5.24,9.72c0.19,0,0.19-0.3,0-0.3C5.05,9.42,5.05,9.72,5.24,9.72L5.24,9.72z"/>
		</g>
	</g>
	<g>
		<g>
			<path class="st3" d="M6.23,8.76C6.5,8.72,6.78,8.77,7.02,8.91c0.27,0.16,0.43,0.43,0.6,0.69c0.18,0.28,0.36,0.56,0.54,0.84
				c0.18,0.27,0.34,0.55,0.42,0.87c0.05,0.19,0.34,0.11,0.29-0.08c-0.09-0.34-0.27-0.64-0.45-0.94C8.21,9.97,8,9.65,7.79,9.32
				C7.61,9.05,7.43,8.8,7.13,8.64c-0.27-0.15-0.59-0.21-0.9-0.17C6.15,8.48,6.08,8.53,6.08,8.61S6.15,8.78,6.23,8.76L6.23,8.76z"/>
		</g>
	</g>
	<g>
		<g>
			<path class="st3" d="M9.59,13.51c0.01-0.26,0.02-0.53-0.02-0.79c-0.04-0.26-0.12-0.51-0.2-0.76c-0.07-0.24-0.23-0.4-0.34-0.62
				c-0.12-0.24-0.22-0.49-0.32-0.73c-0.09,0.05-0.17,0.1-0.26,0.15c0.26,0.48,0.52,0.96,0.8,1.43c0.1,0.17,0.36,0.02,0.26-0.15
				c-0.28-0.47-0.54-0.95-0.8-1.43c-0.09-0.17-0.33-0.02-0.26,0.15c0.1,0.22,0.19,0.45,0.29,0.67c0.1,0.21,0.27,0.39,0.34,0.61
				c0.07,0.22,0.15,0.45,0.19,0.68c0.05,0.26,0.03,0.53,0.02,0.79C9.28,13.7,9.58,13.7,9.59,13.51L9.59,13.51z"/>
		</g>
	</g>
	<g>
		<g>
			<path class="st3" d="M9.71,13.39c-0.05-0.45,0.14-0.94,0.3-1.35c0.17-0.45,0.38-0.88,0.61-1.29c0.21-0.37,0.41-0.75,0.85-0.89
				c0.24-0.07,0.48-0.1,0.7,0.04c0.19,0.12,0.31,0.32,0.4,0.53c0.06,0.14,0.31,0.14,0.29-0.04c-0.04-0.54-0.4-0.98-0.97-0.9
				c-0.55,0.07-1.16,0.34-1.36,0.9c-0.06,0.17,0.18,0.25,0.27,0.12s0.2-0.19,0.35-0.23c-0.05-0.08-0.1-0.17-0.15-0.25
				c-0.17,0.18-0.35,0.36-0.5,0.56c-0.15,0.19-0.24,0.42-0.33,0.65c-0.21,0.5-0.38,1.01-0.54,1.53c-0.06,0.18,0.23,0.26,0.29,0.08
				c0.15-0.47,0.31-0.94,0.49-1.39c0.09-0.22,0.18-0.48,0.33-0.67c0.15-0.19,0.32-0.36,0.48-0.53c0.1-0.11,0-0.28-0.15-0.25
				c-0.23,0.05-0.4,0.17-0.53,0.36c0.09,0.04,0.18,0.08,0.27,0.12c0.14-0.4,0.59-0.56,0.98-0.65c0.2-0.05,0.41-0.06,0.57,0.1
				c0.13,0.13,0.18,0.31,0.2,0.49c0.1-0.01,0.2-0.03,0.29-0.04c-0.18-0.44-0.51-0.86-1.03-0.86s-0.96,0.3-1.23,0.72
				c-0.31,0.48-0.56,1-0.77,1.52c-0.11,0.27-0.21,0.55-0.28,0.84c-0.07,0.26-0.14,0.54-0.11,0.82C9.42,13.58,9.72,13.58,9.71,13.39
				L9.71,13.39z"/>
		</g>
	</g>
	<g>
		<g>
			<path class="st3" d="M3.11,13.51c-0.19-0.02-0.37-0.06-0.55-0.11c-0.09-0.03-0.17-0.05-0.26-0.08c-0.07-0.02-0.16-0.04-0.21-0.09
				c-0.02,0.08-0.04,0.17-0.07,0.25c0.06-0.02,0.12,0,0.18,0.02c0.07,0.02,0.15,0.04,0.22,0.06c0.16,0.03,0.32,0.03,0.49,0.05
				c0.08,0.01,0.21,0.04,0.23,0.13c0.01,0.03,0,0.07,0.01,0.1c0.02,0.04,0.04,0.08,0.08,0.1c0.08,0.04,0.19,0.02,0.27,0.02
				c-0.03-0.09-0.05-0.19-0.08-0.28c-0.19,0.12-0.38,0.31-0.3,0.55c0.04,0.11,0.17,0.15,0.25,0.07c0.05-0.04,0.09-0.09,0.14-0.13
				c0.12-0.12-0.04-0.34-0.18-0.24c-0.26,0.19-0.39,0.5-0.34,0.82c0.02,0.15,0.26,0.14,0.29,0c0.04-0.2,0.12-0.37,0.24-0.53
				c0.05-0.06,0.01-0.17-0.05-0.21C3.39,13.97,3.31,14,3.26,14.06c-0.13,0.18-0.23,0.39-0.27,0.6c0.1,0,0.19,0,0.29,0
				c-0.03-0.18,0.06-0.38,0.2-0.49c-0.06-0.08-0.12-0.16-0.18-0.24C3.27,14,3.22,14.04,3.17,14.09c0.08,0.02,0.17,0.04,0.25,0.07
				c-0.03-0.1,0.09-0.17,0.16-0.22c0.12-0.08,0.08-0.28-0.08-0.28c-0.06,0-0.13,0-0.19,0c0.03,0.01,0.05,0.01,0.08,0.02
				c-0.01,0-0.01-0.01-0.02-0.01c0.02,0.03,0.05,0.06,0.07,0.09c-0.01-0.02-0.01-0.06-0.01-0.08c-0.01-0.03-0.02-0.06-0.03-0.09
				c-0.03-0.06-0.08-0.11-0.13-0.15C3.15,13.33,3,13.31,2.85,13.3s-0.29-0.02-0.44-0.06s-0.3-0.11-0.46-0.06
				c-0.11,0.04-0.14,0.16-0.07,0.25c0.07,0.08,0.17,0.11,0.26,0.14c0.1,0.03,0.21,0.07,0.31,0.1c0.21,0.06,0.43,0.11,0.65,0.13
				c0.08,0.01,0.15-0.07,0.15-0.15C3.26,13.58,3.19,13.52,3.11,13.51L3.11,13.51z"/>
		</g>
	</g>
	<g>
		<g>
			<path class="st3" d="M1.9,13.58c0.03-0.26,0.11-0.49,0.24-0.71c-0.09-0.04-0.18-0.08-0.27-0.12c-0.05,0.27-0.12,0.53-0.21,0.79
				c0.1,0.01,0.2,0.03,0.29,0.04c0.03-0.43,0.21-0.83,0.37-1.22c0.18-0.44,0.37-0.88,0.56-1.32c0.18-0.41,0.37-0.81,0.57-1.21
				c0.2-0.42,0.41-0.8,0.79-1.08C4.17,8.7,4.1,8.64,4.03,8.58C3.95,8.79,3.79,8.95,3.66,9.12C3.54,9.28,3.44,9.44,3.34,9.61
				c-0.2,0.33-0.38,0.68-0.55,1.03C2.44,11.35,2.17,12.09,2,12.87c-0.04,0.19,0.25,0.27,0.29,0.08c0.18-0.81,0.47-1.58,0.84-2.32
				c0.17-0.35,0.35-0.7,0.56-1.03c0.2-0.32,0.5-0.58,0.62-0.94C4.36,8.55,4.2,8.42,4.09,8.49C3.74,8.76,3.5,9.08,3.3,9.47
				c-0.24,0.47-0.46,0.94-0.67,1.42c-0.2,0.45-0.39,0.9-0.57,1.35c-0.18,0.44-0.36,0.87-0.4,1.35c-0.01,0.18,0.24,0.19,0.29,0.04
				c0.09-0.26,0.16-0.52,0.21-0.79c0.03-0.16-0.18-0.27-0.27-0.12c-0.16,0.27-0.25,0.55-0.28,0.87C1.58,13.77,1.89,13.77,1.9,13.58
				L1.9,13.58z"/>
		</g>
	</g>
	<g>
		<g>
			<path class="st3" d="M4.36,8.66c0.21-0.16,0.46-0.27,0.72-0.3c0.13-0.01,0.26-0.01,0.37,0.07C5.54,8.5,5.61,8.59,5.68,8.69
				c0.05,0.07,0.13,0.1,0.21,0.05C5.95,8.7,5.98,8.6,5.94,8.54C5.85,8.41,5.75,8.28,5.62,8.19C5.48,8.08,5.3,8.05,5.13,8.06
				C4.8,8.08,4.47,8.2,4.21,8.4c-0.07,0.05-0.1,0.13-0.06,0.2C4.19,8.67,4.29,8.71,4.36,8.66L4.36,8.66z"/>
		</g>
	</g>
	<g>
		<g>
			<path class="st3" d="M1.64,15.85c-0.06-0.72,0.03-1.45,0.26-2.13c0.06-0.18-0.23-0.26-0.29-0.08c-0.24,0.71-0.34,1.47-0.27,2.21
				C1.35,16.04,1.66,16.04,1.64,15.85L1.64,15.85z"/>
		</g>
	</g>
	<g>
		<g>
			<path class="st3" d="M3.11,16.37c0.02-0.59,0.16-1.17,0.3-1.74c0.04-0.16-0.19-0.27-0.27-0.12c-0.3,0.52-0.25,1.13-0.18,1.71
				C2.96,16.3,3.02,16.37,3.11,16.37c0.07,0,0.15-0.07,0.14-0.15c-0.06-0.52-0.13-1.08,0.14-1.56c-0.09-0.04-0.18-0.08-0.27-0.12
				c-0.15,0.6-0.29,1.2-0.31,1.82C2.8,16.57,3.1,16.57,3.11,16.37L3.11,16.37z"/>
		</g>
	</g>
	<g>
		<g>
			<path class="st3" d="M14.13,12.94c0.25,0.01,0.51,0.01,0.76,0.03c0.11,0.01,0.22,0.05,0.33,0.07c0.06,0.01,0.11,0.02,0.17,0.02
				c0.04,0,0.11,0,0.15,0.02c-0.02-0.02-0.04-0.04-0.05-0.05c0,0,0,0.01,0.01,0.01c0-0.05,0-0.1,0-0.15l-0.01,0.01
				c0.02-0.02,0.04-0.04,0.05-0.05c-0.03,0.02-0.11-0.01-0.14-0.01c-0.08-0.01-0.15-0.02-0.23-0.02c-0.15-0.01-0.3-0.01-0.46,0
				c-0.19,0.01-0.19,0.31,0,0.3s0.37-0.01,0.56,0.01c0.17,0.02,0.36,0.08,0.48-0.08c0.03-0.04,0.02-0.11,0-0.15
				c-0.06-0.13-0.26-0.12-0.38-0.13s-0.24-0.06-0.36-0.08c-0.28-0.04-0.58-0.03-0.86-0.04C13.94,12.63,13.94,12.93,14.13,12.94
				L14.13,12.94z"/>
		</g>
	</g>
	<g>
		<g>
			<path class="st3" d="M13.03,10.43c0.01-0.04,0.03-0.07,0.04-0.11c0-0.01,0.01-0.03,0.01-0.04c0.02-0.04,0-0.03-0.05,0.02
				c-0.04-0.01-0.07-0.03-0.11-0.04c0.08-0.11,0.07-0.16,0-0.16c-0.02,0-0.04,0-0.06,0c-0.05,0-0.08,0.02-0.13,0.04
				c0.07,0.06,0.15,0.11,0.22,0.17c-0.01,0.01-0.02,0.02-0.03,0.03c-0.06-0.02-0.11-0.05-0.17-0.07l0,0
				c0.02,0.11,0.14,0.12,0.22,0.09c0.17-0.07,0.31-0.2,0.5-0.22c0.14-0.01,0.38-0.05,0.47,0.1c0.06-0.07,0.11-0.15,0.17-0.22
				C14,9.99,13.87,9.97,13.74,9.95c0.01,0.09,0.02,0.18,0.04,0.27c-0.04,0.02-0.03,0.01,0,0.04c0.02,0.02,0.05,0.03,0.07,0.04
				c0.05,0.03,0.09,0.05,0.14,0.08c0.09,0.06,0.18,0.12,0.26,0.19c0.18,0.17,0.28,0.38,0.38,0.59c0.11,0.23,0.22,0.46,0.31,0.69
				c0.09,0.22,0.13,0.48,0.26,0.68c0.11,0.16,0.37,0.01,0.26-0.15c-0.08-0.12-0.11-0.25-0.15-0.38c-0.05-0.14-0.1-0.27-0.16-0.41
				c-0.11-0.27-0.24-0.54-0.38-0.8c-0.12-0.23-0.28-0.42-0.49-0.57c-0.1-0.08-0.21-0.14-0.33-0.2c-0.11-0.06-0.22-0.13-0.34-0.06
				c-0.1,0.06-0.1,0.25,0.04,0.27c0.13,0.02,0.26,0.04,0.39,0.06c0.12,0.02,0.25-0.1,0.17-0.22c-0.14-0.22-0.39-0.26-0.64-0.25
				c-0.13,0.01-0.26,0.02-0.38,0.07c-0.13,0.06-0.24,0.14-0.37,0.2c0.07,0.03,0.15,0.06,0.22,0.09c0-0.03-0.01-0.05-0.03-0.07
				c-0.04-0.06-0.1-0.09-0.17-0.07c-0.1,0.03-0.16,0.09-0.18,0.18c-0.04,0.14,0.11,0.22,0.22,0.17c0,0,0.08,0.01,0.1,0.01
				c0.06-0.01,0.11-0.03,0.15-0.07c0.07-0.07,0.08-0.19,0.01-0.27c-0.06-0.07-0.17-0.08-0.25-0.03c-0.1,0.07-0.13,0.21-0.16,0.32
				C12.68,10.53,12.97,10.61,13.03,10.43L13.03,10.43z"/>
		</g>
	</g>
	<g>
		<g>
			<path class="st3" d="M15.05,11.81c-0.01,0.1,0.03,0.19,0.06,0.29c0.03,0.09,0.06,0.17,0.07,0.26c0.04,0.2,0.16,0.38,0.26,0.56
				c0.03,0.06,0.11,0.09,0.17,0.07c0.07-0.02,0.11-0.08,0.11-0.14c0.01-0.1-0.05-0.21-0.07-0.31c-0.03-0.1-0.05-0.2-0.11-0.29
				c-0.1-0.17-0.36-0.02-0.26,0.15c0.04,0.06,0.05,0.15,0.08,0.22c0.01,0.04,0.02,0.08,0.04,0.12c0.01,0.04,0.03,0.08,0.03,0.11
				c0.09-0.03,0.19-0.05,0.28-0.08c-0.09-0.16-0.2-0.31-0.23-0.49c-0.02-0.08-0.04-0.17-0.07-0.25s-0.06-0.15-0.06-0.22
				c0-0.08-0.07-0.15-0.15-0.15C15.12,11.66,15.06,11.73,15.05,11.81L15.05,11.81z"/>
		</g>
	</g>
	<g>
		<g>
			<path class="st3" d="M12.69,10.66c0.26,0.31,0.49,0.65,0.67,1.01c0.09,0.18,0.17,0.36,0.25,0.55c0.07,0.19,0.13,0.39,0.24,0.56
				c0.1,0.16,0.36,0.01,0.26-0.15c-0.11-0.17-0.16-0.38-0.24-0.57c-0.08-0.2-0.17-0.39-0.26-0.58c-0.19-0.37-0.43-0.72-0.7-1.03
				C12.77,10.3,12.56,10.51,12.69,10.66L12.69,10.66z"/>
		</g>
	</g>
	<g>
		<g>
			<path class="st3" d="M11.28,14.02c0-0.32,0.12-0.66,0.21-0.97s0.2-0.61,0.32-0.9c0.12-0.28,0.27-0.56,0.42-0.82
				c0.16-0.28,0.33-0.57,0.57-0.79c-0.08-0.02-0.17-0.04-0.25-0.07c0.01,0.06-0.1,0.18-0.12,0.23c-0.03,0.06-0.07,0.12-0.1,0.17
				c-0.08,0.14-0.15,0.27-0.23,0.41c-0.13,0.26-0.26,0.52-0.37,0.79c-0.24,0.57-0.43,1.16-0.56,1.77c-0.04,0.19,0.25,0.27,0.29,0.08
				c0.15-0.64,0.35-1.28,0.62-1.88c0.13-0.28,0.27-0.56,0.42-0.83c0.08-0.14,0.16-0.27,0.24-0.41c0.08-0.14,0.15-0.24,0.12-0.4
				c-0.02-0.12-0.17-0.14-0.25-0.07c-0.24,0.22-0.42,0.51-0.59,0.79c-0.18,0.3-0.34,0.61-0.48,0.93c-0.13,0.31-0.25,0.62-0.34,0.94
				c-0.09,0.33-0.21,0.68-0.21,1.02C10.98,14.22,11.28,14.22,11.28,14.02L11.28,14.02z"/>
		</g>
	</g>
	<g>
		<g>
			<path class="st3" d="M14.04,13.07c0,0.3,0.05,0.6,0.15,0.88c0.04,0.1,0.17,0.16,0.25,0.07c0.07-0.09,0.1-0.18,0.09-0.29
				s-0.07-0.21-0.07-0.33c0-0.2-0.28-0.19-0.3,0c-0.03,0.26,0.02,0.52,0.08,0.77c0.05,0.24,0.11,0.5,0.07,0.75
				c0.1,0.01,0.2,0.03,0.29,0.04c0.04-0.37,0.06-0.75,0.06-1.13c0-0.19-0.3-0.19-0.3,0c0,0.38-0.03,0.75-0.06,1.13
				c-0.02,0.17,0.27,0.21,0.29,0.04c0.09-0.55-0.19-1.06-0.13-1.6c-0.1,0-0.2,0-0.3,0c0,0.09,0.02,0.17,0.05,0.25
				c0.01,0.03,0.05,0.12,0.02,0.16c0.08,0.02,0.17,0.04,0.25,0.07c-0.1-0.26-0.14-0.52-0.14-0.8
				C14.34,12.88,14.04,12.88,14.04,13.07L14.04,13.07z"/>
		</g>
	</g>
	<g>
		<g>
			<path class="st3" d="M15.6,13.07c0.07,0.19,0.16,0.36,0.23,0.55c0.07,0.19,0.12,0.38,0.16,0.58c0.07,0.39,0.07,0.8,0,1.19
				c0.1,0.01,0.2,0.03,0.29,0.04c-0.04-0.39,0-0.78-0.06-1.17c-0.03-0.19-0.32-0.11-0.29,0.08c0.06,0.36,0.01,0.73,0.05,1.09
				c0.01,0.16,0.26,0.22,0.29,0.04c0.08-0.42,0.08-0.85,0.02-1.27c-0.03-0.21-0.08-0.42-0.16-0.62c-0.07-0.2-0.17-0.39-0.24-0.59
				C15.83,12.81,15.54,12.89,15.6,13.07L15.6,13.07z"/>
		</g>
	</g>
	<g>
		<g>
			<path class="st3" d="M11.24,14.51c0.33,0.03,0.63,0.23,0.94,0.34c0.28,0.1,0.57,0.18,0.87,0.23c0.63,0.11,1.28,0.1,1.89,0.3
				c0.14,0.05,0.26-0.16,0.15-0.25c-0.23-0.19-0.58-0.27-0.86-0.36c-0.33-0.09-0.67-0.15-1.01-0.21c-0.68-0.12-1.39-0.19-2.03-0.45
				c0,0.1,0,0.19,0,0.29c0.14-0.06,0.41,0.04,0.55,0.06c0.19,0.03,0.37,0.07,0.55,0.13c0-0.1,0-0.19,0-0.29
				c-0.38,0.06-0.75,0.11-1.13,0.14c-0.19,0.02-0.19,0.32,0,0.3c0.41-0.03,0.81-0.08,1.21-0.15c0.15-0.02,0.13-0.25,0-0.29
				c-0.23-0.06-0.46-0.11-0.69-0.15c-0.17-0.03-0.41-0.11-0.57-0.04c-0.14,0.06-0.14,0.23,0,0.29c0.6,0.24,1.26,0.32,1.89,0.43
				c0.32,0.06,0.63,0.1,0.94,0.18c0.17,0.04,0.33,0.09,0.49,0.14c0.15,0.05,0.33,0.09,0.45,0.19c0.05-0.08,0.1-0.17,0.15-0.25
				c-0.63-0.21-1.31-0.18-1.96-0.31c-0.32-0.06-0.63-0.15-0.93-0.27c-0.3-0.11-0.57-0.27-0.89-0.31
				C11.05,14.19,11.05,14.49,11.24,14.51L11.24,14.51z"/>
		</g>
	</g>
	<g>
		<g>
			<path class="st3" d="M12.42,14.63c0.19,0,0.19-0.3,0-0.3C12.22,14.33,12.22,14.63,12.42,14.63L12.42,14.63z"/>
		</g>
	</g>
	<g>
		<g>
			<path class="st3" d="M12.53,14.63c0.19,0,0.19-0.3,0-0.3C12.33,14.33,12.33,14.63,12.53,14.63L12.53,14.63z"/>
		</g>
	</g>
	<g>
		<g>
			<path class="st3" d="M13.8,15.24c0.55,0.03,1.1,0.09,1.64,0.17c0.28,0.04,0.56,0.09,0.84,0.13c0.12,0.02,0.23,0.04,0.35,0.06
				c0.06,0.01,0.12,0.02,0.17,0.04c0.04,0.01,0.08,0.02,0.11,0.03c0.05,0.03,0.07,0.03,0.05,0.01c0.01,0.01-0.1,0.04-0.14,0.04
				c-0.07,0-0.14-0.01-0.21-0.02c-0.12-0.01-0.24-0.02-0.37-0.04c-0.26-0.03-0.52-0.08-0.77-0.15c-0.48-0.12-0.92-0.35-1.42-0.39
				c0,0.1,0,0.2,0,0.3c0.99-0.02,1.94,0.31,2.92,0.37c0.19,0.01,0.19-0.29,0-0.3c-0.98-0.06-1.93-0.39-2.92-0.37
				c-0.19,0-0.19,0.29,0,0.3c0.32,0.02,0.6,0.15,0.9,0.25c0.29,0.1,0.59,0.17,0.89,0.23c0.29,0.05,0.59,0.09,0.89,0.11
				c0.13,0.01,0.27,0.03,0.38-0.07c0.08-0.07,0.15-0.18,0.16-0.29c0.01-0.27-0.37-0.31-0.56-0.35c-0.31-0.06-0.62-0.11-0.93-0.16
				c-0.66-0.1-1.31-0.19-1.98-0.22C13.61,14.93,13.61,15.23,13.8,15.24L13.8,15.24z"/>
		</g>
	</g>
	<g>
		<g>
			<path class="st3" d="M15.9,20.51c0.45,0.05,0.88,0.23,1.31,0.37c0.45,0.15,0.91,0.3,1.36,0.45c0.18,0.06,0.26-0.23,0.08-0.29
				c-0.47-0.15-0.94-0.31-1.41-0.46c-0.44-0.14-0.88-0.31-1.34-0.36C15.71,20.19,15.71,20.49,15.9,20.51L15.9,20.51z"/>
		</g>
	</g>
	<g>
		<g>
			<path class="st3" d="M16.83,17.46c0.34-0.01,0.67,0.05,1,0.13c0.16,0.04,0.32,0.09,0.48,0.14c0.08,0.03,0.17,0.05,0.25,0.08
				c0.04,0.01,0.09,0.03,0.11,0.07c0.06-0.07,0.11-0.15,0.17-0.22c-0.49-0.1-0.99-0.2-1.48-0.3c-0.19-0.04-0.27,0.25-0.08,0.29
				c0.49,0.1,0.99,0.2,1.48,0.3c0.13,0.03,0.22-0.1,0.17-0.22c-0.07-0.15-0.25-0.2-0.39-0.24c-0.18-0.06-0.37-0.11-0.55-0.16
				c-0.38-0.1-0.76-0.17-1.15-0.16C16.64,17.16,16.64,17.46,16.83,17.46L16.83,17.46z"/>
		</g>
	</g>
	<g>
		<g>
			<path class="st3" d="M16.44,17.3c-0.3,0.95-0.35,1.96-0.4,2.95c0.09-0.04,0.17-0.07,0.26-0.11c-0.08-0.1-0.17-0.17-0.28-0.24
				c-0.1-0.06-0.22,0.02-0.23,0.13c0,0.01-0.01,0.02-0.01,0.04c0.09,0.04,0.17,0.07,0.26,0.11c0-0.19,0.09-0.36,0.13-0.55
				c0.04-0.18,0.05-0.37,0.08-0.55c0.06-0.35,0.16-0.7,0.26-1.05c0.19-0.68,0.43-1.34,0.8-1.94c0.04-0.07,0.01-0.17-0.05-0.21
				c-0.27-0.16-0.47,0.24-0.56,0.44c-0.14,0.31-0.16,0.64-0.11,0.97c0.03,0.19,0.32,0.11,0.29-0.08c-0.03-0.2-0.03-0.39,0.02-0.59
				c0.03-0.11,0.14-0.47,0.28-0.49c-0.04-0.01-0.08-0.01-0.12-0.02c0.01,0.01,0.02,0.01,0.03,0.02c-0.02-0.07-0.04-0.14-0.05-0.21
				c-0.39,0.62-0.63,1.31-0.83,2.01c-0.11,0.37-0.22,0.75-0.27,1.13c-0.03,0.18-0.04,0.37-0.08,0.55c-0.04,0.19-0.12,0.36-0.12,0.55
				c0,0.12,0.17,0.21,0.26,0.11c0.07-0.08,0.09-0.14,0.1-0.25c-0.08,0.04-0.15,0.09-0.23,0.13c0.09,0.05,0.16,0.12,0.22,0.19
				c0.09,0.11,0.25,0.01,0.26-0.11c0.04-0.97,0.1-1.94,0.39-2.87C16.78,17.19,16.49,17.11,16.44,17.3L16.44,17.3z"/>
		</g>
	</g>
	<g>
		<g>
			<path class="st3" d="M18.29,20.98c-0.03-0.55,0.09-1.07,0.24-1.59c0.15-0.53,0.32-1.06,0.55-1.56c0.06-0.14-0.11-0.32-0.24-0.18
				c-0.35,0.38-0.57,0.93-0.7,1.43c-0.08,0.28-0.07,0.57-0.08,0.85c0,0.33,0,0.65,0,0.98c0.1,0,0.2,0,0.3,0
				c-0.01-0.39,0.05-0.77,0.18-1.14c0.06-0.18-0.23-0.26-0.29-0.08c-0.13,0.39-0.19,0.8-0.19,1.22c0,0.19,0.3,0.19,0.3,0
				c0-0.29,0-0.59,0-0.88c0-0.27-0.01-0.55,0.05-0.81c0.06-0.24,0.15-0.47,0.25-0.69c0.1-0.24,0.22-0.47,0.39-0.66
				c-0.08-0.06-0.16-0.12-0.24-0.18c-0.24,0.53-0.43,1.07-0.58,1.63c-0.15,0.55-0.28,1.1-0.25,1.67C18,21.17,18.3,21.17,18.29,20.98
				L18.29,20.98z"/>
		</g>
	</g>
	<g>
		<g>
			<path class="st3" d="M17.3,16.05c0.29-0.02,0.57,0.08,0.85,0.16s0.56,0.16,0.83,0.27c0.04,0.01,0.11,0.03,0.12,0.08
				c0,0.04-0.06,0.13-0.08,0.16c-0.06,0.12-0.12,0.23-0.17,0.36c-0.11,0.25-0.19,0.51-0.22,0.79c-0.01,0.07,0.06,0.14,0.13,0.15
				c0.08,0.01,0.14-0.04,0.16-0.11c0.17-0.41,0.4-0.81,0.68-1.16c0.05-0.07,0.07-0.19-0.03-0.24c-0.19-0.09-0.39-0.17-0.59-0.24
				c-0.19-0.06-0.4-0.07-0.59-0.14s-0.38-0.15-0.58-0.2s-0.41-0.08-0.62-0.08c-0.19-0.01-0.19,0.29,0,0.3
				c0.2,0.01,0.39,0.03,0.58,0.08c0.18,0.05,0.36,0.12,0.54,0.19c0.18,0.06,0.36,0.08,0.55,0.13c0.19,0.05,0.38,0.14,0.56,0.22
				c-0.01-0.08-0.02-0.16-0.03-0.24c-0.31,0.4-0.56,0.83-0.76,1.29c0.1,0.01,0.2,0.03,0.29,0.04c0.04-0.31,0.16-0.6,0.29-0.88
				c0.06-0.12,0.17-0.27,0.18-0.41s-0.09-0.26-0.21-0.33c-0.13-0.07-0.29-0.11-0.43-0.16c-0.16-0.05-0.31-0.1-0.47-0.14
				c-0.32-0.09-0.65-0.22-0.99-0.19C17.11,15.77,17.11,16.07,17.3,16.05L17.3,16.05z"/>
		</g>
	</g>
	<g>
		<g>
			<path class="st3" d="M20.01,11.07c-0.98,0-1.47,1.06-1.8,1.83c-0.19,0.45-0.35,0.9-0.49,1.37c-0.08,0.25-0.15,0.51-0.22,0.76
				c-0.03,0.12-0.07,0.24-0.1,0.36c-0.02,0.05-0.03,0.11-0.05,0.16c-0.01,0.04-0.02,0.08-0.04,0.12c-0.02,0.05-0.02,0.05,0.02,0.01
				c0.05,0.01,0.1,0.03,0.15,0.04c-0.12-0.1-0.09-0.35-0.08-0.49c0.01-0.18,0.05-0.35,0.1-0.52c0.09-0.33,0.22-0.66,0.36-0.97
				c0.27-0.6,0.62-1.16,1.05-1.66c-0.08-0.05-0.17-0.1-0.25-0.15c-0.22,0.58-0.65,1.06-0.89,1.64c-0.25,0.61-0.32,1.27-0.53,1.89
				c-0.06,0.18,0.23,0.26,0.29,0.08c0.21-0.63,0.28-1.3,0.54-1.91c0.24-0.57,0.66-1.04,0.88-1.62c0.05-0.14-0.16-0.26-0.25-0.15
				c-0.45,0.52-0.82,1.1-1.1,1.72c-0.26,0.58-0.56,1.27-0.5,1.92c0.01,0.17,0.09,0.52,0.33,0.46c0.09-0.02,0.13-0.1,0.16-0.18
				c0.07-0.18,0.11-0.38,0.16-0.56c0.2-0.69,0.4-1.39,0.67-2.06c0.28-0.68,0.71-1.8,1.59-1.79C20.2,11.37,20.2,11.07,20.01,11.07
				L20.01,11.07z"/>
		</g>
	</g>
	<g>
		<g>
			<path class="st3" d="M19.34,11.8c0.17-0.05,0.34-0.08,0.51-0.1c0.02,0,0.03,0,0.05,0c0.04,0,0-0.01,0.02,0
				c0.02,0.02,0.04,0.04,0.06,0.06c0.05,0.05,0.11,0.11,0.16,0.17c0.19,0.21,0.36,0.44,0.42,0.73c0.01,0.07,0.1,0.12,0.16,0.11
				c0.08-0.01,0.12-0.07,0.13-0.15c0.03-0.32-0.07-0.65-0.26-0.91c-0.2-0.28-0.53-0.52-0.89-0.48c-0.08,0.01-0.15,0.06-0.15,0.15
				c0,0.08,0.07,0.15,0.15,0.15c0.16-0.01,0.31,0.03,0.45,0.1c0.1,0.06,0.22-0.02,0.23-0.13c0.01-0.15-0.09-0.26-0.22-0.31
				c-0.06-0.02-0.14,0.02-0.17,0.07c-0.04,0.06-0.02,0.13,0.02,0.18c0.09,0.11,0.19,0.23,0.28,0.34c0.05,0.06,0.16,0.05,0.21,0
				c0.06-0.06,0.05-0.15,0-0.21c-0.09-0.11-0.19-0.23-0.28-0.34c-0.05,0.08-0.1,0.17-0.15,0.25c-0.01,0-0.01,0.03,0,0.02
				c0.08-0.04,0.15-0.09,0.23-0.13c-0.19-0.1-0.39-0.15-0.61-0.15c0,0.1,0,0.2,0,0.3c0.27-0.03,0.51,0.16,0.66,0.37
				c0.15,0.22,0.21,0.47,0.19,0.73c0.1-0.01,0.2-0.03,0.29-0.04c-0.07-0.35-0.29-0.64-0.53-0.9c-0.12-0.13-0.24-0.29-0.44-0.28
				c-0.21,0.01-0.42,0.06-0.62,0.11C19.08,11.56,19.16,11.85,19.34,11.8L19.34,11.8z"/>
		</g>
	</g>
	<g>
		<g>
			<path class="st3" d="M19.25,16.12c-0.28-0.09-0.57-0.16-0.86-0.22c-0.14-0.03-0.28-0.06-0.42-0.08
				c-0.11-0.02-0.33-0.01-0.42-0.08c0.02,0.04,0.05,0.09,0.07,0.13c0-0.01,0-0.02,0-0.03c-0.02,0.04-0.05,0.09-0.07,0.13
				c0.03-0.03,0.21,0.03,0.26,0.03c0.07,0.01,0.15,0.02,0.22,0.03c0.15,0.02,0.29,0.04,0.44,0.07c0.15,0.03,0.31,0.07,0.45,0.14
				c0.07,0.03,0.43,0.18,0.41,0.26c0.1,0,0.19,0,0.29,0c-0.05-0.28,0.11-0.62,0.22-0.87c0.12-0.28,0.25-0.55,0.38-0.83
				c0.12-0.26,0.23-0.53,0.33-0.8c0.1-0.3,0.24-0.58,0.37-0.86c0.07-0.16,0.12-0.42-0.09-0.52c-0.24-0.11-0.28,0.18-0.37,0.32
				c-0.16,0.23-0.3,0.47-0.41,0.73c-0.11,0.27-0.18,0.55-0.27,0.83c-0.19,0.62-0.54,1.19-0.65,1.83c0.1,0.01,0.2,0.03,0.29,0.04
				c0.05-0.41,0.24-0.78,0.42-1.15c0.19-0.39,0.38-0.78,0.58-1.17c0.09-0.17-0.17-0.32-0.26-0.15c-0.21,0.43-0.43,0.86-0.64,1.3
				c-0.18,0.38-0.35,0.75-0.4,1.17c-0.02,0.17,0.26,0.21,0.29,0.04c0.12-0.65,0.47-1.23,0.66-1.86c0.1-0.33,0.19-0.66,0.34-0.97
				c0.07-0.13,0.15-0.26,0.23-0.38c0.04-0.06,0.09-0.12,0.13-0.19c0.03-0.05,0.03-0.12,0.07-0.17c-0.04,0.02-0.09,0.05-0.13,0.07
				c-0.07,0.01-0.2,0.37-0.24,0.45c-0.07,0.14-0.12,0.29-0.17,0.44c-0.12,0.34-0.25,0.67-0.4,0.99c-0.14,0.3-0.28,0.6-0.4,0.9
				c-0.11,0.29-0.23,0.6-0.17,0.91c0.03,0.14,0.26,0.14,0.29,0c0.04-0.22-0.07-0.33-0.25-0.44c-0.2-0.12-0.41-0.22-0.63-0.29
				c-0.23-0.07-0.47-0.1-0.71-0.13c-0.17-0.02-0.48-0.13-0.63-0.02c-0.04,0.03-0.08,0.08-0.07,0.13c0.02,0.12,0.07,0.18,0.19,0.21
				c0.18,0.05,0.38,0.06,0.56,0.09c0.37,0.07,0.74,0.16,1.1,0.27C19.35,16.47,19.43,16.18,19.25,16.12L19.25,16.12z"/>
		</g>
	</g>
	<g>
		<g>
			<path class="st3" d="M21.76,14.68c0.28,0,0.55,0.05,0.82,0.11c0.27,0.06,0.54,0.15,0.82,0.16c0.24,0.02,0.22-0.19,0.17-0.36
				c-0.06-0.24-0.13-0.48-0.21-0.71c-0.15-0.45-0.36-0.87-0.67-1.23c-0.08-0.09-0.16-0.18-0.21-0.29c-0.05-0.1-0.08-0.22-0.15-0.31
				c-0.11-0.16-0.33-0.32-0.53-0.33c-0.24-0.02-0.52,0.12-0.68,0.29c-0.21,0.22-0.36,0.49-0.51,0.75c0.09,0.04,0.18,0.08,0.27,0.12
				c0.11-0.3,0.22-0.63,0.4-0.9c0.1-0.16,0.29-0.14,0.46-0.15c0.17-0.01,0.34-0.01,0.46,0.13c0.2,0.22,0.32,0.55,0.43,0.82
				c0.14,0.31,0.25,0.64,0.36,0.96c0.11,0.31,0.21,0.62,0.28,0.94c0.03,0.15,0.15,0.62,0.4,0.4c0.09-0.08,0.08-0.23,0.07-0.34
				c-0.02-0.16-0.06-0.32-0.1-0.48c-0.09-0.33-0.2-0.65-0.33-0.97c-0.13-0.33-0.25-0.66-0.41-0.97c-0.07-0.13-0.14-0.26-0.26-0.36
				c-0.12-0.1-0.26-0.16-0.4-0.22c-0.18-0.07-0.26,0.22-0.08,0.29c0.12,0.05,0.24,0.1,0.32,0.2c0.08,0.09,0.14,0.22,0.2,0.33
				c0.12,0.24,0.21,0.49,0.31,0.74s0.19,0.5,0.27,0.76c0.04,0.14,0.08,0.28,0.12,0.42c0.01,0.06,0.03,0.12,0.04,0.18
				c0.01,0.04,0.02,0.08,0.02,0.12c-0.02,0.07,0,0.1,0.06,0.07c0.05,0.01,0.1,0.03,0.15,0.04c-0.08-0.08-0.09-0.28-0.11-0.38
				c-0.03-0.13-0.06-0.26-0.11-0.39c-0.09-0.26-0.18-0.53-0.27-0.79c-0.17-0.48-0.36-0.97-0.63-1.4c-0.11-0.18-0.26-0.32-0.47-0.37
				c-0.22-0.05-0.51-0.03-0.72,0.02c-0.22,0.06-0.33,0.27-0.43,0.45c-0.13,0.25-0.23,0.51-0.33,0.77c-0.06,0.16,0.19,0.26,0.27,0.12
				c0.19-0.34,0.39-0.78,0.79-0.89c0.19-0.05,0.39,0.12,0.47,0.28c0.08,0.17,0.15,0.32,0.27,0.47c0.24,0.29,0.43,0.59,0.57,0.95
				c0.07,0.17,0.13,0.34,0.18,0.52c0.03,0.09,0.05,0.18,0.08,0.27c0.02,0.08,0.07,0.2,0.07,0.28c0.02-0.04,0.05-0.09,0.07-0.13
				c0.02-0.02-0.15-0.04-0.17-0.05c-0.06-0.01-0.12-0.03-0.18-0.04c-0.14-0.03-0.28-0.06-0.43-0.09c-0.28-0.06-0.56-0.1-0.84-0.11
				C21.57,14.38,21.57,14.68,21.76,14.68L21.76,14.68z"/>
		</g>
	</g>
	<g>
		<g>
			<path class="st3" d="M22.08,11.39c-0.09,0-0.19,0-0.28-0.01c-0.1,0-0.2,0-0.3,0.02c-0.08,0.02-0.13,0.11-0.1,0.18
				c0.03,0.08,0.1,0.12,0.18,0.1c0,0,0.05-0.01,0.02,0c-0.02,0.01,0.01,0,0.02,0c0.02,0,0.04,0,0.07,0c0.04,0,0.09,0,0.13,0
				c0.09,0,0.18,0,0.27,0.01c0.08,0,0.15-0.07,0.15-0.15C22.22,11.46,22.16,11.39,22.08,11.39L22.08,11.39z"/>
		</g>
	</g>
	<g>
		<g>
			<path class="st3" d="M20.8,12.69c-0.01,0.22,0.09,0.41,0.16,0.61c0.07,0.19,0.12,0.39,0.16,0.58c0.1,0.4,0.19,0.81,0.38,1.18
				c0.06,0.11,0.25,0.09,0.27-0.04c0.08-0.44-0.06-0.91-0.2-1.33c-0.07-0.21-0.19-0.38-0.28-0.58c-0.08-0.17-0.09-0.36-0.23-0.51
				c-0.13-0.14-0.34,0.07-0.21,0.21c0.1,0.11,0.11,0.3,0.17,0.43c0.09,0.18,0.2,0.34,0.26,0.53c0.06,0.18,0.11,0.37,0.15,0.56
				c0.05,0.2,0.08,0.41,0.05,0.61c0.09-0.01,0.18-0.02,0.27-0.04c-0.18-0.35-0.26-0.73-0.35-1.11c-0.04-0.18-0.09-0.37-0.15-0.54
				c-0.06-0.18-0.17-0.37-0.17-0.57C21.11,12.49,20.81,12.49,20.8,12.69L20.8,12.69z"/>
		</g>
	</g>
	<g>
		<g>
			<path class="st3" d="M21.52,15.12c0.09,0.27,0.19,0.55,0.22,0.83c0.03,0.29,0.02,0.58,0.02,0.87c0,0.19,0.3,0.19,0.3,0
				c-0.01-0.3,0-0.61-0.03-0.91c-0.03-0.3-0.13-0.59-0.23-0.88C21.75,14.86,21.46,14.94,21.52,15.12L21.52,15.12z"/>
		</g>
	</g>
	<g>
		<g>
			<path class="st3" d="M21.59,14.78c-0.02,0.13,0,0.26,0.03,0.39c0.01,0.05,0.03,0.11,0.04,0.16c0.01,0.03,0.01,0.05,0.02,0.08
				c0,0.01,0.01,0.06,0,0.02c0,0.01,0,0.03,0,0.04c0.01,0.08,0.06,0.15,0.15,0.15c0.08,0,0.16-0.07,0.15-0.15
				c-0.01-0.12-0.04-0.23-0.07-0.35c-0.01-0.05-0.03-0.1-0.03-0.15c0-0.02,0-0.01,0,0.01c0-0.01,0-0.01,0-0.02s0-0.02,0-0.03
				c0-0.01,0-0.03,0-0.04s0.01-0.06,0-0.02c0.01-0.04,0.01-0.08-0.02-0.12c-0.02-0.03-0.05-0.06-0.09-0.07
				C21.71,14.65,21.61,14.69,21.59,14.78L21.59,14.78z"/>
		</g>
	</g>
	<g>
		<g>
			<path class="st3" d="M23.35,15.19c0.06,0.12,0.15,0.21,0.26,0.28c0.08,0.05,0.2,0.01,0.22-0.09c0.03-0.15,0.01-0.3-0.08-0.43
				c-0.07-0.1-0.24-0.1-0.27,0.04c-0.1,0.41,0.11,0.77,0.17,1.16c0.06,0.41-0.01,0.84,0.04,1.25c0.01,0.1,0.12,0.2,0.23,0.13
				c0.15-0.11,0.19-0.26,0.2-0.43c0.01-0.21,0-0.42-0.03-0.62c-0.04-0.22-0.12-0.43-0.13-0.65c-0.01-0.19-0.01-0.38-0.11-0.55
				s-0.36-0.02-0.26,0.15c0.08,0.13,0.06,0.29,0.07,0.44c0.02,0.18,0.06,0.35,0.1,0.52s0.06,0.34,0.06,0.52
				c0,0.09,0.03,0.3-0.06,0.37c0.08,0.04,0.15,0.09,0.23,0.13c-0.05-0.4,0.01-0.8-0.03-1.21c-0.02-0.19-0.07-0.37-0.12-0.55
				c-0.05-0.19-0.11-0.39-0.06-0.58c-0.09,0.01-0.18,0.02-0.27,0.04c0.04,0.06,0.07,0.12,0.05,0.2c0.07-0.03,0.15-0.06,0.22-0.09
				c-0.07-0.04-0.12-0.09-0.15-0.17C23.53,14.86,23.27,15.01,23.35,15.19L23.35,15.19z"/>
		</g>
	</g>
	<g>
		<g>
			<path class="st3" d="M19.49,16.26c0,0.15,0.02,0.28,0.07,0.42c0.03,0.08,0.13,0.15,0.22,0.09c0.19-0.13,0.42-0.41,0.17-0.6
				c-0.07-0.05-0.2,0-0.22,0.09c-0.03,0.19-0.04,0.41,0.15,0.52c0.15,0.09,0.42,0.1,0.53-0.05c0.12-0.16,0.02-0.33-0.14-0.42
				c-0.25-0.14-0.43,0.13-0.6,0.29c-0.07,0.06-0.06,0.19,0.03,0.24c0.12,0.06,0.2,0.02,0.32,0.01c0.16-0.01,0.32,0.03,0.48,0.05
				c0.36,0.04,0.72,0.01,1.07,0.07c0.33,0.06,0.66,0.14,0.99,0.2c0.34,0.06,0.67,0.13,0.99,0.26c0.03-0.09,0.05-0.19,0.08-0.28
				c-0.15-0.01-0.23,0.07-0.37,0.11c-0.15,0.05-0.32,0-0.46-0.05c-0.31-0.1-0.6-0.21-0.92-0.27c-0.3-0.06-0.61-0.1-0.92-0.12
				s-0.6-0.04-0.85-0.24c-0.01,0.09-0.02,0.18-0.04,0.27c0.41-0.13,0.83-0.15,1.24-0.04c0.01-0.1,0.03-0.2,0.04-0.29
				c-0.33-0.04-0.66-0.14-0.98-0.24c-0.18-0.06-0.26,0.23-0.08,0.29c0.35,0.11,0.69,0.21,1.06,0.25c0.17,0.02,0.2-0.25,0.04-0.29
				c-0.47-0.12-0.95-0.1-1.4,0.04c-0.13,0.04-0.14,0.2-0.04,0.27c0.23,0.18,0.51,0.24,0.79,0.26c0.35,0.03,0.7,0.05,1.05,0.12
				c0.34,0.07,0.65,0.2,0.99,0.29c0.15,0.04,0.3,0.07,0.45,0.05c0.13-0.02,0.27-0.13,0.4-0.12c0.14,0.01,0.21-0.22,0.08-0.28
				c-0.6-0.26-1.29-0.35-1.94-0.47c-0.35-0.07-0.69-0.07-1.04-0.09c-0.17-0.01-0.33-0.04-0.5-0.06c-0.07-0.01-0.14-0.01-0.2-0.01
				c-0.01,0-0.18,0.03-0.17,0.03c0.01,0.08,0.02,0.16,0.03,0.24c0.05-0.05,0.11-0.1,0.16-0.15c0.01-0.01,0.12-0.1,0.1-0.07
				c0.04,0.02,0.03,0.02-0.01-0.02c-0.02-0.03-0.04-0.04-0.08-0.04c-0.07-0.05-0.06-0.11-0.05-0.19c-0.07,0.03-0.15,0.06-0.22,0.09
				c0.01,0.01,0.02,0.01,0.03,0.02c-0.02-0.03-0.05-0.06-0.07-0.09c0.02,0.05-0.1,0.13-0.13,0.15c0.07,0.03,0.15,0.06,0.22,0.09
				c-0.04-0.11-0.06-0.22-0.06-0.34C19.79,16.07,19.49,16.07,19.49,16.26L19.49,16.26z"/>
		</g>
	</g>
	<g>
		<g>
			<path class="st3" d="M21.66,17.28c0.32,0.01,0.61,0.18,0.94,0.2c0.16,0.01,0.31-0.02,0.45-0.09l0.07-0.03
				c-0.03-0.02-0.05-0.03-0.08-0.05c0,0.01,0,0.01,0.01,0.02c0,0.02,0.01,0.04,0.02,0.06c0.02,0.09,0.05,0.18,0.07,0.27
				c0.05,0.19,0.34,0.11,0.29-0.08c-0.03-0.1-0.05-0.19-0.08-0.29c-0.02-0.09-0.05-0.17-0.14-0.21c-0.16-0.08-0.32,0.07-0.48,0.09
				c-0.17,0.02-0.34-0.03-0.5-0.08c-0.19-0.06-0.37-0.11-0.57-0.12C21.46,16.97,21.46,17.27,21.66,17.28L21.66,17.28z"/>
		</g>
	</g>
</g>
</svg>
