<?xml version="1.0" encoding="utf-8"?>
<!-- Generator: Adobe Illustrator 24.2.1, SVG Export Plug-In . SVG Version: 6.00 Build 0)  -->
<svg version="1.1" id="Layer_1" xmlns="http://www.w3.org/2000/svg" xmlns:xlink="http://www.w3.org/1999/xlink" x="0px" y="0px"
	 viewBox="0 0 35 35" style="enable-background:new 0 0 35 35;" xml:space="preserve">
<style type="text/css">
	.st0{fill-rule:evenodd;clip-rule:evenodd;fill:#FF0000;}
</style>
<path class="st0" d="M26.89,17.88c1.52,0,2.76,1.3,2.76,2.9s-1.23,2.9-2.76,2.9c-1.52,0-2.76-1.3-2.76-2.9
	C24.14,19.18,25.37,17.88,26.89,17.88L26.89,17.88z M0.82,16.43c0-1.81,0.63-1.81,0.95-1.81C3.84,10,4.24,10,5.39,10
	c7.72,0,5.23,0,12.95,0c1.5,0,2.24,0,6.59,4.62c3.03,0,3.83,0.08,6.36,0.47c2.41,0.68,2.72,1.84,2.72,3v0.06h-2.49
	c-0.07,0-0.13,0.06-0.13,0.13s0.06,0.13,0.13,0.13H34c0,2.59-0.06,2.97-1.52,2.97h-2.37c0.03-0.2,0.05-0.4,0.05-0.6
	c0-1.9-1.46-3.43-3.26-3.43c-1.74,0-3.16,1.43-3.26,3.24H11.96c-0.07,0-0.13,0.06-0.13,0.13s0.06,0.13,0.13,0.13h11.68
	c0,0.18,0.02,0.36,0.05,0.53H10.33c0.03-0.2,0.05-0.4,0.05-0.6c0-0.92-0.34-1.75-0.9-2.37h9.44c0.07,0,0.13-0.06,0.13-0.13
	s-0.06-0.13-0.13-0.13H9.2c-0.57-0.5-1.3-0.8-2.09-0.8c-1.8,0-3.26,1.54-3.26,3.43c0,0.2,0.02,0.41,0.05,0.6H3.64
	c-2.39,0-2.76,0-2.81-2.97h2.11c0.07,0,0.13-0.06,0.13-0.13s-0.06-0.13-0.13-0.13H0.83C0.82,17.65,0.82,17.09,0.82,16.43L0.82,16.43
	z M17,14.62l-0.72-3.82h-6.15v3.82H17z M16.54,10.8l0.72,3.82h6.59c-0.57-0.6-1.15-1.19-1.74-1.75c-0.48-0.46-0.99-0.92-1.52-1.31
	c-0.52-0.38-1.01-0.68-1.64-0.74c-0.2-0.02-0.41-0.02-0.61-0.02C18.34,10.8,16.54,10.8,16.54,10.8z M9.88,14.62V10.8H6.32
	c-0.16,0-0.36-0.01-0.51,0.03c-0.28,0.07-0.53,0.45-0.68,0.68c-0.27,0.4-0.5,0.85-0.72,1.28c-0.31,0.6-0.59,1.22-0.87,1.83H9.88z
	 M7.11,17.88c1.52,0,2.76,1.3,2.76,2.9s-1.23,2.9-2.76,2.9c-1.52,0-2.76-1.3-2.76-2.9C4.36,19.18,5.59,17.88,7.11,17.88L7.11,17.88z
	 M7.11,19.21c0.82,0,1.49,0.7,1.49,1.57c0,0.87-0.67,1.57-1.49,1.57c-0.83,0-1.49-0.7-1.49-1.57C5.62,19.92,6.29,19.21,7.11,19.21
	L7.11,19.21z M26.89,19.21c0.82,0,1.49,0.7,1.49,1.57c0,0.87-0.67,1.57-1.49,1.57s-1.49-0.7-1.49-1.57
	C25.4,19.92,26.07,19.21,26.89,19.21L26.89,19.21z"/>
</svg>
