<?xml version="1.0" encoding="utf-8"?>
<!-- Generator: Adobe Illustrator 24.2.1, SVG Export Plug-In . SVG Version: 6.00 Build 0)  -->
<svg version="1.1" id="Layer_1" xmlns="http://www.w3.org/2000/svg" xmlns:xlink="http://www.w3.org/1999/xlink" x="0px" y="0px"
	 viewBox="0 0 35 35" style="enable-background:new 0 0 35 35;" xml:space="preserve">
<style type="text/css">
	.st0{fill:#333333;}
</style>
<path class="st0" d="M9.76,16.23c-0.27-0.14-0.58-0.25-0.89-0.33C8.44,15.79,8,15.73,7.54,15.73c-1.44,0-2.75,0.59-3.7,1.53
	c-0.95,0.95-1.53,2.25-1.53,3.7c0,1.44,0.59,2.74,1.53,3.69c0.95,0.95,2.26,1.53,3.7,1.53s2.75-0.59,3.7-1.53
	c0.63-0.63,1.1-1.43,1.34-2.32h0.93c-0.26,1.14-0.84,2.17-1.63,2.96c-1.12,1.11-2.64,1.8-4.34,1.8s-3.23-0.69-4.34-1.8
	c-1.11-1.11-1.8-2.64-1.8-4.33c0-1.7,0.69-3.23,1.8-4.34s2.64-1.8,4.34-1.8c0.53,0,1.06,0.07,1.56,0.21
	c0.44,0.11,0.86,0.27,1.26,0.48L9.76,16.23z M27.86,22.39c-0.4,0-0.75-0.16-1.01-0.41c-0.26-0.26-0.41-0.63-0.41-1.01
	c0-0.4,0.15-0.75,0.41-1.01c0.07-0.07,0.15-0.14,0.22-0.19l-1.37-5.04l-8.17,5.56c0.08,0.21,0.12,0.44,0.12,0.69
	c0,0.36-0.1,0.7-0.27,0.99l1.04,0.81l0.69-0.18c0.11-0.04,0.23,0.04,0.27,0.15c0.03,0.12-0.04,0.25-0.16,0.29l-1.56,0.41
	c-0.12,0.04-0.25-0.04-0.27-0.15c-0.04-0.12,0.03-0.25,0.15-0.29l0.34-0.08l-0.77-0.6c0,0.01-0.01,0.03-0.03,0.03
	c-0.34,0.36-0.84,0.58-1.37,0.58c-0.55,0-1.03-0.22-1.38-0.58c-0.25-0.25-0.42-0.56-0.52-0.9H8.9c-0.07,0.21-0.19,0.38-0.34,0.55
	c-0.26,0.25-0.62,0.41-1.01,0.41c-0.4,0-0.75-0.16-1.01-0.41C6.28,21.75,6.12,21.38,6.12,21c0-0.4,0.16-0.75,0.42-1.01
	s0.62-0.42,1.01-0.42c0.19,0,0.37,0.04,0.53,0.1l5.14-6.06l-0.37-1.34l-0.97,0.08c-0.07,0-0.12,0.01-0.18,0.01
	c-0.52,0-1-0.21-1.36-0.52c-0.36-0.33-0.6-0.77-0.63-1.25c-0.01-0.04-0.01-0.1-0.01-0.14c0-0.18,0.08-0.34,0.21-0.45
	c0.11-0.1,0.26-0.15,0.41-0.15h4.22c0.47,0,0.9,0.08,1.22,0.27c0.34,0.22,0.55,0.53,0.55,1c0,0.19-0.03,0.38-0.15,0.56
	c-0.12,0.19-0.33,0.32-0.66,0.34l-1.73,0.15l0.29,1.03l10.83-1.45l-0.63-2.3h-1.1c-0.25,0-0.45-0.21-0.45-0.47
	c0-0.25,0.21-0.45,0.45-0.45h3.71c0.56,0,1.07,0.23,1.44,0.6c0.37,0.36,0.59,0.86,0.59,1.43c0,0.56-0.22,1.07-0.59,1.44
	c-0.37,0.37-0.88,0.59-1.44,0.59c-0.25,0-0.45-0.21-0.45-0.45c0-0.25,0.21-0.45,0.45-0.45c0.32,0,0.59-0.12,0.79-0.33
	c0.21-0.21,0.33-0.48,0.33-0.79c0-0.3-0.12-0.59-0.33-0.79c-0.21-0.19-0.48-0.32-0.79-0.32h-1.69l0.7,2.55
	c0,0.01,0.01,0.03,0.01,0.04l0.49,1.84c0.01,0.01,0.01,0.04,0.03,0.05l1.53,5.63c0.37,0.01,0.7,0.18,0.93,0.42
	c0.26,0.26,0.42,0.62,0.42,1.01c0,0.38-0.16,0.75-0.42,1.01C28.61,22.23,28.26,22.39,27.86,22.39L27.86,22.39z M8.76,20.21
	c0.07,0.1,0.11,0.21,0.15,0.3h4.89c0.08-0.36,0.26-0.69,0.52-0.93c0.12-0.14,0.27-0.25,0.44-0.33l-1.26-4.63L8.76,20.21z
	 M27.94,16.12c1.32,0.01,2.49,0.56,3.36,1.41c0.88,0.88,1.41,2.1,1.41,3.44c0,1.33-0.53,2.55-1.41,3.43
	c-0.88,0.88-2.1,1.43-3.44,1.43c-1.33,0-2.55-0.55-3.43-1.43C23.55,23.52,23,22.3,23,20.97c0-0.9,0.25-1.75,0.69-2.48
	c0.4-0.67,0.96-1.25,1.63-1.66l0.12,0.45c-0.55,0.37-1.03,0.86-1.37,1.44c-0.38,0.66-0.6,1.43-0.6,2.25c0,1.21,0.48,2.3,1.27,3.1
	c0.81,0.81,1.9,1.29,3.11,1.29c1.22,0,2.32-0.48,3.11-1.29c0.79-0.79,1.29-1.89,1.29-3.1c0-1.22-0.49-2.32-1.29-3.11
	c-0.74-0.75-1.77-1.23-2.89-1.29L27.94,16.12z M15.64,19.01c0.01,0,0.04,0,0.07,0c0.51,0,0.97,0.21,1.32,0.52l8.41-5.74l-0.33-1.18
	l-10.83,1.45L15.64,19.01z M25.23,16.45c-0.74,0.42-1.36,1.03-1.81,1.75c-0.49,0.79-0.78,1.74-0.78,2.77c0,1.44,0.59,2.74,1.53,3.69
	c0.95,0.95,2.25,1.53,3.69,1.53c1.45,0,2.75-0.59,3.7-1.53c0.95-0.95,1.53-2.25,1.53-3.69c0-1.45-0.59-2.75-1.53-3.7
	c-0.95-0.95-2.25-1.53-3.7-1.53h-0.01l-0.25-0.9h0.03c0.1,0,0.18,0,0.23,0c1.7,0,3.23,0.69,4.34,1.8c1.11,1.11,1.8,2.64,1.8,4.34
	c0,1.69-0.69,3.22-1.8,4.33s-2.64,1.8-4.34,1.8c-1.69,0-3.22-0.69-4.33-1.8c-1.11-1.11-1.8-2.64-1.8-4.33c0-1.19,0.33-2.3,0.92-3.25
	c0.58-0.92,1.37-1.66,2.33-2.17L25.23,16.45z M11.58,18.3c0.23,0.34,0.42,0.74,0.56,1.15c0.03,0.05,0.04,0.11,0.05,0.16h-0.48v-0.03
	c-0.11-0.33-0.26-0.64-0.44-0.93L11.58,18.3z M12.18,22.34c-0.22,0.78-0.66,1.49-1.22,2.06c-0.88,0.88-2.08,1.43-3.43,1.43
	c-1.34,0-2.55-0.55-3.43-1.43c-0.88-0.88-1.43-2.1-1.43-3.43c0-1.34,0.55-2.56,1.43-3.44c0.88-0.88,2.08-1.41,3.43-1.41
	c0.38,0,0.77,0.04,1.14,0.12c0.29,0.07,0.56,0.16,0.84,0.29l-0.3,0.36C9,16.81,8.79,16.74,8.57,16.68
	c-0.33-0.07-0.67-0.11-1.03-0.11c-1.22,0-2.32,0.49-3.11,1.29c-0.79,0.79-1.29,1.89-1.29,3.11c0,1.21,0.49,2.3,1.29,3.1
	c0.79,0.81,1.89,1.29,3.11,1.29s2.32-0.48,3.11-1.29c0.48-0.48,0.85-1.07,1.07-1.73H12.18z M12.6,19.61
	c-0.04-0.14-0.08-0.26-0.12-0.4c-0.16-0.44-0.37-0.85-0.63-1.22l0.6-0.71c0.37,0.49,0.67,1.04,0.88,1.63
	c0.08,0.23,0.15,0.47,0.21,0.7C13.54,19.61,12.6,19.61,12.6,19.61z"/>
</svg>
