<?xml version="1.0" encoding="utf-8"?>
<!-- Generator: Adobe Illustrator 24.2.1, SVG Export Plug-In . SVG Version: 6.00 Build 0)  -->
<svg version="1.1" id="Layer_1" xmlns="http://www.w3.org/2000/svg" xmlns:xlink="http://www.w3.org/1999/xlink" x="0px" y="0px"
	 viewBox="0 0 35 35" style="enable-background:new 0 0 35 35;" xml:space="preserve">
<style type="text/css">
	.st0{fill:#FF0000;}
</style>
<g>
	<path class="st0" d="M8.43,15.07c0,0-0.45-0.89-0.81-1.2c-0.35-0.31-0.51-0.79-0.57-1.19C7,12.28,7.2,11.3,7.45,10.45
		c0.26-0.85,1.18-3,1.53-3.44c0.35-0.44,0.88-0.74,1.18-0.92s1.16-0.82,2.25-0.89c0.01-0.33,0.01-0.33,0.01-0.33
		s-0.14-0.08-0.17-0.25s-0.23-0.28-0.26-0.5c-0.03-0.23-0.12-0.79,0.32-0.5c0-0.51,0.07-2.25,1.64-2.25c1.56,0,1.79,1.77,1.78,2.04
		s-0.14,0.56-0.04,0.68s-0.01,0.78-0.2,1.19c0.22,0.09,0.61,0.26,0.84,0.41c0.23,0.16,0.28,0.25,0.55,0.33
		c0.27,0.07,0.76,0.42,1.05,0.73c0.29,0.31,0.35,0.42,0.51,0.52c0.16,0.11,0.98,1.2,1.2,1.74c0.22,0.54,0.18,0.91,0.18,0.91
		s0.14,0.3,0.29,0.53c0.15,0.23,0.06,0.34,0.2,0.52c0.14,0.18,0.25,0.71,0.52,1.33s0.45,1.34,0.62,1.61
		c0.17,0.27,0.16,0.54-0.04,0.64c0.22,0.2,0.48,0.48,0.64,0.74c0.16,0.25-0.07,0.55-0.2,0.57c-0.01,0.1-0.02,0.12,0.02,0.13
		s0.4,0.4,0.18,0.48c0.04,0.22,0.07,0.64-0.14,0.67c-0.1,0.28-0.35,0.28-0.35,0.28s-0.16,0.16-0.4,0.18
		c-0.3,0.18-0.54,0.09-0.72-0.15c-0.18-0.24-0.26-0.37-0.26-0.63c0-0.26,0.01-0.4,0.01-0.4s-0.21-0.25-0.12-0.44
		c0.09-0.19,0.19-0.37,0.03-0.5c-0.15-0.13-0.25-0.37-0.18-0.43c0.08-0.06,0.12-0.08,0.05-0.18c-0.07-0.1-0.06-0.19,0.01-0.26
		c0.06-0.07,0.03-0.16-0.03-0.27c-0.06-0.12-0.23-0.39-0.42-0.83c-0.18-0.44-0.25-0.64-0.4-0.77c-0.16-0.13-0.86-0.62-1.3-1.49
		c-0.44-0.87-0.6-1.4-0.7-1.39c-0.1,0.01-0.11,0.06-0.2,0.05C16.83,9.9,16.8,9.89,16.8,10c-0.01,0.12,0.02,0.75-0.08,1.11
		c-0.11,0.36-0.26,0.59-0.22,0.9c0.04,0.3,0.02,0.5,0.12,0.7c0.1,0.21,0.13,0.44,0.13,0.72c-0.01,0.28-0.14,0.27-0.29,0.85
		c-0.15,0.58-0.13,0.8-0.32,0.85c-0.18,0.05-0.38,0.1-0.3,0.27s0.21,0.31,0.07,0.43c-0.13,0.12-0.15,0.06-0.04,0.26
		c0.11,0.19,0.22,0.57,0.3,0.82c0.08,0.26,0.02,0.64-0.03,0.81C16.09,17.88,16.05,18,16.05,18s0.28,0.01,0.28,0.3
		c0,0.29,0.15,1.08,0.23,1.47s0.1,0.94,0.17,0.99c0.07,0.06,0.26,0.18,0.16,0.27c-0.11,0.09-0.08,0.1-0.06,0.2
		c0.01,0.1,0.06,1.69,0.01,2.24c0.03,0.09,0.04,0.16-0.01,0.19c-0.04,0.03-0.05,0.32-0.06,0.36s-0.05,0.04-0.05,0.07
		c0,0.03,0.01,0.86-0.39,1.48c-0.03,0.12,0,0.6-0.44,0.89c-0.44,0.28-1.23,0.09-1.23,0.09s0.31,0.47,0.33,0.79
		c0.02,0.32,0.05,0.46,0.18,0.7c0.13,0.24,0.18,0.36,0.27,0.6s0.26,0.45,0.36,0.74c0.1,0.3,0.09,0.44,0.32,0.71
		c0.23,0.27,0.52,0.5,0.61,0.72c0.09,0.23,0.11,0.28,0.11,0.28s0.11,0.11,0.18,0.39c0.08,0.28,0.13,0.7,0.15,0.8
		c0.02,0.1-0.11,0.11-0.11,0.11s0.04,0.13-0.05,0.21c-0.09,0.08-0.19,0.03-0.19,0.03s0.07,0.24-0.19,0.35
		c-0.26,0.12-0.84,0.3-1.5,0.19s-0.56-0.38-0.38-0.55c0.18-0.18,0.28-0.35,0.29-0.57c0.01-0.22-0.04-0.8,0.04-0.85
		c-0.04-0.18-0.08-0.2-0.06-0.23c0.02-0.02-0.06-0.06-0.05-0.11c0.01-0.04-0.06-0.06-0.02-0.11c0.04-0.04-0.1-0.31-0.34-0.49
		s-0.64-0.48-0.89-0.88s-0.35-0.33-0.54-0.55s-0.37-0.31-0.5-0.67c-0.12-0.36-0.11-0.29-0.25-0.52s-0.23-0.33-0.25-0.55
		c-0.01-0.22-0.11-0.3-0.19-0.43c-0.08-0.13-0.11-0.17-0.11-0.42c-0.01-0.25-0.03-0.38,0.01-0.38c0.04,0.01,0-0.01,0-0.01
		s-0.08-0.14-0.16-0.54c-0.08-0.4-0.15-0.41-0.41-0.82s-0.42-0.66-0.42-0.66s-0.14,0.05-0.18-0.08s-0.26-0.53-0.29-0.57
		c-0.03-0.03-0.44-0.23-0.72-0.29c-0.28-0.06-0.55-0.04-0.55-0.04s-0.08,0.33-0.25,0.32s-0.42-0.08-0.56-0.04
		c-0.14,0.04-0.27,0.16-0.37,0.18c-0.11,0.02-0.13,0.07-0.2,0.12c-0.07,0.05-0.37,0.51-0.64,0.71c-0.27,0.2-0.76,0.13-0.79-0.21
		c-0.14-0.13-0.19-0.09-0.19-0.24s0.11-0.19,0.11-0.19s-0.06-0.12-0.09-0.27s-0.01-0.21,0.2-0.28c0.11-0.28,0.13-0.28,0.13-0.28
		s-0.07-0.3,0.08-0.43c0.08-0.05,0.16,0.08,0.16,0.08s0.28-0.41,0.47-0.66c0.19-0.25,0.25-0.28,0.23-0.32
		c-0.01-0.04-0.09-0.23-0.13-0.45c-0.04-0.22,0.04-0.22,0.1-0.31s0.19,0.03,0.19,0.03s0.13-0.1,0.13-0.16
		c-0.09-0.22-0.18-0.38-0.06-0.49C7.86,19.83,7.93,19.77,8,19.8c0.06,0.03,0.07,0.06,0.07,0.06s-0.04-0.13,0.13-0.19
		c0.16-0.06,0.24,0.07,0.24,0.07s0.22-0.13,0.34,0.07c0.03-0.21,0.06-0.23,0.08-0.31c0.02-0.09-0.04-0.36-0.09-0.64
		c-0.05-0.28-0.16-0.31-0.16-0.72c0.01-0.41,0.19-0.45,0.06-0.61c-0.13-0.16-0.4-0.4-0.44-0.74s0.07-0.34-0.07-0.62
		c-0.14-0.28-0.03-0.14,0.07-0.43C8.33,15.44,8.43,15.07,8.43,15.07z"/>
	<path class="st0" d="M28,31.92c0,1.29-1.05,2.34-2.34,2.34s-2.34-1.05-2.34-2.34s1.05-2.34,2.34-2.34
		C26.95,29.58,28,30.63,28,31.92z"/>
</g>
</svg>
