<?xml version="1.0" encoding="utf-8"?>
<!-- Generator: Adobe Illustrator 24.2.1, SVG Export Plug-In . SVG Version: 6.00 Build 0)  -->
<svg version="1.1" id="Layer_1" xmlns="http://www.w3.org/2000/svg" xmlns:xlink="http://www.w3.org/1999/xlink" x="0px" y="0px"
	 viewBox="0 0 35 35" style="enable-background:new 0 0 35 35;" xml:space="preserve">
<style type="text/css">
	.st0{fill:#333333;}
</style>
<path class="st0" d="M33.07,12.32c-0.35-0.03-4.11-0.25-4.54-0.26c-0.42-0.01-1.13,0.3-1.3,2.95c-0.59-0.03-2.05-0.11-3.65-0.18
	c0-0.02-0.01-0.03-0.01-0.05c-0.06-0.16-0.25-0.14-0.25-0.14s-0.01-0.06-0.1-0.12c-0.09-0.07-0.24,0.07-0.24,0.07
	s-0.06-0.19-0.19-0.2c-0.13-0.01-0.25,0.19-0.24,0.16s-0.06-0.27-0.14-0.24c-0.08,0.03-0.19,0.24-0.25,0.28
	c-0.05,0.04-0.11,0.06-0.12,0.18c-0.83-0.03-1.63-0.06-2.3-0.07c-0.04-0.03-0.1-0.07-0.17-0.11c-0.3-0.17-0.77-0.33-0.79-0.39
	s0.07-0.39,0.07-0.39s0.26-0.1,0.22-0.24c-0.04-0.13,0.04-0.29,0.03-0.52s-0.18-0.14-0.18-0.14s-0.01-1.61-1.41-1.56
	c-1.4,0.06-1.22,1.33-1.22,1.62c-0.32-0.16-0.2,0.51-0.12,0.68s0.21,0.13,0.21,0.13s0.03,0.12,0.09,0.21
	c0.07,0.09-0.01,0.11-0.07,0.34c-0.27,0-0.64,0.24-0.86,0.33c0,0,0,0-0.01,0c-0.73,0-1.49,0-2.25,0c0.02-0.08,0.02-0.15-0.03-0.2
	c-0.09-0.09,0-0.29-0.14-0.3s-0.23,0.27-0.23,0.27s0-0.07-0.06-0.08s-0.27-0.08-0.33,0.07c-0.08-0.09-0.29-0.03-0.34,0.09
	c-0.18-0.08-0.29-0.02-0.33,0.1c0,0.02-0.01,0.03-0.01,0.05c-1.22,0.01-2.4,0.04-3.4,0.08c-0.04-2.3-0.83-3.04-1.18-3.02
	c-0.36,0.02-3.76,0.09-4.28,0.12s-1.31,0.81-1.31,3.33s0.99,3.25,1.39,3.24c0.4-0.01,3.72-0.02,4.49-0.07
	c0.74-0.05,0.88-1.41,0.89-3.15c0.59-0.02,1.89-0.07,3.35-0.12c-0.03,0.06-0.15,0.14-0.14,0.38c0.01,0.25,0.04,0.35,0.13,0.44
	c0.09,0.09-0.07,0.22,0.09,1.02s0.56,1.79,0.93,1.96c0.16,0.17,0.32,0.31,0.63,0.29c0.31-0.02,0.71-0.45,0.91-0.69
	c0.16-0.07,0.35-0.39,0.36-0.35c0.01,0.04,0.08,0.19,0.13,0.24c0.06,0.06,0.09,0.09,0.05,0.15c-0.05,0.06-0.11,0.18,0.01,0.27
	s0.14,0.19,0.1,0.28s-0.01,0.25-0.01,0.25s-0.51-0.27-1.36-0.18c-0.85,0.09-1.16,0.81-1.2,1.83s0.28,1.42,0.57,1.63
	c0.28,0.22,0.61,0.68,0.72,0.9c0.1,0.22,0.25,0.12,0.27,0.16c0.03,0.04,0.07,0.01,0.05,0.08c-0.02,0.07,0.06,0.23,0.02,0.27
	c-0.04,0.05-0.12,0.14-0.12,0.14s-0.12,0.09-0.24,0.13c-0.11,0.04-0.08,0.17-0.09,0.32s-0.24,0.29-0.56,0.53
	c-0.32,0.24-0.53,1.02,0.37,1.04c0.9,0.02,1.12-0.6,1.22-0.68c0.09-0.08,0.27-0.08,0.42-0.13c0.15-0.06,0.3-0.12,0.29-0.23
	c-0.01-0.11-0.04-0.77-0.06-1.06c-0.02-0.29-0.11-0.43-0.24-0.4c-0.14-0.06-0.29-0.69-0.29-0.69s0.06-0.1-0.01-0.17
	c-0.07-0.07-0.13-0.33-0.13-0.38s-0.05-0.2,0.44,0.22s1.38,0.29,1.73,0.25c0.35-0.05,0.98,0.01,2.16-0.03s1.78-0.89,1.77-0.79
	c-0.01,0.09,0.11,0.3,0.1,0.4c-0.01,0.09-0.02,0.22-0.06,0.3c-0.04,0.08,0,0.09,0.01,0.13c0.01,0.04-0.11,0.43-0.19,0.75
	c-0.22-0.02-0.29,0.16-0.28,0.47s0,0.75-0.02,0.84s-0.06,0.19,0.17,0.29s0.47,0.07,0.47,0.07s0.17,0.07,0.22,0.27
	c0.05,0.21,0.1,0.35,0.52,0.51s0.89,0.04,0.95-0.13c0.07-0.17,0.11-0.45-0.08-0.73c-0.19-0.27-0.55-0.59-0.52-0.61
	c0.03-0.03-0.02-0.12-0.19-0.24c0.04-0.21-0.1-0.3-0.16-0.3s-0.12-0.04-0.1-0.12s0.02-0.15-0.06-0.22
	c-0.01-0.21,0.21-0.48,0.21-0.48s0.25-0.13,0.26-0.33s0.12-0.27,0.42-0.55c0.3-0.27,0.55-1.08,0.49-1.89s-0.43-1.04-0.73-1.28
	c0.54-0.45,0.86-1.16,0.98-1.71c0.12-0.55,0.34-1.17,0.36-1.46c0.1-0.09,0.14-0.6,0.08-0.73c-0.01-0.03-0.02-0.06-0.02-0.11
	c1.58,0.07,2.93,0.14,3.63,0.19c-0.06,1.5,0.04,3.11,0.71,3.17c0.71,0.06,4.41,0.29,4.68,0.3c0.27,0.01,1.06-0.09,1.35-3.05
	C34.2,13.3,33.42,12.35,33.07,12.32z M14.63,15.12c-0.16,0.05-0.35,0.18-0.45,0.17c-0.1-0.01-0.2-0.02-0.28,0.09
	c-0.08,0.11,0.01,0.21-0.15,0.45c-0.16,0.25-0.2,0.25-0.17,0.46c0.03,0.22-0.04,0.27-0.16,0.37c-0.12,0.09-0.15,0.24-0.15,0.24
	s0,0-0.1,0.03s-0.25-0.64-0.33-0.89s-0.01-0.13,0.19-0.42c0.15-0.21,0.19-0.4,0.21-0.56c0.5-0.01,1.01-0.02,1.49-0.03
	C14.7,15.07,14.67,15.1,14.63,15.12z M22.17,15.47c0.11,0.23,0.21,0.41,0.22,0.66c0.01,0.22-0.28,0.77-0.33,0.88
	c0.01-0.04-0.04-0.08-0.11-0.05c-0.08,0.04-0.03-0.09-0.08-0.2c-0.05-0.1-0.18-0.01-0.17-0.06s0.05-0.25-0.05-0.32
	c-0.09-0.07-0.18-0.36-0.2-0.48c-0.02-0.12,0.07-0.19-0.07-0.17c-0.13,0.02-0.41-0.33-0.62-0.47c-0.05-0.03-0.1-0.06-0.17-0.1
	c0.5,0.02,1,0.04,1.49,0.06C22.1,15.3,22.13,15.38,22.17,15.47z"/>
</svg>
