<?xml version="1.0" encoding="utf-8"?>
<!-- Generator: Adobe Illustrator 24.2.1, SVG Export Plug-In . SVG Version: 6.00 Build 0)  -->
<svg version="1.1" id="Layer_1" xmlns="http://www.w3.org/2000/svg" xmlns:xlink="http://www.w3.org/1999/xlink" x="0px" y="0px"
	 viewBox="0 0 35 35" style="enable-background:new 0 0 35 35;" xml:space="preserve">
<style type="text/css">
	.st0{fill:#333333;}
</style>
<path class="st0" d="M12.8,14.26c0,0-0.29-0.53-0.29-1.01c0-0.48-0.14-0.84-0.19-1.11c-0.05-0.27-0.07-0.49,0.05-0.8
	s0.22-0.8,0.43-1.26s0.1-0.6,0.31-0.94c0.21-0.34,0.26-0.53,0.24-0.82C13.33,8.03,13.33,8.07,13.56,8c0.24-0.07,0.32-0.07,0.31-0.32
	c-0.02-0.26,0.1-0.29,0.17-0.31s-0.03-0.21-0.1-0.31c-0.07-0.1-0.44,0.02-0.53-0.12s-0.9-0.65-1.37-1.09
	c-0.46-0.44-0.61-0.97-0.61-1.28c0-0.31-0.08,0.03-0.12-0.1c-0.03-0.14,0.02-0.1,0.02-0.34s0.02-0.38,0.04-0.63
	c0.02-0.26,0.09-0.8,0.07-1.14s0.07-0.55,0.09-0.43s-0.07,0.26,0.07,0.26c0.14,0,0.07,0,0.15-0.19c0.09-0.19,0.12-0.14,0.21-0.24
	c0.08-0.1,0.1-0.09,0.2-0.19c0.1-0.1,0.09-0.07,0.27-0.19c0.19-0.12,0.19-0.1,0.34-0.15c0.15-0.05,0.22-0.09,0.22-0.09
	S13.64,1,14.47,1c0.84,0,1.3-0.08,1.91,0.36c-0.07,0.05,0.02,0.1,0.02,0.1s0.63,0.22,0.85,0.79c0.22,0.56,0.17,0.73,0.29,0.9
	s0.19,0.26,0.15,0.41c-0.04,0.16-0.05,0.46,0.07,0.56c0.12,0.1,0.41,0.51,0.41,0.92s-0.29,0.8-0.41,1.13
	c-0.12,0.32,0.07,0.43-0.07,0.68c-0.14,0.26-0.7,0.48-0.94,0.55c0.8,0.19,1.67,0.51,1.89,0.87c0.22,0.36,0.43,0.97,0.6,1.71
	c0.17,0.73,0.09,1.16,0.09,1.55s0.15,0.61,0.14,1.09c0.39,0.15,1.35,0.63,1.88,0.65c0.53,0.02,0.87,0.05,1.24,0.09
	c0.38,0.03,0.48,0.24,0.6,0.37c0.12,0.14,0.03,0.22-0.12,0.14c0,0,0.46,0.2,0.6,0.44c0.14,0.24-0.17,0.37-0.31,0.37
	c0.1,0.31-0.03,0.49-0.09,0.53c0.03,0.31-0.29,0.42-0.32,0.42c-0.12,0.39-0.39,0.34-0.51,0.26c-0.12-0.09-0.36-0.41-0.49-0.5
	c-0.14-0.08-0.29-0.03-0.29-0.03s-0.03,0.48-0.29,0.55c-0.02,0.31-0.19,0.51-0.46,0.43c-0.27-0.09-0.85-0.17-0.85-0.31
	c0-0.14,0.05-0.22-0.07-0.31c-0.12-0.09-0.51-0.12-0.51-0.12s0,0.99-0.07,1.21c-0.07,0.22,0.09,0.17,0.1,0.67
	c0.02,0.49,0.05,0.87,0.2,1.42c0.15,0.55,0.24,0.77,0.19,1.01s-0.19,0.27-0.09,0.44s0.36,0.56,0.31,1.02
	c-0.05,0.46-0.12,0.39,0.02,0.8c0.14,0.41,0.19,0.32,0.17,0.67c-0.02,0.34,0.02,0.46,0.1,0.63c0.09,0.17,0.1,0.26,0.14,0.68
	c0.03,0.43-0.02,0.56-0.24,0.75s-0.29,0.21-0.29,0.21s0.02,0.31-0.09,0.56c-0.1,0.26-0.19,0.19-0.24,0.75s-0.09,1.47-0.78,2.86
	c-0.7,1.4-1.18,2.01-1.16,2.17c0.31,0.07,1.23,0.17,1.64,0.6c0.41,0.43,0.75,0.85,0.36,1.18s-2.51,1.21-3.72,1.16
	s-1.47-0.31-1.5-0.61c-0.03-0.31,0.02-0.73,1.13-0.75c0.32-0.85,0.8-2.42,0.99-3.62c0.19-1.19,0.38-2.17,0.73-2.78
	c0.36-0.61,0.31-1.16,0.31-1.16s-1.04-0.36-1.54-0.75c-0.49-0.39-0.32-0.84-0.32-0.84s-0.27,0.31-0.38,0.48
	c-0.1,0.17-0.85,1.77-1.35,2.75c-0.49,0.97-0.65,1.26-0.61,1.62c0.03,0.36,0.05,0.61,0.05,0.68s0.51,0.15,0.68,0.49
	s-0.02,0.36-0.02,0.36s0.31,0,0.31,0.26s-0.02,0.37-0.32,0.41c-0.31,0.03-0.85,0.19-1.11,0.39c-0.26,0.21-1.74,0.1-2.06-0.05
	c-0.32-0.15-0.17-0.51-0.02-0.55c0.15-0.03,0.58-0.07,0.58-0.07s-0.46-0.31-0.37-0.58s0.41-0.36,0.51-0.7s0.51-0.85,0.63-2.25
	s0.44-2.76,1.07-3.5c-0.1-1.08,0.07-1.82,0.1-1.88c0,0-0.89-0.39-0.84-2.64c-0.17-0.12-0.15-0.8-0.15-0.99
	c-0.22-0.17-0.17-0.39,0.02-0.63c0.19-0.24,0.41-0.26,0.17-0.67s-0.05-0.87,0.24-1.14C12.64,15.33,12.47,14.86,12.8,14.26z"/>
</svg>
