<?xml version="1.0" encoding="utf-8"?>
<!-- Generator: Adobe Illustrator 24.2.1, SVG Export Plug-In . SVG Version: 6.00 Build 0)  -->
<svg version="1.1" id="Layer_1" xmlns="http://www.w3.org/2000/svg" xmlns:xlink="http://www.w3.org/1999/xlink" x="0px" y="0px"
	 viewBox="0 0 35 35" style="enable-background:new 0 0 35 35;" xml:space="preserve">
<style type="text/css">
	.st0{fill:#333333;}
</style>
<g>
	<path class="st0" d="M23.35,8.56c0,0-0.47-0.3-0.7-0.58c-0.58-0.76-1.86-1.31-1.86-1.31s-1.42-2.18-2.27-3.7
		c-0.85-1.51-1.5-1.78-2.09-1.8c-0.58-0.02-1.85-0.29-2.25-0.12c-0.48-0.02-0.81,0.1-1.01,0.34s-0.67,0.42-0.9,0.56
		s-0.38,0.31-0.45,0.6c-0.39,0.51-0.08,0.93,0.1,1.01c-0.01,0.15,0.04,0.41,0.04,0.6c-0.07,0.02-0.09,0.24,0,0.37
		s0.11,0.19,0.08,0.21s-0.21,0.04-0.17,0.07c0.03,0.03,0.19,0.04,0.25,0.16c-0.04,0.16-0.24,0.3-0.26,0.87
		c-0.03,0.57,0.3,0.89,0.41,1.2c0.11,0.31,0.39,0.44,0.39,0.44s-0.18,0.15-0.76,0.79s-1.55,0.87-1.55,0.87s0.39,0.06,1.19-0.31
		c-0.12,0.41-0.45,0.5-0.45,0.5s0.38,0.03,0.62-0.25c-0.02,0.29,0.12,0.51,0.14,0.57c0.01,0.06,0.12,0.12,0.11,0.23
		s-0.01,0.21-0.09,0.49c-0.07,0.28,0.1,0.52,0.16,0.64c0.06,0.12,0.06,0.1,0.06,0.34s0.2,0.58,0.31,0.93
		c-0.13,0.18-0.06,1.12-0.06,1.12s-0.47-0.17-0.75-0.29S11.08,12.98,11,13.1c-0.52,0-0.67,0-0.87,0.18s-0.02,0.43,0.23,0.33
		c0.04,0.02,0.25-0.03,0.57,0.02c-0.51,0.01-0.54,0.12-0.72,0.25s-0.27,0.34-0.05,0.4c-0.25,0.43,0.21,0.46,0.44,0.33
		c0.18,0,0.31-0.01,0.37-0.03c0.06-0.02,0.26,0.05,0.21,0.1c-0.2,0.02-0.38,0.06-0.6,0.16c-0.21,0.09-0.14,0.39,0.12,0.29
		s0.67-0.05,1.05-0.02s0.88-0.07,0.88-0.07s0.06,0.32-0.04,0.64s-0.02,0.56,0.21,0.78c-0.01,0.38,0.2,0.49,0.2,0.49
		s0.04,0.03-0.13,0.2s-0.02,0.93-0.01,1.22c0.01,0.29-0.06,0.38-0.23,0.84c-0.17,0.46,0.02,0.91,0.06,1.31
		c0.03,0.4,0.15,0.49,0.44,0.87c-0.19,0.23-0.65,0.51-0.91,0.7c-0.26,0.2-0.18,0.6-0.18,0.6s-0.7,0.82-0.81,0.97
		c-0.11,0.15-0.16,0.2,0,0.26c0.16,0.07,0.53,0.31,0.65,0.48c0.11,0.17,0.28,0.33,0.43,0.33c0.15-0.01,0.11,0.15,0.35,0.16
		c0.24,0.02,0.96,0,0.96,0s0.16,0.44,0.25,0.82s0.62,0.21,0.62,0.21s0.02,0.31,0.05,0.82s0.14,0.56,0.2,1.24
		c0.06,0.69,0.37,1.06,0.37,1.63s0.09,1.22,0.1,1.62c0.01,0.4,0.01,0.45,0.51,0.6c-0.2,0.65-1.23,0.42-1.47,1.18
		c-0.25,0.76,0.87,0.83,1.58,0.92c0.7,0.1,1.3-0.24,1.68-0.34s1.09-0.11,1.09-0.28s-0.05-0.61-0.26-1.15
		c-0.2-0.53-0.24-0.68-0.24-0.68s0.2,0.13,0.13-0.1c-0.07-0.23,0.04-1.27-0.12-2.12c-0.16-0.85-0.4-1.95-0.4-1.95
		s0.81,0.05,1.25,0.02c-0.16,1.23,0.34,2.09,0.98,2.1s1.12-0.53,1.29-1.33c0.17-0.79-0.13-1.53-0.13-1.53s0.51,0.14,0.59-0.26
		c0.07-0.4-0.02-0.56-0.47-1.41c0.96,0.18,1.07,0,1-0.34s-0.7-1.7-1.11-2.35c0.05-0.13,0.03-0.46-0.27-0.79
		c0.74,0.01,1.05-0.55,1.1-0.98c0.06-0.43-0.2-0.88-0.4-1.31c-0.2-0.42-0.96-0.7-1.13-0.83c-0.16-0.13-0.19-0.42-0.1-0.63
		c0.09-0.2,0.14-0.48,0.09-0.7c-0.05-0.21-0.54-0.3-0.54-0.3s-0.04,0-0.02-0.61c0.02-0.6-0.6-0.61-0.6-0.61
		C19.3,15.13,18.83,15,18.83,15s0.13-0.24-0.01-0.35c-0.14-0.12-0.42-0.19-0.42-0.19s0.06-0.08-0.07-0.25
		c-0.14-0.16,0.03-0.16,0.2-0.3c0.16-0.14,0.13-0.29,0.05-0.35s-0.22-0.09-0.12-0.29c0.11-0.21,0.12-0.35,0.02-0.56
		c-0.1-0.2-0.04-0.42-0.03-0.74c0.01-0.33,0.08-0.65,0.21-0.93c0.1-0.22,0.03-0.44-0.09-0.7c0.02-0.03,0.03-0.07,0.04-0.1
		c0.03-0.1,0.03-0.21,0.06-0.31c0.03-0.1,0.07-0.2,0.1-0.31c0.02-0.11,0.04-0.21,0.07-0.32c0,0.04,0.01,0.1,0,0.14
		c0.01-0.03,0.03-0.05,0.05-0.07c0.02-0.03,0.03-0.05,0.05-0.09c0,0.02,0.03,0.07,0.04,0.09c0.01,0.03,0.03,0.06,0.04,0.09
		s0.01,0.06,0.01,0.09c0,0.02,0.01,0.06-0.01,0.08c0.05-0.02,0.05-0.09,0.07-0.14s0.07-0.12,0.06-0.17
		c0.02,0.02,0.01,0.05,0.03,0.08c0.01,0.02,0.02,0.05,0.03,0.06c0-0.03,0.02-0.06,0.03-0.09c0.01,0.02,0.03,0.04,0.03,0.07
		c0.01,0.03,0.01,0.06,0.01,0.09c0,0.05,0.01,0.12,0,0.17c-0.01,0.06-0.03,0.12-0.04,0.19c-0.01,0.05-0.04,0.11-0.03,0.16
		c0.04-0.01,0.07-0.05,0.09-0.09c0.02-0.06,0.04-0.11,0.07-0.17c0.03-0.05,0.08-0.13,0.08-0.2c0,0.04,0.01,0.07,0.01,0.11
		c0.01,0.05-0.01,0.09,0,0.13c0.04-0.04,0.07-0.08,0.09-0.13c0.02-0.06,0.06-0.13,0.06-0.2c0.02,0.02,0.02,0.11,0.01,0.15
		c0.08-0.05,0.1-0.17,0.14-0.25c0.01-0.03,0.02-0.06,0.04-0.08l0,0c0.03,0.08,0.09,0.15,0.13,0.22c0.03-0.05,0.03-0.13,0.08-0.17
		c0.02,0.03,0,0.06,0.02,0.09c0.02-0.03,0.03-0.07,0.05-0.1c0.02-0.03,0.06-0.06,0.09-0.07c-0.01,0.04,0.02,0.08,0.04,0.11
		c0.03,0.04,0.06,0.06,0.08,0c0.03-0.07,0.05-0.13,0.1-0.18c0.03-0.04,0.06-0.07,0.1-0.11c-0.03,0.04,0.03,0.1,0.06,0.12
		c0.06,0.05,0.11,0.1,0.17,0.15c0.06,0.05,0.12,0.1,0.19,0.14c0.04,0.03,0.07,0.05,0.12,0.07c0.02,0.01,0.06,0.02,0.07,0.04
		C21.09,9.55,21,9.49,21,9.4c0.07,0.07,0.18,0.08,0.28,0.06c-0.03-0.06-0.13-0.09-0.15-0.17c0.05,0.06,0.21,0.09,0.26,0.02
		c-0.06-0.02-0.11-0.06-0.17-0.08c-0.06-0.03-0.12-0.07-0.19-0.1c-0.1-0.06-0.18-0.16-0.23-0.26c0.01,0.02,0.06,0.03,0.08,0.05
		c0.05,0.02,0.1,0.04,0.15,0.05c0.08,0.02,0.16,0.02,0.24,0.03c-0.04-0.02-0.09-0.02-0.13-0.04c0.07,0,0.16,0.01,0.23,0.02
		c0.03,0.01,0.07,0.01,0.1,0.03c-0.02-0.02-0.03-0.05-0.04-0.07c-0.01-0.03-0.04-0.07-0.04-0.1c0.07,0.04,0.12,0.08,0.15,0.16
		c0.02,0.03,0.04,0.06,0.05,0.09c0.01,0.02,0.01,0.06,0.03,0.07c0.1-0.09,0.05-0.25,0.03-0.36c0.04,0.04,0.11,0.12,0.12,0.17
		c0.04,0,0.02-0.22,0.02-0.26c0.01,0.04,0.02,0.1,0.07,0.08s0.03-0.1,0.04-0.14c0.06,0.04,0.13,0.05,0.17,0.12
		c0.03,0.04,0.04,0.09,0.06,0.14c0.05-0.04,0.03-0.13,0.03-0.18c0-0.06,0-0.11,0-0.16c0.03,0,0.06-0.01,0.09,0
		c0.05,0.02,0.09,0.11,0.13,0.16c0.02-0.04,0.03-0.08,0.06-0.12c0.02-0.04,0.03-0.08,0.05-0.11c0.02,0.03,0.01,0.07,0.03,0.1
		c0.03-0.01,0.05-0.06,0.06-0.09s-0.01-0.07,0.03-0.06c0.04,0.01,0.11,0.07,0.14,0.1c0.03-0.07,0.02-0.15-0.01-0.21
		C22.98,8.44,23.35,8.56,23.35,8.56z"/>
</g>
</svg>
