<?xml version="1.0" encoding="utf-8"?>
<!-- Generator: Adobe Illustrator 24.2.1, SVG Export Plug-In . SVG Version: 6.00 Build 0)  -->
<svg version="1.1" id="Layer_1" xmlns="http://www.w3.org/2000/svg" xmlns:xlink="http://www.w3.org/1999/xlink" x="0px" y="0px"
	 viewBox="0 0 35 35" style="enable-background:new 0 0 35 35;" xml:space="preserve">
<style type="text/css">
	.st0{fill-rule:evenodd;clip-rule:evenodd;fill:#FF0000;}
</style>
<g>
	<path class="st0" d="M28.25,17.15c-0.46,0.12-2.02,0.32-3.35,0.1c-0.18-0.03-0.26-0.24-0.14-0.38c0.62-0.74,2.16-2.79,2.37-5.26
		c0.04-0.46-0.77-0.61-0.89-0.17c-0.2,0.77-0.39,2.91-2.7,4.71c-1.1,0.85-2.76,1.35-3.47,2.62c0.32-2.74-0.05-3.36,3.86-9.44
		c0.23-0.35-0.47-0.9-0.61-0.58c-0.24,0.51-1.37,2.76-3,4.68c-0.16,0.19-0.47,0.12-0.53-0.13c-0.31-1.3-1.14-4.43-2.13-5.68
		c-0.31-0.33-0.78,0.16-0.6,0.52c0.34,0.67,2.52,5.09,1.86,8.74c0,0-0.34-1.59-1.77-2.82c-0.16-0.14-0.28-0.33-0.31-0.54
		c-0.11-0.67-0.4-2.18-0.85-2.92c-0.18-0.29-0.58-0.04-0.47,0.24c0.13,0.33,0.58,1.39,0.47,2.26c0,0-1.13-1.5-3.54-2.59
		c-0.42-0.19-0.4,0.52-0.08,0.68c0.49,0.25,2.25,1.21,3.57,2.67c0.04,0.05-0.01,0.12-0.07,0.09c-0.39-0.2-1.18-0.56-2.22-0.89
		c-0.31-0.1-0.31,0.65-0.01,0.7c1.2,0.22,5.05,2.06,3.66,3.72c-0.27,0.33-0.91,0.56-2.42-0.77c0,0-1.69-1.38-3.19-4.51
		c0,0-0.54-1.79-0.44-2.53c0.05-0.41-0.63-0.95-0.66-0.53c-0.03,0.33-0.08,1.52,0.37,2.65c0,0-2.04-1.45-3.44-1.13
		c-0.38,0.09-0.67,0.79-0.04,0.67c0.44-0.08,1.36-0.1,2.56,0.76c0.73,0.53,1.32,1.22,1.75,2.01c0.75,1.37,1.84,2.6,2.81,4
		c0.09,0.13-0.07,0.29-0.2,0.19c-2.36-1.79-5.45-1.56-6.92-4.52c-0.15-0.3-0.65,0.17-0.53,0.43c0.22,0.49,0.47,2.02,4.43,3.62
		c0.16,0.07,0.18,0.29,0.03,0.38c-0.62,0.37-2.09,1.05-4.27,0.8c-0.57-0.06-0.38,0.72,0.11,0.75c0.59,0.04,2.58,0.09,4.38-0.7
		c0.86-0.38,1.61-0.39,2.45,0.26c3.96,4.29-1.72,8.94,0.05,12.54c0.04,0.08,0.09,0.16,0.15,0.24c-1.93,0.19-3.2,0.51-3.2,0.87H25.8
		c0-0.37-1.3-0.69-3.27-0.88c0.02-0.11,0.03-0.22,0.01-0.34c-0.65-3.72-5.39-5.45-2.98-10.83c0,0,1.3-1.9,2.79-2.68
		c0.46-0.24,0.99-0.31,1.51-0.23c0.83,0.14,2.62,0.35,4.55-0.07C28.8,17.89,28.68,17.04,28.25,17.15z"/>
	<path class="st0" d="M25.56,17.16c-0.24-1.08,1.79-1.8,2.49-0.83c0.89-0.88,2.03-0.77,2.29,0.36c0.96-0.41,1.79,0.39,1.77,1.2
		c1.63-0.4,1.39,2.01-0.07,1.69c-0.17,1-1.67,0.95-1.99,0.2c-0.39,1.06-1.89,1.22-2.32,0.11c-0.83,1.08-2.39,0.54-2.11-0.52
		C24.47,19.38,24.34,17.64,25.56,17.16z"/>
	<path class="st0" d="M24.34,11.42c-0.26-1.16,1.93-1.94,2.69-0.9c0.96-0.95,2.18-0.83,2.47,0.39c1.03-0.44,1.93,0.42,1.91,1.3
		c1.76-0.43,1.5,2.16-0.07,1.82c-0.18,1.07-1.8,1.03-2.14,0.21c-0.42,1.14-2.04,1.31-2.5,0.12c-0.89,1.16-2.57,0.58-2.28-0.56
		C23.17,13.82,23.03,11.94,24.34,11.42z"/>
	<path class="st0" d="M20.85,7.19c-0.2-0.9,1.51-1.51,2.09-0.7c0.74-0.74,1.7-0.64,1.92,0.31c0.8-0.34,1.5,0.32,1.49,1.01
		c1.37-0.33,1.17,1.68-0.06,1.42c-0.14,0.83-1.4,0.8-1.67,0.17c-0.33,0.89-1.59,1.02-1.94,0.1c-0.69,0.91-2,0.45-1.77-0.44
		C19.94,9.05,19.83,7.58,20.85,7.19z"/>
	<path class="st0" d="M19.07,7.32c0.2-0.9-1.51-1.51-2.09-0.7c-0.74-0.74-1.7-0.64-1.92,0.31c-0.8-0.34-1.5,0.32-1.49,1.01
		c-1.37-0.33-1.17,1.68,0.06,1.42c0.14,0.83,1.4,0.8,1.67,0.17c0.33,0.89,1.59,1.02,1.94,0.1c0.69,0.91,2,0.45,1.77-0.44
		C19.98,9.18,20.09,7.72,19.07,7.32z"/>
	<path class="st0" d="M10.74,8.17c0.23-1.02-1.71-1.71-2.37-0.79C7.52,6.55,6.44,6.66,6.19,7.73C5.28,7.34,4.49,8.1,4.5,8.87
		c-1.55-0.38-1.32,1.91,0.06,1.61c0.16,0.95,1.59,0.9,1.89,0.19c0.37,1.01,1.8,1.16,2.2,0.11c0.78,1.03,2.27,0.51,2.01-0.5
		C11.77,10.28,11.89,8.63,10.74,8.17z"/>
	<path class="st0" d="M8.77,13.47C9,12.45,7.06,11.76,6.4,12.68c-0.84-0.84-1.93-0.73-2.18,0.35c-0.91-0.39-1.7,0.37-1.68,1.14
		c-1.55-0.38-1.32,1.91,0.06,1.61c0.16,0.95,1.59,0.9,1.89,0.19c0.37,1.01,1.8,1.16,2.2,0.11c0.78,1.03,2.27,0.51,2.01-0.5
		C9.8,15.58,9.93,13.92,8.77,13.47z"/>
	<path class="st0" d="M10.91,19.01c0.23-1.02-1.71-1.71-2.37-0.79c-0.84-0.84-1.93-0.73-2.18,0.35c-0.91-0.39-1.7,0.37-1.68,1.14
		c-1.55-0.38-1.32,1.91,0.06,1.61c0.16,0.95,1.59,0.9,1.89,0.19c0.37,1.01,1.8,1.16,2.2,0.11c0.78,1.03,2.27,0.51,2.01-0.5
		C11.95,21.12,12.07,19.46,10.91,19.01z"/>
	<path class="st0" d="M14.57,13.19c0.15-0.68-1.13-1.13-1.57-0.52c-0.56-0.55-1.27-0.48-1.44,0.23c-0.6-0.26-1.12,0.24-1.11,0.76
		c-1.03-0.25-0.87,1.26,0.04,1.06c0.1,0.63,1.05,0.6,1.25,0.12c0.24,0.67,1.19,0.76,1.46,0.07c0.52,0.68,1.5,0.34,1.33-0.33
		C15.25,14.59,15.33,13.49,14.57,13.19z"/>
	<path class="st0" d="M15.67,9.92c0.15-0.68-1.13-1.13-1.57-0.53c-0.56-0.56-1.28-0.48-1.45,0.23c-0.6-0.26-1.13,0.24-1.12,0.76
		c-1.03-0.25-0.88,1.27,0.04,1.07c0.1,0.63,1.06,0.6,1.26,0.13c0.25,0.67,1.19,0.77,1.46,0.07c0.52,0.68,1.51,0.34,1.33-0.33
		C16.35,11.32,16.44,10.22,15.67,9.92z"/>
	<path class="st0" d="M20.03,9.92c0.15-0.68-1.13-1.13-1.57-0.53c-0.56-0.56-1.28-0.48-1.45,0.23c-0.6-0.26-1.13,0.24-1.12,0.76
		c-1.03-0.25-0.88,1.27,0.04,1.07c0.1,0.63,1.06,0.6,1.26,0.13c0.25,0.67,1.19,0.77,1.46,0.07c0.52,0.68,1.51,0.34,1.33-0.33
		C20.72,11.32,20.8,10.22,20.03,9.92z"/>
</g>
</svg>
