<?xml version="1.0" encoding="utf-8"?>
<!-- Generator: Adobe Illustrator 24.2.1, SVG Export Plug-In . SVG Version: 6.00 Build 0)  -->
<svg version="1.1" id="Layer_1" xmlns="http://www.w3.org/2000/svg" xmlns:xlink="http://www.w3.org/1999/xlink" x="0px" y="0px"
	 viewBox="0 0 35 35" style="enable-background:new 0 0 35 35;" xml:space="preserve">
<style type="text/css">
	.st0{fill-rule:evenodd;clip-rule:evenodd;fill:#FF0000;}
</style>
<g>
	<path class="st0" d="M19.65,32.97l-2.7-23.76l0,0l0,0l0,0l0,0l-2.7,23.76c-1.99,0.19-3.36,0.58-3.36,1.03H23
		C23.01,33.55,21.64,33.16,19.65,32.97z"/>
	<g>
		<path class="st0" d="M20.89,17.1l1.96,5.62l-0.87-5.02c-0.13-0.73-0.48-1.39-1.01-1.9l-1.04-1l-0.36-4.72l1.68,5.8l-0.74-5.99
			l1.77,5.08l-0.78-4.53c-0.11-0.65-0.43-1.25-0.91-1.71L19.93,8.1l-0.47-3.85l1.24,3.56l-0.52-3c-0.1-0.58-0.38-1.1-0.8-1.51
			l-0.25-0.24l-0.71-0.68L18.02,2l-0.37-0.35L16.95,1l-0.69,0.66L15.9,2.01l-0.4,0.38l-0.71,0.68l-0.25,0.24
			c-0.42,0.4-0.7,0.93-0.8,1.51l-0.52,3l1.24-3.56l-0.47,3.85l-0.66,0.63c-0.48,0.46-0.8,1.06-0.91,1.71l-0.78,4.53l1.77-5.08
			l-0.74,5.99l1.68-5.8l-0.36,4.72l-1.04,1c-0.53,0.51-0.89,1.18-1.01,1.9l-0.87,5.02l1.96-5.62l-0.82,6.63l1.86-6.43l-0.56,7.22
			l1.28-5.66l0.28-1.25l-0.28,3.63l-0.38,4.94l0.38-1.94l0.71-3.57l0.4-2.01l0.19-0.98l-0.19,3.76l-0.28,5.39l0.28-1.83l0.37-2.41
			l0.4-2.6l0.3,8.8l0.28-8.8l0.4,2.6l0.37,2.41l0.28,1.83l-0.28-5.39l-0.19-3.76l0.19,0.98l0.4,2.01l0.71,3.57l0.38,1.94l-0.38-4.94
			l-0.28-3.63l0.28,1.25l1.28,5.66l-0.56-7.22l1.86,6.43L20.89,17.1z M14.07,8.03l0.72-2.49l0.34-1.16l-0.22,2.85l-0.12,0.11
			L14.07,8.03z M14.99,13.85l-0.19,0.19l-0.47,0.45l0.47-2.05l0.47-2.05L14.99,13.85z M15.5,6.66l-0.26,0.25l0.26-1.17l0.26-1.17
			l-0.15,1.98L15.5,6.66z M16.01,12.87l-0.11,0.11l-0.28,0.27l0.28-1.4l0.28-1.4L16.01,12.87z M16.32,5.87l-0.06,0.05l-0.14,0.14
			l0.14-0.72l0.14-0.72L16.32,5.87z M19.12,5.54l0.72,2.49l-0.72-0.69L19,7.23l-0.22-2.85L19.12,5.54z M17.59,5.87L17.5,4.62
			l0.14,0.72l0.14,0.72l-0.14-0.14L17.59,5.87z M18.01,12.98l-0.11-0.11l-0.17-2.44l0.28,1.4l0.28,1.4L18.01,12.98z M18.3,6.56
			l-0.15-1.98l0.26,1.17l0.26,1.17l-0.26-0.25L18.3,6.56z M19.12,14.04l-0.2-0.19l-0.27-3.48l0.47,2.06l0.47,2.05L19.12,14.04z"/>
	</g>
</g>
</svg>
