<?xml version="1.0" encoding="utf-8"?>
<!-- Generator: Adobe Illustrator 24.2.1, SVG Export Plug-In . SVG Version: 6.00 Build 0)  -->
<svg version="1.1" id="Layer_1" xmlns="http://www.w3.org/2000/svg" xmlns:xlink="http://www.w3.org/1999/xlink" x="0px" y="0px"
	 viewBox="0 0 35 35" style="enable-background:new 0 0 35 35;" xml:space="preserve">
<style type="text/css">
	.st0{fill:#FF0000;stroke:#000000;stroke-width:0.0515;}
	.st1{fill:#FF0000;}
</style>
<g>
	<polygon class="st0" points="5.79,23.21 6.1,25.6 8.8,27.58 8.91,25.29 7.34,23.7 	"/>
	<g>
		<path class="st0" d="M30.57,19.03l-3.59-1.42l-0.07,0.82c0,0,3.34,1.38,3.44,1.38C30.47,19.81,30.57,19.03,30.57,19.03z"/>
		<polygon class="st0" points="26.89,13.25 26.8,14.64 26.03,14.98 26.24,12.97 		"/>
		<path class="st0" d="M26.14,7.2c0,0,0.41,0.05,0.53,0.38c0.12,0.32,0.74-0.21,0.74-0.21S27.31,6.96,26.86,7L26.14,7.2z"/>
		<polygon class="st0" points="30.83,21.11 31.49,20.72 32.32,14.64 31.69,14.56 		"/>
		<polygon class="st0" points="27.41,7.37 27.02,12.06 26.26,12.27 26.67,7.58 		"/>
		<path class="st0" d="M27.02,11.96l-0.71,0.27c0,0,1.91,1.84,6.3,1.84c0.44-0.12,0.99,0.22,0.92,0.9c-0.02,0.2-0.2,0.56-0.2,0.56
			l0.73-0.4c0,0,0.44-0.29,0.16-0.94s-0.94-0.43-0.94-0.43S30.77,13.77,27.02,11.96z"/>
		<path class="st0" d="M25.85,7.39c0,0,0.15-0.25,0.43-0.18s0.39,0.37,0.39,0.37l-0.37,4.65c0,0,2.14,1.39,6.04,1.82l0.26,0.02
			c0,0,0.8-0.25,1.02,0.74c0,1.08-0.88,0.75-0.88,0.75s-0.39-0.16-0.52-0.61l-0.55-0.08l-0.83,6.23l-0.79-0.33l0.76-6.07
			c0,0-2.45-0.48-4.56-1.65l-0.16,2.08l-0.78-0.28L25.85,7.39z"/>
		<path class="st1" d="M31.15,13"/>
	</g>
	<g>
		<polygon class="st0" points="25.35,14.52 25.96,14.73 7.32,22.58 6.74,22.17 		"/>
		<polygon class="st0" points="25.96,14.73 25.97,14.93 7.41,22.67 7.32,22.58 		"/>
	</g>
	<g>
		<g>
			<polygon class="st0" points="16.68,18.47 17.71,18.03 17.69,11.41 16.58,11.64 			"/>
			<polygon class="st0" points="16.44,11.71 16.58,11.64 16.68,18.47 16.56,18.42 			"/>
		</g>
		<g>
			<polygon class="st0" points="14.45,19.41 15.56,18.93 15.39,12.34 14.19,12.59 			"/>
			<polygon class="st0" points="14.05,12.62 14.19,12.59 14.45,19.41 14.33,19.35 			"/>
		</g>
		<g>
			<polygon class="st0" points="12.04,20.41 13.24,19.91 12.89,13.14 11.56,13.33 			"/>
			<polygon class="st0" points="11.46,13.42 11.56,13.33 12.04,20.41 11.92,20.35 			"/>
		</g>
		<g>
			<polygon class="st0" points="9.45,21.5 10.74,20.94 10.2,13.86 8.79,14.33 			"/>
			<polygon class="st0" points="8.69,14.39 8.79,14.33 9.45,21.5 9.33,21.43 			"/>
		</g>
		<g>
			<polygon class="st0" points="6.61,22.53 8.02,22.1 7.29,14.82 5.77,15.18 			"/>
			<polygon class="st0" points="5.63,15.37 5.77,15.18 6.61,22.53 6.52,22.39 			"/>
		</g>
		<g>
			<polygon class="st0" points="24.26,15.31 25.06,14.97 25.47,9.16 24.63,9.32 			"/>
			<polygon class="st0" points="24.14,15.26 24.26,15.31 24.63,9.32 24.48,9.53 			"/>
		</g>
		<g>
			<polygon class="st0" points="22.55,16.02 23.39,15.67 23.71,9.77 22.81,10.06 			"/>
			<polygon class="st0" points="22.43,15.98 22.55,16.02 22.81,10.06 22.67,10.09 			"/>
		</g>
		<g>
			<polygon class="st0" points="20.72,16.79 21.62,16.41 21.84,10.27 20.89,10.58 			"/>
			<polygon class="st0" points="20.6,16.74 20.72,16.79 20.89,10.58 20.74,10.54 			"/>
		</g>
		<g>
			<polygon class="st0" points="18.77,17.6 19.74,17.21 19.84,11 18.81,11.29 			"/>
			<polygon class="st0" points="18.65,17.55 18.77,17.6 18.81,11.29 18.68,11.24 			"/>
		</g>
	</g>
	<g>
		<polygon class="st0" points="26.81,14.49 27.43,14.69 6.89,23.54 6.14,23.19 		"/>
		<polygon class="st0" points="27.43,14.69 27.42,14.99 7.17,23.86 6.89,23.54 		"/>
	</g>
	<g>
		<polygon class="st0" points="27.68,14.76 28.31,14.99 7.88,24.08 7.11,23.76 		"/>
		<polygon class="st0" points="28.31,14.99 28.29,15.26 8.03,24.43 7.88,24.08 		"/>
	</g>
	<g>
		<polygon class="st0" points="28.57,15.08 29.21,15.3 8.77,24.69 8.05,24.28 		"/>
		<polygon class="st0" points="29.21,15.3 29.18,15.58 8.93,25 8.77,24.69 		"/>
	</g>
	<g>
		<polygon class="st0" points="29.47,15.38 30.15,15.6 9.73,25.26 8.79,24.95 		"/>
		<polygon class="st0" points="30.15,15.6 30.12,15.88 9.92,25.57 9.78,25.24 		"/>
	</g>
	<g>
		<polygon class="st0" points="30.4,15.68 30.67,15.77 30.62,16.13 12.17,25.21 11.52,24.74 		"/>
		<polygon class="st0" points="30.62,16.13 30.57,16.57 12.2,25.81 12.17,25.21 		"/>
	</g>
	<g>
		<polygon class="st0" points="30.71,16.35 31.41,16.6 10.97,27.02 10.15,26.65 12.64,25.31 		"/>
		<polygon class="st0" points="31.39,16.96 31.41,16.6 10.96,27.03 10.96,27.52 		"/>
	</g>
	<g>
		<polygon class="st0" points="6.72,25.63 8.63,24.75 7.82,24.36 6.07,25.16 		"/>
		<polygon class="st0" points="6.07,25.16 6.13,25.62 6.78,26.09 6.72,25.63 6.72,25.63 		"/>
		<polygon class="st0" points="8.44,25.25 6.78,26.09 6.72,25.63 8.63,24.75 8.63,25.17 		"/>
	</g>
	<g>
		<polygon class="st0" points="6.96,25.81 7.63,26.31 8.81,25.72 8.73,24.98 		"/>
		<polygon class="st0" points="6.96,25.81 7.02,26.27 7.68,26.76 7.63,26.31 		"/>
		<polygon class="st0" points="8.81,25.72 7.63,26.31 7.68,26.76 8.76,26.27 		"/>
	</g>
	<g>
		<polygon class="st0" points="7.87,26.48 8.58,26.98 9.08,26.74 9.03,25.92 9.01,25.9 		"/>
		<polygon class="st0" points="7.87,26.48 7.93,26.94 8.62,27.45 8.58,26.98 		"/>
		<polygon class="st0" points="8.93,27.3 8.62,27.45 8.58,26.98 9.08,26.74 		"/>
	</g>
	<path class="st0" d="M4.78,15.84l-0.16-1.2l-0.11-0.1l21.59-6.4c0,0,0.2-0.02,0.27,0.1l-0.06,0.82L4.78,15.84z"/>
	<g>
		<path class="st0" d="M5.2,29.32c0.05,0,1.31-0.69,1.31-0.69l-0.8-5.99l-1.58-1.28H3.98L5.2,29.32z"/>
		<polygon class="st0" points="11.46,32.63 10.12,33.43 9.35,25.14 10.82,24.79 		"/>
		<path class="st0" d="M2.4,13.83c0,0,1.46-0.41,1.56-0.43c0.1-0.03,0.38,0.06,0.58,0.59l-0.03,0.1l-1.55,0.44L2.4,13.83z"/>
		<polygon class="st0" points="2.99,14.43 4.54,13.98 5.35,20.1 3.91,20.64 		"/>
		<path class="st0" d="M5.46,27.26l0.12,0.86l3.57,2.86l-0.11-1.27l-3.32-2.58C5.73,27.14,5.46,27.1,5.46,27.26z"/>
		<path class="st0" d="M5.35,20.1c0,0,3.24,2.84,5.93,3.7c0,0,0.25,0.1,0.28,0.1s0.54-0.22,1.08,1.01c0,0,0.37,0.9-0.09,1.13
			c-0.45,0.23-1.53,0.76-1.53,0.76l-1.28-1.6l-5.99-4.45l0.17-0.11L5.35,20.1z"/>
		<g>
			<g>
				<path class="st1" d="M10.86,25.14c-0.44-0.71-0.82-0.54-0.82-0.54L9.8,24.51c-2.87-1.07-5.89-3.87-5.89-3.87l-0.92-6.21
					c-0.58-1.07-0.76-0.4-0.76-0.4l2.29,14.72l0.68,0.57l-0.61-4.1l4.3,3.24l0.46,4.33l0.8,0.66l-0.77-7.99l0.53,0.25
					c0,0,0.57,1.33,1.11,1.1C11.42,26.63,11.23,25.72,10.86,25.14z M4.47,24.39l-0.4-2.66c1.84,1.84,4.46,3.28,4.46,3.28l0.27,2.56
					L4.47,24.39z"/>
			</g>
			<g>
				<path class="st0" d="M10.86,25.14c-0.44-0.71-0.82-0.54-0.82-0.54L9.8,24.51c-2.87-1.07-5.89-3.87-5.89-3.87l-0.92-6.21
					c-0.58-1.07-0.76-0.4-0.76-0.4l2.29,14.72l0.68,0.57l-0.61-4.1l4.3,3.24l0.46,4.33l0.8,0.66l-0.77-7.99l0.53,0.25
					c0,0,0.57,1.33,1.11,1.1C11.42,26.63,11.23,25.72,10.86,25.14z M4.47,24.39l-0.4-2.66c1.84,1.84,4.46,3.28,4.46,3.28l0.27,2.56
					L4.47,24.39z"/>
			</g>
		</g>
	</g>
	<path class="st0" d="M4.4,23.94c0,0,1.5-0.63,1.52-0.63c0.01,0,0.56,0.41,0.59,0.42L5,24.38L4.4,23.94z"/>
	<polygon class="st0" points="4.4,23.94 4.47,24.39 5.06,24.83 5,24.38 	"/>
	<polygon class="st0" points="6.5,23.73 6.73,23.89 6.72,24.03 5.06,24.83 5,24.38 	"/>
	<path class="st0" d="M5.22,24.54l0.62,0.45l1.51-0.69c0,0-0.6-0.39-0.62-0.41C6.71,23.88,5.22,24.54,5.22,24.54z"/>
	<polygon class="st0" points="5.28,24.99 5.89,25.44 5.84,24.99 5.22,24.54 	"/>
	<polygon class="st0" points="7.35,24.3 7.6,24.46 6.07,25.16 6.1,25.36 5.89,25.44 5.84,24.99 	"/>
</g>
</svg>
