<?xml version="1.0" encoding="utf-8"?>
<!-- Generator: Adobe Illustrator 24.2.1, SVG Export Plug-In . SVG Version: 6.00 Build 0)  -->
<svg version="1.1" id="Layer_1" xmlns="http://www.w3.org/2000/svg" xmlns:xlink="http://www.w3.org/1999/xlink" x="0px" y="0px"
	 viewBox="0 0 35 35" style="enable-background:new 0 0 35 35;" xml:space="preserve">
<style type="text/css">
	.st0{fill:#FF0000;}
</style>
<g>
	<path class="st0" d="M24.13,9.37C23.98,9.09,23.7,8.7,23.7,8.7s-0.08-0.5-0.22-0.76s-0.31-0.25-0.46-0.42
		c-0.14-0.17-0.18-0.19-0.38-0.12c-0.2,0.06-0.3,0.08-0.5-0.01s-0.22-0.11-0.25-0.11s0.06-0.21-0.07-0.24
		C21.7,7,21.71,6.75,21.63,6.78c-0.09,0.02-0.1-0.17-0.23-0.21c-0.13-0.03-0.23-0.29-0.46-0.31s-0.23,0.04-0.32-0.03
		c-0.1-0.07-0.13-0.1-0.37-0.13s-0.27-0.3-0.46-0.22c-0.19,0.09,0.01,0.2-0.19,0.09c-0.19-0.11-0.19-0.2-0.79-0.34
		c-0.6-0.14-0.88-0.16-1.11-0.39c-0.23-0.23-0.54-0.19-0.54-0.19s-0.05-0.64-0.05-0.87s0-0.29,0-0.29s0.29-0.06,0.3-0.6
		c0.01-0.53-0.08-0.61-0.26-0.58c-0.01-0.43,0.1-1.57-1.54-1.71c-0.48-0.04-1.41,0.65-1.52,1.22c-0.11,0.56-0.04,1.13-0.08,1.44
		c-0.03,0.31,0.12,0.47,0.26,0.9s0.31,0.82,0.31,0.82s-0.46,0.11-0.84,0.39c-0.38,0.28-0.93,0.59-1.17,0.7
		c-0.24,0.12-0.66,0.51-0.92,1s-0.48,1.08-0.68,1.3C10.76,9,10.59,9.44,10.38,9.85c-0.21,0.4-0.27,0.67-0.5,0.92
		s-0.24,0.28-0.34,0.52c-0.1,0.24-0.16,0.39-0.09,0.38c0.08-0.01,0.25,0.04,0.25,0.04s0.22,0.33,0.41,0.41
		c-0.25,0.41-0.29,0.48-0.34,1.09c-0.04,0.61-0.06,1.19-0.12,1.44c-0.17,0.02-0.37,0.11-0.39,0.33c-0.25,0.09-0.3,0.25-0.28,0.41
		c-0.11,0.11-0.14,0.33-0.12,0.47c-0.16,0.08-0.04,0.12-0.01,0.35S8.82,16.45,9,16.63c0.18,0.18,0.37,0.44,0.5,0.35
		s-0.14-0.32-0.14-0.32s0.14,0.01,0.17-0.17s-0.06-0.26-0.06-0.26s0.43-0.1,0.56-0.31c0.13-0.22,0.18-0.24,0.34-0.36
		c0.15-0.12,0.3-0.29,0.19-0.58c0.32-0.5,0.27-0.38,0.65-0.9c0.38-0.52,0.41-0.66,0.51-0.95s0.25-0.34,0.25-0.34s0.1-0.1,0.1-0.18
		c0-0.09,0.12-0.33,0.26-0.74s0.24-0.46,0.31-0.67c0.08-0.22,0.15-0.44,0.21-0.38c0,0-0.13,0.42,0.07,0.85
		c0.2,0.42,0.39,0.64,0.31,0.89c-0.07,0.25-0.18,0.5-0.17,0.93s0,1.33-0.05,1.48c-0.05,0.14-0.15,0.38-0.02,0.62
		c0.13,0.24,0.05,0.39,0.14,0.47s0.05,0.27,0.04,0.37s-0.06,0.36,0.05,0.37c0.12,0.01,0.12,0.01,0.12,0.01s-0.12,0.6,0.01,0.86
		s0.1,0.36,0.17,0.45c0.08,0.09,0.16,0.04,0.27,0.23c0.11,0.18,0.18,0.45,0.28,0.75c0.1,0.29,0.17,0.23,0.14,0.45
		c-0.03,0.22-0.09,0.35,0.09,0.51c0.17,0.16,0.24,0.23,0.24,0.23s-0.08,0.08,0.01,0.21s0.12,0.24,0.12,0.24s-0.12,0.02-0.03,0.24
		s0.4,0.89,0.4,0.89s-0.26,0.78,0.11,1.28c-0.03,0.06-0.08,0.16-0.02,0.22c0.05,0.05,0.08-0.01,0.09,0.09s-0.02,0.04,0.01,0.13
		c0.03,0.09,0.02,0.02,0.02,0.12s-0.09,0.05,0,0.1c0.09,0.04,0.03,0.01,0.09,0.04c0.05,0.03,0.02-0.07,0.05,0.03s0,0.11,0.07,0.17
		c0.06,0.06,0.01,0.08,0.04,0.15c0.03,0.08-0.08,0.11-0.01,0.17c0.07,0.07,0.1,0.19,0.08,0.29c-0.02,0.11-0.15,0.43-0.03,1.15
		s0.42,1.68,0.4,2.09s-0.05,0.87,0.03,0.85c0.03,0.24,0.09,0.33,0.05,0.4c-0.03,0.08-0.07,0.08-0.02,0.11
		c0.04,0.03,0.14,0.08,0.12,0.17c-0.02,0.1,0.06,0.5-0.02,0.71c-0.09,0.2-0.23,0.32-0.22,0.64c0.01,0.31,0.06,0.48,0.06,0.48
		s-0.01,0.18-0.18,0.36c-0.17,0.17-0.61,0.61-0.59,0.85c0.02,0.24,0.16,0.31,0.16,0.31s-0.06,0.24,0.03,0.25
		c0.1,0.01,0.19-0.16,0.19-0.16s0.04,0.15,0.09,0.18c0.04,0.03,0,0.19,0.12,0.19s0.16-0.23,0.16-0.23s0.26-0.01,0.34,0
		c0.02,0.21,0.1,0.26,0.17,0.19c0.08-0.08,0.12-0.15,0.12-0.15s0.15,0.01,0.29,0.01c0.1,0.26,0.19,0.26,0.22,0.25
		c0.03-0.01,0.03-0.18,0.03-0.18l0.05,0.03c0,0-0.03,0.15,0.02,0.15c0.05,0,0.21-0.15,0.22-0.23c0.01-0.08,0.15-0.31,0.22-0.44
		c0.07-0.13,0.1-0.59-0.06-0.98c-0.04-0.13-0.04-0.13-0.04-0.13s0-0.22,0.04-0.25s0.11-0.31-0.01-0.51
		c-0.12-0.19-0.13-0.52-0.1-0.68c0.03-0.16,0.08-0.22,0.04-0.24c-0.03-0.02-0.03-0.65-0.02-0.69s0.13-0.11,0.1-0.19
		c-0.03-0.08-0.01-0.16-0.01-0.22c0-0.05,0.01-0.09,0.01-0.22s0.05-1.16,0.15-1.76s0.12-0.98,0.12-0.98s0.8,0.24,1.22,0.16
		c0.41-0.08,1.08-0.24,1.08-0.24s-0.01,0.1,0.04,0.1c0.05,0,0.08,0.01,0.09,0.06s0.05,0.05,0.07,0.12c0.01,0.07,0.09,0.26,0.21,0.34
		c0.12,0.08,0.17,0.27,0.18,0.38c0.01,0.11,0.1,0.34,0.17,0.45c0.08,0.12,0.23,0.99,0.8,1c0.31,0,0.53-0.4,0.61-0.86
		c0.08,0,0.21-0.01,0.22-0.03c0.01-0.04,0-0.15-0.06-0.13c-0.02,0.01-0.08-0.01-0.13-0.04c0.03-0.32,0-0.64-0.12-0.82
		c0,0,0-0.01-0.01-0.01c0.05-0.01,0.08-0.04,0.08-0.08c0-0.08-0.02-0.11-0.09-0.11c-0.03,0-0.07,0-0.12-0.01
		c-0.04-0.08-0.08-0.15-0.11-0.22c-0.01-0.27-0.02-0.76-0.01-1.16l0,0c0.04-0.21,0.06-0.41,0.05-0.59c0-0.01,0.01-0.02,0.01-0.03
		c0.12-0.12,0.12-0.17,0.12-0.24s-0.04-0.08-0.11-0.05c-0.01,0.01-0.04,0.02-0.06,0.03c-0.08-0.37-0.31-0.59-0.68-0.58
		c-0.61,0.02-0.89,0.78-0.89,0.78s-0.59-0.31-1.01-0.26c-0.16-0.35-0.69-0.57-0.89-0.57c-0.15-0.57-0.24-0.61-0.23-0.91
		s-0.1-0.67-0.1-0.7c0-0.02,0.54,0.14,0.77-0.28s0.35-0.58,0.38-0.77c0.03-0.2,0.07-0.22,0.07-0.22s0.25-0.29,0.29-0.51
		s0.04-0.36,0.04-0.36s0.17,0.02,0.23-0.13c0.05-0.15,0.04-0.35,0.04-0.35s0.09-0.04,0.23-0.17s0.03-0.29,0.03-0.29
		s0.15-0.11,0.28-0.24c0.13-0.13,0.11-0.48,0.11-0.48s0.15-0.08,0.13-0.26s-0.14-0.27-0.1-0.38c0.04-0.11,0.1-0.28,0.1-0.28
		s0.24-0.03,0.35-0.09s0.11-0.35,0.11-0.35s0.23-0.11,0.26-0.14c0.03-0.03,0.08,0.03,0.08,0.03s-0.26,0.08-0.26,0.33
		c-0.1,0.06-0.01,0.26,0.1,0.24s0.7-0.24,0.7-0.24s-0.56,0.29-0.54,0.44c0.02,0.14,0.25,0.14,0.48,0.01
		c0.11,0.1,0.26,0.03,0.45-0.05c0.18-0.09,0.4-0.17,0.55-0.41s0.19-0.29,0.33-0.39c0.13-0.1,0.09-0.28,0.09-0.48
		s-0.09-0.73-0.01-0.9s0.01-0.25,0.13-0.41c0.12-0.16,0.17-0.06,0.16-0.47c-0.01-0.4,0-0.86,0.15-1.26c0.15-0.4,0.31-1.07,0.34-1.67
		C24.28,10.43,24.28,9.65,24.13,9.37z M22.78,13.59c-0.1,0.51-0.34,0.75-0.52,0.9c-0.19,0.15-0.39,0.5-0.39,0.5
		s-0.09-0.45-0.29-0.48c-0.21-0.02-0.34-0.24-0.34-0.24s0.05-0.37-0.01-0.39s-0.15,0-0.13-0.24s-0.13-0.23-0.17-0.37
		s0.02-0.54,0.02-0.54s0.19-0.68,0.26-1.13c0.08-0.44-0.13-0.35-0.14-0.78c-0.01-0.43-0.16-1.54-0.16-1.54s0.75,0.34,0.83,0.49
		s0.1,0.07,0.33,0.13s0.62,0.24,0.6,0.27c-0.02,0.03,0.13,1.25,0.17,1.82C22.86,12.57,22.87,13.08,22.78,13.59z"/>
</g>
</svg>
